<svg xmlns="http://www.w3.org/2000/svg" width="715" height="793" viewBox="0 0 715 793" fill="none"><path d="M355.684 0.0675925C356.2 0.0294128 356.716 0.0071355 357.231 0.000791747C361.446 -0.0351887 366.45 1.15757 370.181 3.08823C383.739 10.108 397.216 17.6005 410.677 24.786L506.727 76.5744L599.2 126.443C609.884 132.064 620.513 137.786 631.091 143.607C645.735 151.484 663.181 157.321 664.407 176.181C664.954 184.582 664.614 193.889 664.614 202.35L664.606 257.321L664.583 449.107L693.77 449.083C698.626 449.076 710.052 448.443 713.751 450.439C714.61 451.712 714.321 453.087 713.903 454.474C712.419 459.396 708.938 464.279 706.454 468.806C702.071 476.79 674.88 524.677 674.095 529.247C673.782 531.076 674.755 533.505 675.485 535.161C678.274 541.497 682.13 547.544 685.474 553.619C692.181 565.958 699.001 578.24 705.931 590.458C707.731 593.661 709.575 596.872 711.341 600.095C712.946 603.025 716.04 607.345 713.352 610.427C709.134 612.056 671.665 611.345 664.63 611.333C664.72 623.298 661.204 632.251 650.306 638.38C643.227 642.361 636.036 646.173 628.899 650.048C613.966 658.165 598.989 666.201 583.97 674.158L499.907 719.525L411.286 767.298L385.7 781.111C376.665 786.052 370.157 790.939 359.712 792.134C359.341 792.15 358.966 792.161 358.591 792.169C346.494 792.396 342.674 788.419 332.357 782.947L297.225 764.06L194.034 708.38L99.352 657.423C92.5512 653.744 85.4052 649.872 78.5884 646.263C61.1844 637.056 50.0759 633.056 49.7665 611.341L21.8391 611.38C17.0016 611.408 4.55398 612.181 0.851635 610.036C0.0910884 608.978 -0.179224 608.04 0.118433 606.751C1.21296 602.009 5.07312 596.74 7.41218 592.478C12.0493 584.037 39.2227 537.404 40.2641 531.376C40.5231 529.876 40.4071 528.669 39.8524 527.255C37.1243 520.279 32.5075 513.341 28.877 506.751L7.39773 467.646C-3.77723 447.251 -3.72493 449.076 18.8079 449.095L49.8809 449.126C49.2266 388.029 49.8317 325.706 49.8458 264.553L49.8309 205.899C49.8227 198.898 49.3884 181.473 50.1419 175.105C50.7821 169.976 52.8075 165.119 56.0012 161.056C61.5137 154.042 75.7204 147.714 83.9524 143.299L119.323 124.296L217.404 71.3209L303.465 24.9654L329.098 11.151C338.698 5.93077 344.668 1.39428 355.684 0.0675925Z" fill="white"></path><path d="M470.142 464.95C482.661 464.63 495.825 464.825 508.38 464.821L575.083 464.817L644.724 464.821C658.04 464.825 671.88 464.637 685.165 464.946C686.075 465.973 686.97 467.493 687.724 468.677C685.919 473.063 679.657 481.594 676.618 486.012L656.864 514.653C644.606 532.469 645.188 530.895 657.075 548.048L675.72 575.055C679.009 579.802 682.505 584.594 685.583 589.469C686.954 591.637 687.86 594.63 685.548 596.469C684.356 597.423 681.618 597.122 680.134 597.278C664.458 597.309 648.778 597.255 633.099 597.251H536.442L244.868 597.262L102.184 597.274L51.826 597.231C45.792 597.216 39.8018 597.321 33.7346 597.337C31.9846 597.872 26.9307 596.329 27.2744 593.798C27.8733 589.387 37.1838 577.38 39.4533 574.094L61.5362 542.032C63.8998 538.595 67.3705 533.989 66.6662 529.571C66.0159 525.497 59.4596 517.497 57.0026 513.927C53.376 508.661 27.3401 471.88 27.1721 469.247C27.1026 468.161 27.3311 467.348 28.0045 466.493C28.9889 465.243 31.0186 465.262 32.4756 465.208C45.8783 464.716 59.4588 465.192 72.8858 465.204L151.401 465.208H395.317L442.384 465.223C450.728 465.231 462.095 465.579 470.142 464.95Z" fill="#04264D"></path><path d="M574.512 483.031L609.824 483.102C610.441 513.672 609.852 546.418 609.852 577.148L586.516 577.152V529.824C586.465 526.676 587.012 515.625 586.086 513.543L585.461 513.43C584.668 514.645 577.121 570.5 576.211 577.133L555.605 577.16L549.262 535.348C548.762 531.934 547.047 514.816 545.273 513.738C543.777 516.578 544.602 569.484 544.625 577.016C537.41 577.273 529.695 577.141 522.441 577.133L522.449 483.02C533.918 483.316 546.352 483.082 557.895 483.078C560.965 502.27 562.164 523.039 566.133 542.105C567.281 536.973 567.836 531.715 568.641 526.508C570.82 512.047 572.777 497.551 574.512 483.031Z" fill="white"></path><path d="M192.655 482.106C229.709 479.157 229.198 497.239 229.145 527.126C229.126 537.907 229.507 549.126 227.696 559.853C225.307 574.005 217.074 576.642 204.458 578.294C196.385 579.212 183.292 578.282 176.492 573.259C171.985 569.993 169.195 561.431 168.891 555.876C167.947 538.665 167.387 519.552 169.214 502.442C170.717 488.364 179.756 483.591 192.655 482.106Z" fill="white"></path><path d="M197.444 501.508C198.669 501.578 199.953 501.602 201.137 501.949C202.123 502.242 202.975 502.801 203.428 503.746C205.622 508.32 205.736 552.027 203.575 556.348C202.724 558.047 201.212 558.305 199.525 558.84C198.694 558.832 197.836 558.781 197.025 558.59C195.593 558.25 194.309 557.5 193.658 556.133C191.545 551.691 191.507 508.648 193.626 504.199C194.403 502.57 195.885 502.145 197.444 501.508Z" fill="#04264D"></path><path d="M447.813 483.07C451.809 483.082 459.766 483.262 463.199 483.059C501.168 480.824 510.578 486.887 506.301 527.105C505.57 534 504.094 536.816 498.781 541.914C501.418 552.691 505.969 566.078 509.121 577.043C502.066 577.379 493.242 577.145 486.051 577.152C485.332 577.008 484.762 577.063 484.527 576.606C482.332 572.379 478.473 549.129 476.656 546.914C475.137 546.215 473.676 546.414 471.961 546.43L472.031 577.148C463.941 577.176 455.848 577.16 447.758 577.102L447.813 483.07Z" fill="white"></path><path d="M472.012 503.069C474.078 503.018 478.973 502.706 480.402 503.925C484.395 507.327 483.594 521.776 481.297 525.511C478.539 527.503 475.5 527.007 472.031 526.987L472.012 503.069Z" fill="#04264D"></path><path d="M244.798 483.066L269.198 483.046C277.508 483.038 290.92 482.284 296.957 489.382C303.063 496.562 303.091 508.066 303.05 517.015C303.01 525.597 302.732 535.859 296.913 542.796C291.826 548.753 282.448 548.866 275.352 549.089L268.538 549.109C268.387 558.284 268.531 567.89 268.535 577.101C260.589 577.152 252.644 577.144 244.699 577.085C245.126 545.863 244.469 514.343 244.798 483.066Z" fill="white"></path><path d="M268.557 503.073C270.271 503.022 275.034 502.772 276.035 503.526C280.363 506.799 279.144 524.002 277.267 527.69C273.616 529.686 272.747 529.334 268.547 529.299L268.557 503.073Z" fill="#04264D"></path><path d="M346.846 483.059L392.455 483.121C392.631 489.563 392.498 496.543 392.494 503.023L371.025 503.055C370.931 509.527 370.982 516.117 370.967 522.602L389.982 522.629L389.971 542.215L375.045 542.199L370.998 542.246C370.959 553.875 370.982 565.504 371.06 577.137L346.803 577.109C346.725 546.406 346.181 513.602 346.846 483.059Z" fill="white"></path><path d="M100.333 483.031L156.555 483.105C156.784 489.617 156.615 497.012 156.614 503.59L140.634 503.723L140.643 561.84L140.681 577.062C132.524 577.133 124.367 577.148 116.21 577.098L116.256 503.734C111.146 503.582 105.47 503.695 100.316 503.691C100.212 496.805 100.218 489.918 100.333 483.031Z" fill="white"></path><path d="M407.152 483.043C414.758 483.223 423.105 483.098 430.762 483.117C430.992 493.223 430.801 504.078 430.805 514.23V576L430.777 576.656C429.469 577.578 410.129 577.129 407.121 577.113C407.527 546.035 407.109 514.199 407.152 483.043Z" fill="white"></path><path d="M353.974 5.12371C358.724 4.50871 364.115 5.26441 368.38 7.49922C376.33 11.6637 384.205 15.9886 392.083 20.2887L424.509 37.7009L536.091 97.8884L612.365 138.95C620.404 143.266 647.72 156.833 652.83 161.918C656.501 165.57 658.814 170.045 659.49 175.186C660.701 184.35 659.892 194.345 659.892 203.626V259.217L659.857 449.12L651.494 449.109C651.568 442.062 651.537 435.011 651.404 427.964C650.56 428.445 649.728 428.952 648.837 429.335C647.208 430.027 645.001 430.031 643.24 430.093C627.095 430.675 610.716 430.019 594.54 430.042C577.47 430.07 559.79 430.742 542.802 430.023C540.447 429.921 538.146 429.706 535.978 428.706C534.228 427.898 532.623 426.765 531.158 425.519C526.275 421.359 521.923 416.343 517.353 411.831C512.341 406.886 506.705 402.116 502.154 396.761C501.001 395.406 499.697 393.714 499.236 391.968C498.974 390.964 499.372 389.991 499.837 389.105C502.029 384.925 526.052 361.623 531.177 357.383C533.017 355.86 535.404 354.046 537.736 353.474C542.517 352.302 548.521 352.955 553.47 352.965L579.193 353.018L623.033 352.968C630.755 352.963 638.615 352.852 646.326 353.1C648.642 353.174 649.544 353.468 651.501 354.647C651.716 317.49 651.65 280.332 651.294 243.176L651.318 200.885C651.322 193.752 651.462 186.55 651.255 179.426C651.076 173.217 649.673 168.661 643.9 165.497C625.54 155.431 607.017 145.703 588.603 135.744L454.939 63.6782L388.517 27.8903C381.822 24.3268 366.365 15.0866 360.107 13.6422C359.134 13.5218 358.154 13.439 357.173 13.3942C353.759 13.2701 350.611 14.6544 347.671 16.2353C323.424 29.27 299.076 42.2841 274.882 55.4028L155.239 119.966L104.768 147.167C97.1937 151.14 89.655 155.181 82.1538 159.29C70.9612 165.283 62.0546 167.5 62.8378 181.992C63.0589 186.079 62.8179 191.638 62.8132 195.845L62.8062 231.73L63.0358 354.187C65.5651 352.358 68.1276 352.128 71.1702 352.11C87.0601 352.014 103.024 352.145 118.908 352.095L152.676 352.025C161.005 352.015 178.006 350.231 183.932 356.956C193.32 367.461 208.019 378.407 215.434 389.788C217.787 393.402 186.269 421.398 182.728 425.23C177.385 431.011 163.868 429.558 156.025 429.538L125.262 429.484L88.6944 429.519C82.2136 429.523 75.4472 429.663 68.9792 429.355C66.4202 429.234 65.2034 428.777 63.1343 427.374C63.0796 434.624 63.0761 441.878 63.1233 449.128L54.5995 449.117C54.3132 429.343 54.5585 408.824 54.5636 388.991L54.5831 275.136L54.5956 211.782C54.5987 200.554 54.4026 189.243 54.8444 178.041C55.0284 173.371 56.0542 169.09 58.8351 165.306C61.0964 162.228 63.6355 159.84 66.9718 157.952C74.8374 153.502 82.9089 149.49 90.8226 145.129L172.807 100.948L291.595 36.8946L329.454 16.5079C336.699 12.6075 346.024 6.53953 353.974 5.12371Z" fill="#04264D"></path><path d="M147.859 371.165C154.417 370.443 161.963 371.716 167.537 375.66C175.253 381.119 176.49 393.652 170.474 400.84C166.237 405.898 160.304 407.441 153.905 407.867C146.629 408.016 140.992 408.164 134.575 403.781C126.513 398.277 125.028 386.422 130.948 378.808C134.897 373.729 141.651 371.909 147.859 371.165Z" fill="white"></path><path d="M148.869 382.159C152.628 381.174 156.539 383.098 158.053 386.676C158.879 388.631 158.876 390.834 158.045 392.788C157.09 395.03 155.144 396.698 152.783 397.299C148.608 398.362 144.36 395.85 143.282 391.678C142.204 387.506 144.702 383.251 148.869 382.159Z" fill="#04264D"></path><path d="M606.287 371.161C613.958 370.656 622.642 372.166 629.369 375.96C627.853 378.478 626.314 380.983 624.751 383.473C619.419 381.064 603.783 376.771 601.244 384.541L601.595 385.001C602.966 384.593 604.341 384.208 605.72 383.845C614.298 381.625 627.435 382.933 629.869 393.249C629.872 395.749 629.884 398.87 628.349 400.968C622.818 408.398 611.845 408.23 603.572 407.874C595.869 407.573 586.997 403.323 586.158 394.714C584.595 378.677 591.693 373.154 606.287 371.161Z" fill="white"></path><path d="M608.403 390.281C616.251 390.867 617.442 398.098 609.173 399.285C599.563 399.258 598.606 391.18 608.403 390.281Z" fill="#04264D"></path><path d="M100.797 371.173C106.727 370.475 120.201 372.104 122.286 377.232C129.798 395.709 109.975 392.388 99.6297 396.103C98.8504 396.381 98.8832 396.998 98.8063 397.455C98.9004 397.56 98.9824 397.678 99.0883 397.771C100.775 399.24 120.502 398.502 124.005 398.51L123.98 407.646L101.899 407.674L82.6332 407.67C82.6332 403.705 82.5489 402.002 83.1258 398.15C85.2254 384.147 102.314 389.107 108.55 384.878C109.143 383.807 109.066 384.364 108.741 383.147C104.254 378.271 92.9285 383.372 87.9871 385.565L83.1938 376.303C88.9907 373.089 94.2532 371.945 100.797 371.173Z" fill="white"></path><path d="M559.786 371.173C568.47 370.291 587.912 373.382 581.591 387.817C578.712 394.391 566.423 393.77 559.677 395.254L559.165 395.367C558.404 396.172 557.423 397.531 556.72 398.449L582.677 398.535L582.697 407.664L561.275 407.668L541.451 407.676C541.337 404.172 541.173 400.434 542.052 397.043C545.419 384.036 559.13 389.617 566.427 385.294C567.255 384.016 567.056 384.705 566.997 383.136C563.943 378.188 551.037 383.597 546.978 385.328C544.923 382.088 543.4 379.778 541.798 376.262C547.634 373.322 553.337 371.905 559.786 371.173Z" fill="white"></path><path d="M54.5859 611.285L62.8438 611.258C62.8543 619.922 64.3367 623.484 72.1223 627.668C89.8504 637.191 107.57 646.727 125.279 656.285L230.004 712.797L308.92 755.289C322.445 762.59 335.996 769.883 349.519 777.145C355.992 780.621 361.82 778.77 367.777 775.629C385.679 766.195 403.464 756.387 421.293 746.832L550.597 677.098L620.269 639.508C626.738 635.992 633.5 632.445 639.968 628.957C649.25 623.953 650.941 621.855 651.379 611.301C654.199 611.281 657.078 611.332 659.906 611.352C659.922 614.434 659.714 616.324 659.351 619.41C655.464 633.492 639.488 638.84 627.437 645.387L591.554 664.73L491.726 718.473L406.746 764.359C394.05 771.203 381.414 778.301 368.617 784.949C365.3 786.676 361.789 787.594 358.062 787.629C355.113 787.66 350.441 787.223 347.832 785.914C343.566 783.773 339.23 781.367 335.003 779.098L309.493 765.348L227.926 721.312L111.183 658.418L86.7801 645.184C80.777 641.977 74.607 638.738 68.6195 635.516C57.5551 629.559 54.8145 623.203 54.5859 611.285Z" fill="#04264D"></path><path d="M357.058 42.707C358.101 43.3547 365.011 58.2855 365.894 60.4824C372.203 61.4734 379.07 62.1078 385.527 63.023C381.261 67.8074 375.898 72.7383 371.351 77.4191C372.367 80.5578 374.179 92.7328 374.804 96.3969C368.617 93.6012 363.339 90.3879 357.324 87.5047C356.097 87.7316 343.386 94.8543 339.941 96.3125C340.81 89.9727 341.711 83.7617 343.201 77.534C339.675 73.3871 333.011 67.0215 329.035 62.9645C335.511 61.8672 341.857 61.7727 348.507 60.402C351.437 55.15 354.496 48.2246 357.058 42.707Z" fill="#04264D"></path><path d="M400.824 645.538C410.707 643.557 420.312 649.995 422.234 659.889C424.156 669.784 417.656 679.35 407.75 681.21C397.933 683.057 388.465 676.628 386.558 666.819C384.656 657.01 391.027 647.503 400.824 645.538Z" fill="#04264D"></path><path d="M402.649 651.155C417.325 650.417 418.329 671.808 405.848 675.663C391.579 676.23 390.579 654.183 402.649 651.155Z" fill="white"></path><path d="M352.066 645.687C363.008 645.605 386.871 642.273 381.18 660.347C380.18 663.527 377.422 664.863 374.637 666.062C377.895 671.187 380.547 675.863 384.035 681.023C381.734 681.109 379.309 681.105 376.996 681.14L375.785 681.019C374.234 679.679 368.988 669.89 367.676 667.527L359.398 667.452L359.391 681.124L351.988 681.128C352.141 669.394 352.043 657.441 352.066 645.687Z" fill="#04264D"></path><path d="M359.473 651.494C366.133 651.412 377.645 649.693 373.586 660.103C369.961 662.607 363.945 661.779 359.371 661.658L359.473 651.494Z" fill="white"></path><path d="M298.718 645.301C305.017 644.848 309.745 647.414 311.648 653.613C314.461 662.781 314.279 677.812 303.432 681.254C297.115 681.551 292.741 680.348 290.26 673.73C287.818 667.211 287.934 658.531 290.647 652.105C292.343 648.082 294.858 646.648 298.718 645.301Z" fill="#04264D"></path><path d="M298.996 649.219C299.571 649.179 301.491 649.055 301.919 649.156C309.231 650.93 308.865 662.789 308.1 668.512C307.553 672.605 305.823 675.73 302.835 677.824C294.417 678.719 293.185 669.66 293.309 663.254C293.414 657.816 293.752 652.195 298.996 649.219Z" fill="white"></path><path d="M318.454 645.652C323.46 645.613 331.686 645.167 336.394 645.808C350.662 647.753 351.018 666.98 335.002 668.66L325.583 668.663L325.553 681.121L318.438 681.117L318.454 645.652Z" fill="#04264D"></path><path d="M325.607 651.491C331.815 651.467 344.177 651.432 337.657 661.428C334.563 663.44 329.35 662.873 325.556 662.811C325.55 659.037 325.567 655.264 325.607 651.491Z" fill="white"></path><path d="M437.027 645.366C442.789 644.776 455.742 645.987 454.484 654.147C453.039 654.686 452.234 654.69 450.77 654.796C448.383 655.05 447.859 654.663 445.953 652.647C442.352 648.839 434.195 649.475 434.543 655.761C434.645 657.593 438.41 658.96 440.262 659.483C445.879 661.116 454.969 661.475 455.582 669.073C456.336 678.421 450.34 680.772 442.441 681.534C433.891 681.686 428.555 680.655 425.379 671.999C432.613 669.765 431.742 669.866 435.547 674.452C437.402 676.686 447.516 676.542 448.457 672.538C448.797 672.026 449 670.753 448.543 670.159C443.945 664.167 429.508 666.675 427.371 657.944C425.52 650.386 430.414 647.132 437.027 645.366Z" fill="#04264D"></path><path d="M417.5 75.1992C418.523 76.2184 420.484 83.907 420.875 85.6598C424.219 86.9156 427.285 88.0953 430.582 89.5035C428.238 91.4922 424.242 93.9387 421.574 95.6832L421.164 106.485C417.879 104.131 415.926 102.461 412.926 99.7891C411.391 99.8844 403.992 101.705 401.918 102.148C403.137 98.7703 404.422 95.4148 405.766 92.0844C404.168 89.2074 401.496 85.5184 399.594 82.7223C402.566 82.7531 407.73 83.0059 410.582 83.4457C412.586 81.5602 415.57 77.541 417.5 75.1992Z" fill="#04264D"></path><path d="M296.915 74.7188C298.718 76.7883 301.783 81.043 303.613 83.3777L314.842 83.4762C312.528 86.4074 310.006 89.3918 308.194 92.6387L311.378 102.968C308.902 102.144 302.882 99.9438 300.724 99.8023C298.05 101.416 294.572 104.18 291.994 106.111L291.955 95.0719C289.368 92.9832 285.74 90.5063 282.996 88.4922C286.621 87.334 289.487 86.7152 293.166 85.2785C294.798 81.4367 295.685 78.6641 296.915 74.7188Z" fill="#04264D"></path><path d="M263.047 645.767C269.299 645.502 276.817 645.681 283.165 645.67L283.091 649.724C277.755 649.631 272.418 649.646 267.083 649.763L266.654 660.232C268.183 659.498 269.457 658.896 271.12 658.494C274.078 657.756 277.207 658.244 279.802 659.842C288.219 665.072 286.621 678.83 275.345 681.299C267.578 681.506 263.365 680.998 260.527 673.056L265.166 672.58C267.305 675.678 270.988 679.638 274.894 677.584C285.581 671.955 278.641 656.713 266.882 663.904C265.3 664.873 264.101 664.842 262.248 664.756L261.626 664.724L263.047 645.767Z" fill="#04264D"></path><path d="M340.252 307.457L341.295 308.003C342.773 311.485 324.945 378.359 322.34 384.906L321.563 384.786C321.505 384.683 321.433 384.587 321.39 384.478C320.016 380.984 337.271 313.171 340.252 307.457Z" fill="#04264D"></path><path d="M386.691 302.988C387.246 303.071 388.152 303.21 388.473 303.634C393.621 310.412 426.598 363.104 427.519 368.811C427.098 368.718 425.406 368.364 425 367.767C411.113 347.371 399.012 325.54 386.688 304.153C386.688 303.765 386.691 303.377 386.691 302.988Z" fill="#04264D"></path><path d="M362.836 307.32C363.899 307.518 363.922 307.449 364.797 308.044C366.043 312.65 367.301 322.697 368.133 327.764C370.266 340.177 372.07 352.643 373.551 365.15C374.129 369.715 375.438 378.005 375.406 382.246C374.871 382.323 374.531 382.281 373.988 382.267C372.047 380.274 362.805 315.298 362.836 307.32Z" fill="#04264D"></path><path d="M319.651 389.555C320.2 389.891 320.56 389.906 320.711 390.578C321.511 394.145 315.34 428.223 313.155 430.941C312.348 431.945 310.602 432.094 309.421 432.191C308.97 431.699 308.201 430.898 308.185 430.27C308.031 424.102 317.487 393.355 319.651 389.555Z" fill="#04264D"></path><path d="M314.951 302.879C315.799 303.346 315.433 303.034 316.037 303.831C313.779 308.949 280.445 353.444 276.244 357.003C275.506 356.82 275.884 356.989 275.164 356.386C276.018 352.046 310.393 306.362 314.951 302.879Z" fill="#04264D"></path><path d="M429.363 373.23C433.735 374.534 448.582 399.684 451.863 405.008C453.055 406.95 453.348 408.047 452.824 410.227C451.262 410.829 450.379 411.266 448.981 410.75C445.684 406.602 429.309 377.867 429.363 373.23Z" fill="#04264D"></path><path d="M253.887 100.957C254.825 101.728 257.985 105.22 258.989 106.283L266.393 105.372C265.283 107.564 264.2 109.809 262.927 111.909C264.147 114.193 265.048 116.465 266.042 118.851C263.375 118.423 261.451 118.073 258.838 117.417C256.753 119.26 255.24 120.828 253.317 122.847L252.537 115.111C249.779 113.986 248.245 113.071 245.867 111.37C248.448 110.313 250.213 109.583 252.652 108.255L253.887 100.957Z" fill="#04264D"></path><path d="M229.663 324.136C230.539 324.017 230.245 324.047 231.155 324.248L231.171 324.875C227.837 328.564 200.639 347.65 196.501 348.11C195.133 346.881 194.033 346.269 194.33 344.36C198.338 339.354 223.276 326.967 229.663 324.136Z" fill="#04264D"></path><path d="M451.898 103.203C453.551 104.479 455.648 106.704 457.188 108.246C459.871 107.894 462.039 107.768 464.742 107.632C463.676 109.961 462.246 112.007 460.844 114.152L464.457 120.516C462.074 120.298 459.453 120.004 457.227 119.155L451.797 124.668C451.637 122.357 451.309 119.929 451.039 117.619C448.859 116.346 446.699 115.039 444.559 113.696C446.582 112.401 449.094 111.284 451.281 110.234L451.898 103.203Z" fill="#04264D"></path><path d="M333.255 303.957C334.159 304.318 333.852 304.008 334.227 304.837C332.916 310.309 313.434 360.728 310.285 364.855C309.164 364.255 309.481 364.707 309.129 363.611C311.099 356.312 317.541 342.004 320.331 334.614C322.22 329.613 330.605 307.456 333.255 303.957Z" fill="#04264D"></path><path d="M377.703 303.176L378.969 303.574C383.469 308.865 400.008 350.573 404.098 359.411C404.57 360.427 404.816 362.129 404.883 363.3L403.672 362.97C402.566 361.907 401.832 360.615 401.219 359.212C394.934 344.818 389.016 330.263 382.664 315.893C380.961 312.041 378.703 307.192 377.703 303.176Z" fill="#04264D"></path><path d="M355.251 309.414C356.274 309.615 356.216 309.585 357.087 310.157C358.481 313.987 358.079 362.111 357.524 368.602C356.301 368.858 356.86 368.942 355.79 368.41C354.696 365.812 355.087 315.461 355.251 309.414Z" fill="#04264D"></path><path d="M258.316 632.736L294.751 632.685C299.507 632.677 309.514 632.404 313.898 632.865C314.473 633.884 314.235 633.865 314.122 635.267C300.635 635.724 286.842 635.037 273.33 635.326C268.716 635.424 263.622 635.506 259.046 635.263C258.155 634.369 258.451 634.396 258.316 632.736Z" fill="#04264D"></path><path d="M425.41 303.247C426.348 303.22 429.043 303.138 429.719 303.48C434.617 305.975 461.293 326.444 462.777 329.21C460.258 329.974 454.203 325.329 452.109 323.804C448.988 321.53 425.75 305.099 425.41 303.247Z" fill="#04264D"></path><path d="M258.282 691.539C261.394 691.363 264.802 691.379 267.919 691.43C283.072 691.688 298.5 690.957 313.613 691.477C314.535 692.16 314.294 692.36 314.637 693.82C299.497 693.606 284.275 693.977 269.129 693.84C265.786 693.809 261.894 694.09 258.616 693.66C257.946 692.664 258.235 693.129 258.282 691.539Z" fill="#04264D"></path><path d="M371.239 306.84C371.368 306.916 371.872 307.196 371.915 307.292C375.024 313.974 386.489 353.389 386.122 358.003C385.614 357.773 384.598 357.372 384.395 356.764C379.254 341.425 375.251 325.031 371.04 309.367C370.782 308.413 370.993 307.623 371.239 306.84Z" fill="#04264D"></path><path d="M375.042 389.156C375.847 389.637 376.245 389.938 376.401 390.941C377.3 396.688 383.737 426.859 382.089 429.891C381.401 430.047 379.741 430.504 379.55 429.547C378.261 423.023 373.671 394.473 375.042 389.156Z" fill="#04264D"></path><path d="M468.664 334.34C473.414 335.963 496.742 353.072 500.621 357.015C501.012 358.342 500.863 357.97 500.301 359.563C497.707 360.292 469.156 337.24 468.664 334.34Z" fill="#04264D"></path><path d="M324.512 303.258C325.2 303.576 324.874 303.345 325.445 304.011C324.997 307.249 303.704 345.438 300.849 348.32C300.274 348.251 300.571 348.366 300.051 347.793C299.964 343.578 316.69 317.62 318.937 312.371C319.514 311.025 323.443 304.646 324.512 303.258Z" fill="#04264D"></path><path d="M270.035 362.691L270.652 363.283C270.294 366.191 252.311 389.733 249.221 393.92C248.638 394.713 247.493 395.487 246.613 395.967C246.034 395.245 246.152 395.373 245.746 394.522C246.344 389.963 266.528 365.671 270.035 362.691Z" fill="#04264D"></path><path d="M355.805 372.27L356.973 372.768C358.43 375.33 359.169 410.068 358.204 413.861C357.165 413.67 357.141 413.654 356.176 413.221C354.778 410.654 355.208 376.772 355.805 372.27Z" fill="#04264D"></path><path d="M262.709 303.495C264.939 303.313 267.142 303.386 269.381 303.409C260.869 308.709 248.889 315.949 239.888 320.26C238.607 320.911 237.599 321.708 236.369 321.577L236.133 320.835C237.561 318.035 258.883 305.305 262.709 303.495Z" fill="#04264D"></path><path d="M269.443 336.945C269.99 337.192 269.687 337.012 270.288 337.58C266.174 343.098 247.008 363.597 241.373 367.518L240.634 366.761C240.481 363.776 265.636 339.563 269.443 336.945Z" fill="#04264D"></path><path d="M406.577 368.465C406.831 368.511 407.971 368.696 408.159 369.034C412.526 376.832 416.667 386.373 419.92 394.724C420.061 395.087 418.928 396.212 418.592 396.611L417.913 396.661C415.194 394.993 408.377 376.379 406.534 372.492C405.702 370.738 405.862 370.111 406.577 368.465Z" fill="#04264D"></path><path d="M306.277 369.91C307.937 370.314 307.356 369.887 308.365 370.889C308.683 374.011 299.429 395.298 297.497 398.826C291.755 399.045 304.922 372.672 306.277 369.91Z" fill="#04264D"></path><path d="M442.039 334.625C442.801 334.798 443.996 335.369 444.531 335.9C448.945 340.296 471.82 359.485 472.516 364.271C471.953 364.248 471.172 364.161 470.715 363.87C466.453 361.179 443.188 337.771 442.039 334.625Z" fill="#04264D"></path><path d="M303.074 302.977L303.45 303.483C302.914 305.553 275.661 333.489 272.29 335.639C272.081 335.236 271.561 334.371 271.978 333.948C278.088 327.751 296.299 306.154 303.074 302.977Z" fill="#04264D"></path><path d="M409.34 303.078C410.637 303.073 411.953 303.621 412.816 304.534C416.527 308.45 440.465 329.654 440.801 332.817C438.406 332.766 436.211 330.836 434.727 329.166C431.672 325.731 409.695 305.501 409.34 303.078Z" fill="#04264D"></path><path d="M231.878 303.235C233.126 303.254 234.13 303.029 234.97 303.604C231.932 305.88 214.41 312.889 210.531 313.962C208.857 313.73 209.486 314.1 208.426 313.125L208.668 312.176C212.228 308.686 226.458 303.599 231.878 303.235Z" fill="#04264D"></path><path d="M389.075 369.586C391.583 370.849 396.196 388.508 396.337 391.809C395.181 391.832 395.177 391.898 394.118 391.504C392.341 388.445 388.868 373.153 389.075 369.586Z" fill="#04264D"></path><path d="M463.238 309.785C467.621 310.256 478.773 316.957 482.953 319.459C484.16 320.179 484.008 320.861 484.105 321.976C483.727 322.084 482.953 322.322 482.594 322.121C478.836 320.028 464.828 313.023 463.238 309.785Z" fill="#04264D"></path><path d="M294.488 358.02L295.013 358.903C294.82 361.812 286.104 376.566 283.891 379.299C283.266 378.369 283.322 378.383 283.066 377.274C283.792 373.056 291.589 361.791 294.488 358.02Z" fill="#04264D"></path><path d="M509.961 310.038C513.18 309.951 519.789 312.13 522.43 313.97C522.836 315.216 522.508 315.578 522.215 317.068C519.219 316.464 514.277 314.455 511.703 312.792C510.211 311.826 510.305 311.603 509.961 310.038Z" fill="#04264D"></path><path d="M487.688 303.223C492.602 303.273 499.062 303.302 502.906 306.674C503.527 308.153 503.355 307.638 503.02 309.466C501.297 309.533 489.219 304.594 487.688 303.223Z" fill="#04264D"></path><path d="M421.027 402.797C422.168 403.051 422.391 402.867 422.984 403.57C425.383 406.426 427.937 411.695 427.855 415.359C426.547 415.262 425.726 415.473 424.926 414.426C423.035 411.945 420.723 405.75 421.027 402.797Z" fill="#04264D"></path><path d="M292.669 405.102C293.773 405.488 293.377 405.293 294.288 406.102C294.716 408.613 291.976 415.609 290.624 417.75C289.011 417.477 288.915 417.734 288.163 416.488C287.918 412.98 290.917 408.281 292.669 405.102Z" fill="#04264D"></path><path d="M200.609 315.582L201.956 316.002L202.132 316.583C200.635 318.727 194.081 321.416 191.417 322.666C190.364 322.518 189.955 322.276 189.465 321.415L189.776 320.29C191.966 318.034 197.576 316.452 200.609 315.582Z" fill="#04264D"></path><path d="M355.914 420.059C360.66 420.305 359.359 425.129 358.917 428.719C356.949 428.68 357.343 428.988 356.054 428.012C354.968 425.531 355.617 422.832 355.914 420.059Z" fill="#04264D"></path><path d="M477.236 368.25C480.342 368.995 484.264 371.295 483.017 374.952C480.088 374.816 475.994 371.234 477.236 368.25Z" fill="#04264D"></path><path d="M235.051 371.301C236.173 371.702 236.295 372.16 236.403 373.161C235.57 375.321 233.63 376.737 231.835 378.122C230.492 377.299 230.568 377.631 230.023 376.441C230.646 374.048 232.989 372.818 235.051 371.301Z" fill="#04264D"></path><path d="M303.099 159V137.909H311.543C313.095 137.909 314.389 138.139 315.426 138.599C316.462 139.059 317.242 139.698 317.763 140.515C318.285 141.325 318.546 142.258 318.546 143.316C318.546 144.14 318.381 144.864 318.052 145.489C317.722 146.107 317.269 146.615 316.692 147.013C316.123 147.404 315.47 147.682 314.736 147.847V148.053C315.539 148.087 316.291 148.314 316.991 148.733C317.698 149.151 318.272 149.738 318.711 150.494C319.15 151.242 319.37 152.134 319.37 153.171C319.37 154.29 319.092 155.289 318.536 156.168C317.987 157.04 317.173 157.73 316.095 158.238C315.017 158.746 313.689 159 312.11 159H303.099ZM307.558 155.354H311.193C312.436 155.354 313.342 155.118 313.912 154.644C314.482 154.163 314.767 153.525 314.767 152.728C314.767 152.145 314.626 151.63 314.344 151.184C314.063 150.737 313.661 150.387 313.14 150.133C312.625 149.879 312.01 149.752 311.296 149.752H307.558V155.354ZM307.558 146.735H310.864C311.475 146.735 312.017 146.628 312.491 146.415C312.971 146.196 313.349 145.887 313.624 145.489C313.905 145.09 314.046 144.613 314.046 144.057C314.046 143.295 313.775 142.681 313.232 142.214C312.697 141.747 311.935 141.513 310.946 141.513H307.558V146.735ZM322.272 159V137.909H336.483V141.586H326.731V146.611H335.752V150.288H326.731V155.324H336.524V159H322.272ZM351.47 143.975C351.387 143.144 351.034 142.499 350.409 142.039C349.784 141.579 348.936 141.349 347.865 141.349C347.138 141.349 346.523 141.452 346.022 141.658C345.521 141.857 345.136 142.135 344.869 142.492C344.608 142.849 344.477 143.254 344.477 143.707C344.464 144.085 344.542 144.414 344.714 144.696C344.893 144.977 345.136 145.221 345.445 145.427C345.754 145.626 346.111 145.801 346.516 145.952C346.921 146.096 347.354 146.22 347.814 146.323L349.709 146.776C350.629 146.982 351.473 147.257 352.242 147.6C353.011 147.943 353.677 148.365 354.24 148.866C354.803 149.368 355.239 149.958 355.548 150.638C355.864 151.317 356.025 152.097 356.032 152.975C356.025 154.266 355.696 155.385 355.043 156.333C354.398 157.273 353.464 158.004 352.242 158.526C351.027 159.041 349.561 159.299 347.845 159.299C346.142 159.299 344.659 159.038 343.396 158.516C342.14 157.994 341.158 157.222 340.451 156.199C339.75 155.169 339.383 153.895 339.349 152.378H343.664C343.712 153.085 343.914 153.676 344.271 154.15C344.635 154.616 345.119 154.97 345.723 155.21C346.334 155.444 347.024 155.56 347.793 155.56C348.549 155.56 349.204 155.451 349.76 155.231C350.323 155.011 350.759 154.706 351.068 154.314C351.377 153.923 351.532 153.473 351.532 152.965C351.532 152.491 351.391 152.093 351.109 151.771C350.835 151.448 350.43 151.173 349.894 150.947C349.366 150.72 348.717 150.514 347.948 150.329L345.651 149.752C343.873 149.32 342.469 148.643 341.439 147.723C340.409 146.803 339.898 145.564 339.905 144.006C339.898 142.729 340.238 141.613 340.924 140.659C341.618 139.704 342.569 138.96 343.777 138.424C344.985 137.888 346.358 137.621 347.896 137.621C349.462 137.621 350.828 137.888 351.995 138.424C353.169 138.96 354.082 139.704 354.734 140.659C355.387 141.613 355.723 142.718 355.744 143.975H351.47ZM358.228 141.586V137.909H375.55V141.586H369.093V159H364.685V141.586H358.228ZM389.574 137.909V159H385.114V137.909H389.574ZM410.883 137.909V159H407.032L397.856 145.725H397.701V159H393.242V137.909H397.156L406.259 151.173H406.445V137.909H410.883Z" fill="#04264D"></path><path d="M180.853 234V183.091H191.617V205.538H192.288L210.608 183.091H223.51L204.618 205.886L223.733 234H210.857L196.912 213.07L191.617 219.533V234H180.853ZM237.89 234H226.356L243.93 183.091H257.801L275.351 234H263.817L251.065 194.724H250.667L237.89 234ZM237.169 213.989H264.413V222.391H237.169V213.989ZM324.06 183.091V234H314.763L292.615 201.958H292.242V234H281.478V183.091H290.924L312.899 215.108H313.346V183.091H324.06ZM332.953 234V183.091H367.257V191.965H343.717V204.096H365.492V212.97H343.717V225.126H367.356V234H332.953ZM375.814 234V183.091H395.9C399.744 183.091 403.026 183.779 405.743 185.154C408.478 186.513 410.557 188.444 411.983 190.946C413.424 193.432 414.145 196.357 414.145 199.721C414.145 203.102 413.416 206.01 411.958 208.446C410.499 210.866 408.387 212.722 405.619 214.014C402.868 215.307 399.537 215.953 395.626 215.953H382.178V207.303H393.886C395.941 207.303 397.648 207.021 399.007 206.457C400.366 205.894 401.377 205.049 402.04 203.922C402.719 202.795 403.059 201.395 403.059 199.721C403.059 198.031 402.719 196.605 402.04 195.445C401.377 194.285 400.357 193.407 398.982 192.81C397.623 192.197 395.908 191.891 393.836 191.891H386.578V234H375.814ZM403.307 210.832L415.96 234H404.078L391.699 210.832H403.307ZM432.515 183.091V234H421.752V183.091H432.515ZM441.371 234V183.091H452.134V205.538H452.806L471.126 183.091H484.027L465.135 205.886L484.251 234H471.375L457.429 213.07L452.134 219.533V234H441.371ZM498.408 234H486.873L504.448 183.091H518.319L535.869 234H524.334L511.582 194.724H511.185L498.408 234ZM497.687 213.989H524.931V222.391H497.687V213.989Z" fill="#04264D"></path><path d="M274.934 263.975C274.852 263.144 274.498 262.499 273.873 262.039C273.249 261.579 272.401 261.349 271.33 261.349C270.602 261.349 269.988 261.452 269.486 261.658C268.985 261.857 268.601 262.135 268.333 262.492C268.072 262.849 267.942 263.254 267.942 263.707C267.928 264.085 268.007 264.414 268.178 264.696C268.357 264.977 268.601 265.221 268.91 265.427C269.219 265.626 269.576 265.801 269.981 265.952C270.386 266.096 270.818 266.22 271.278 266.323L273.173 266.776C274.093 266.982 274.938 267.257 275.707 267.6C276.475 267.943 277.141 268.365 277.704 268.866C278.267 269.368 278.703 269.958 279.012 270.638C279.328 271.317 279.489 272.097 279.496 272.975C279.489 274.266 279.16 275.385 278.508 276.333C277.862 277.273 276.929 278.004 275.707 278.526C274.491 279.041 273.026 279.299 271.309 279.299C269.607 279.299 268.124 279.038 266.86 278.516C265.604 277.994 264.622 277.222 263.915 276.199C263.215 275.169 262.847 273.895 262.813 272.378H267.128C267.176 273.085 267.379 273.676 267.736 274.15C268.1 274.616 268.584 274.97 269.188 275.21C269.799 275.444 270.489 275.56 271.258 275.56C272.013 275.56 272.669 275.451 273.225 275.231C273.788 275.011 274.224 274.706 274.533 274.314C274.841 273.923 274.996 273.473 274.996 272.965C274.996 272.491 274.855 272.093 274.574 271.771C274.299 271.448 273.894 271.173 273.359 270.947C272.83 270.72 272.181 270.514 271.412 270.329L269.116 269.752C267.337 269.32 265.933 268.643 264.904 267.723C263.874 266.803 263.362 265.564 263.369 264.006C263.362 262.729 263.702 261.613 264.389 260.659C265.082 259.704 266.033 258.96 267.241 258.424C268.45 257.888 269.823 257.621 271.361 257.621C272.926 257.621 274.292 257.888 275.459 258.424C276.633 258.96 277.547 259.704 278.199 260.659C278.851 261.613 279.187 262.718 279.208 263.975H274.934ZM282.496 279V257.909H290.817C292.416 257.909 293.779 258.215 294.905 258.826C296.031 259.43 296.889 260.271 297.48 261.349C298.077 262.42 298.376 263.656 298.376 265.056C298.376 266.457 298.074 267.692 297.469 268.763C296.865 269.835 295.99 270.669 294.843 271.266C293.704 271.863 292.324 272.162 290.703 272.162H285.4V268.588H289.983C290.841 268.588 291.548 268.441 292.104 268.146C292.667 267.844 293.086 267.428 293.36 266.9C293.642 266.364 293.783 265.75 293.783 265.056C293.783 264.356 293.642 263.745 293.36 263.223C293.086 262.694 292.667 262.286 292.104 261.998C291.541 261.702 290.827 261.555 289.962 261.555H286.955V279H282.496ZM301.272 279V257.909H309.593C311.186 257.909 312.545 258.194 313.671 258.764C314.804 259.327 315.666 260.127 316.256 261.163C316.853 262.193 317.152 263.405 317.152 264.799C317.152 266.199 316.85 267.404 316.246 268.413C315.642 269.416 314.766 270.185 313.62 270.72C312.48 271.256 311.1 271.523 309.48 271.523H303.908V267.94H308.759C309.61 267.94 310.317 267.823 310.88 267.589C311.443 267.356 311.862 267.006 312.137 266.539C312.418 266.072 312.559 265.492 312.559 264.799C312.559 264.098 312.418 263.508 312.137 263.027C311.862 262.547 311.44 262.183 310.87 261.936C310.307 261.682 309.597 261.555 308.738 261.555H305.731V279H301.272ZM312.662 269.402L317.904 279H312.981L307.853 269.402H312.662ZM324.762 257.909V279H320.303V257.909H324.762ZM346.072 257.909V279H342.221L333.045 265.725H332.89V279H328.431V257.909H332.345L341.448 271.173H341.634V257.909H346.072ZM363.742 264.727C363.597 264.225 363.395 263.783 363.134 263.398C362.873 263.007 362.554 262.677 362.176 262.409C361.805 262.135 361.38 261.925 360.899 261.781C360.425 261.637 359.9 261.565 359.324 261.565C358.246 261.565 357.298 261.833 356.481 262.368C355.671 262.904 355.039 263.683 354.586 264.706C354.133 265.722 353.907 266.965 353.907 268.434C353.907 269.903 354.13 271.153 354.576 272.183C355.022 273.212 355.654 273.998 356.471 274.541C357.288 275.076 358.253 275.344 359.365 275.344C360.374 275.344 361.236 275.166 361.95 274.809C362.67 274.445 363.22 273.933 363.597 273.274C363.982 272.615 364.174 271.836 364.174 270.936L365.08 271.07H359.643V267.713H368.468V270.37C368.468 272.224 368.077 273.817 367.294 275.148C366.512 276.473 365.434 277.496 364.061 278.217C362.688 278.931 361.115 279.288 359.344 279.288C357.367 279.288 355.63 278.852 354.133 277.98C352.637 277.102 351.469 275.856 350.632 274.242C349.801 272.622 349.386 270.7 349.386 268.475C349.386 266.766 349.633 265.241 350.127 263.903C350.628 262.557 351.329 261.417 352.228 260.484C353.127 259.55 354.174 258.839 355.369 258.352C356.564 257.864 357.858 257.621 359.251 257.621C360.446 257.621 361.558 257.796 362.588 258.146C363.618 258.489 364.531 258.977 365.327 259.608C366.131 260.24 366.786 260.992 367.294 261.864C367.802 262.729 368.129 263.683 368.273 264.727H363.742ZM378.406 279V275.787L385.914 268.836C386.552 268.218 387.088 267.662 387.52 267.167C387.96 266.673 388.293 266.189 388.519 265.715C388.746 265.235 388.859 264.716 388.859 264.16C388.859 263.542 388.718 263.01 388.437 262.564C388.155 262.111 387.771 261.764 387.283 261.524C386.796 261.277 386.243 261.153 385.625 261.153C384.98 261.153 384.417 261.283 383.936 261.544C383.456 261.805 383.085 262.179 382.824 262.667C382.563 263.154 382.433 263.734 382.433 264.407H378.2C378.2 263.027 378.513 261.829 379.137 260.813C379.762 259.797 380.638 259.011 381.764 258.455C382.889 257.899 384.187 257.621 385.656 257.621C387.167 257.621 388.481 257.888 389.601 258.424C390.726 258.953 391.602 259.687 392.227 260.628C392.851 261.568 393.164 262.646 393.164 263.862C393.164 264.658 393.006 265.444 392.69 266.22C392.381 266.996 391.828 267.857 391.032 268.805C390.236 269.745 389.113 270.875 387.664 272.193L384.585 275.21V275.354H393.442V279H378.406ZM404.942 279.463C403.171 279.457 401.647 279.021 400.37 278.156C399.1 277.29 398.122 276.038 397.435 274.397C396.755 272.756 396.419 270.782 396.426 268.475C396.426 266.175 396.766 264.215 397.445 262.595C398.132 260.975 399.11 259.742 400.38 258.898C401.657 258.046 403.178 257.621 404.942 257.621C406.707 257.621 408.224 258.046 409.494 258.898C410.771 259.749 411.753 260.985 412.44 262.605C413.126 264.219 413.466 266.175 413.459 268.475C413.459 270.789 413.116 272.766 412.429 274.407C411.75 276.048 410.775 277.301 409.505 278.166C408.234 279.031 406.714 279.463 404.942 279.463ZM404.942 275.766C406.151 275.766 407.115 275.159 407.836 273.944C408.557 272.728 408.914 270.906 408.907 268.475C408.907 266.875 408.742 265.544 408.413 264.479C408.09 263.415 407.63 262.615 407.033 262.08C406.443 261.544 405.746 261.277 404.942 261.277C403.741 261.277 402.78 261.877 402.059 263.079C401.338 264.28 400.974 266.079 400.967 268.475C400.967 270.095 401.129 271.448 401.451 272.533C401.781 273.611 402.244 274.421 402.842 274.963C403.439 275.499 404.139 275.766 404.942 275.766ZM416.639 279V275.787L424.146 268.836C424.785 268.218 425.32 267.662 425.753 267.167C426.192 266.673 426.525 266.189 426.752 265.715C426.978 265.235 427.091 264.716 427.091 264.16C427.091 263.542 426.951 263.01 426.669 262.564C426.388 262.111 426.003 261.764 425.516 261.524C425.028 261.277 424.476 261.153 423.858 261.153C423.212 261.153 422.649 261.283 422.169 261.544C421.688 261.805 421.318 262.179 421.057 262.667C420.796 263.154 420.665 263.734 420.665 264.407H416.433C416.433 263.027 416.745 261.829 417.37 260.813C417.995 259.797 418.87 259.011 419.996 258.455C421.122 257.899 422.419 257.621 423.889 257.621C425.399 257.621 426.714 257.888 427.833 258.424C428.959 258.953 429.834 259.687 430.459 260.628C431.084 261.568 431.396 262.646 431.396 263.862C431.396 264.658 431.238 265.444 430.922 266.22C430.614 266.996 430.061 267.857 429.264 268.805C428.468 269.745 427.346 270.875 425.897 272.193L422.818 275.21V275.354H431.674V279H416.639ZM443 279.288C441.915 279.281 440.868 279.1 439.859 278.743C438.856 278.386 437.957 277.805 437.161 277.002C436.364 276.199 435.733 275.135 435.266 273.81C434.806 272.485 434.576 270.857 434.576 268.928C434.583 267.157 434.785 265.574 435.183 264.181C435.588 262.78 436.165 261.592 436.913 260.618C437.669 259.643 438.572 258.901 439.622 258.393C440.672 257.878 441.85 257.621 443.154 257.621C444.562 257.621 445.804 257.895 446.882 258.445C447.96 258.987 448.825 259.725 449.477 260.659C450.136 261.592 450.535 262.639 450.672 263.8H446.275C446.103 263.065 445.743 262.488 445.193 262.07C444.644 261.651 443.964 261.441 443.154 261.441C441.781 261.441 440.738 262.039 440.024 263.233C439.316 264.428 438.956 266.052 438.942 268.104H439.086C439.402 267.48 439.828 266.948 440.363 266.508C440.906 266.062 441.52 265.722 442.207 265.489C442.9 265.248 443.631 265.128 444.4 265.128C445.65 265.128 446.762 265.423 447.737 266.014C448.712 266.597 449.481 267.401 450.044 268.424C450.607 269.447 450.888 270.617 450.888 271.935C450.888 273.363 450.555 274.634 449.889 275.746C449.23 276.858 448.307 277.73 447.119 278.362C445.938 278.986 444.565 279.295 443 279.288ZM442.979 275.787C443.666 275.787 444.28 275.622 444.823 275.293C445.365 274.963 445.791 274.517 446.1 273.954C446.409 273.391 446.563 272.759 446.563 272.059C446.563 271.359 446.409 270.73 446.1 270.174C445.797 269.618 445.379 269.175 444.843 268.846C444.308 268.516 443.697 268.352 443.01 268.352C442.495 268.352 442.018 268.448 441.579 268.64C441.146 268.832 440.765 269.1 440.436 269.443C440.113 269.786 439.859 270.185 439.673 270.638C439.488 271.084 439.395 271.561 439.395 272.069C439.395 272.749 439.55 273.37 439.859 273.933C440.175 274.496 440.6 274.946 441.136 275.282C441.678 275.619 442.293 275.787 442.979 275.787Z" fill="#04264D"></path></svg>