<svg xmlns="http://www.w3.org/2000/svg" id="Layer_2" data-name="Layer 2" viewBox="0 0 92 106"><defs><style>      .cls-1 {        fill-rule: evenodd;      }      .cls-1, .cls-2 {        fill: #04264d;      }      .cls-3 {        fill: none;      }      .cls-3, .cls-4 {        stroke: #04264d;      }      .cls-5, .cls-4 {        fill: #fff;      }    </style></defs><g id="Layer_1-2" data-name="Layer 1"><g><path class="cls-5" d="M5,83.33l41,22.67,41-22.67V0H5v83.33Z"></path><path class="cls-3" d="M86.5,83.04l-40.5,22.39L5.5,83.04V.5h81v82.54h0Z"></path><path class="cls-5" d="M9,80.47l37,20.53,37-20.53V5H9v75.47Z"></path><path class="cls-2" d="M40.23,74l1.31,2.65,2.92.42-2.12,2.06.5,2.91-2.62-1.38-2.62,1.38.5-2.91-2.12-2.06,2.92-.43,1.31-2.65h0ZM52.59,74l1.31,2.65,2.92.42-2.12,2.06.5,2.91-2.62-1.38-2.62,1.38.5-2.91-2.12-2.06,2.92-.43s1.31-2.65,1.31-2.65ZM46.23,84.05l1.31,2.65,2.92.43-2.12,2.06.5,2.91-2.62-1.38-2.62,1.38.5-2.91-2.12-2.06,2.92-.43,1.31-2.65h0Z"></path><path class="cls-2" d="M23.34,50.17c-1.25,0-2.35-.28-3.31-.83-.94-.56-1.72-1.35-2.25-2.3-.54-.98-.81-2.11-.81-3.38s.27-2.39.81-3.37c.53-.96,1.3-1.75,2.25-2.3.96-.56,2.06-.85,3.31-.85.91,0,1.75.16,2.5.49.75.3,1.42.75,1.98,1.33.56.57,1,1.25,1.3,2l-2.72.92c-.17-.41-.42-.78-.74-1.1-.61-.63-1.45-.98-2.32-.97-.66,0-1.25.16-1.76.49s-.92.78-1.21,1.37c-.29.58-.43,1.24-.43,2s.14,1.43.43,2.02c.3.58.71,1.03,1.22,1.37.53.32,1.13.49,1.8.49.49,0,.93-.09,1.31-.27.38-.18.71-.43.99-.76.29-.32.53-.7.74-1.12l2.72.92c-.28.76-.72,1.45-1.28,2.03-.57.58-1.25,1.04-2,1.35-.77.32-1.61.49-2.54.49ZM30.42,49.96v-12.6h2.81v12.6h-2.81ZM35.22,49.96v-9h2.81v9h-2.81ZM36.63,39.8c-.42,0-.79-.16-1.12-.47-.31-.32-.47-.7-.47-1.12,0-.44.16-.82.47-1.12.32-.31.7-.47,1.12-.47s.8.16,1.12.47c.31.3.47.67.47,1.12,0,.42-.16.79-.47,1.12-.29.3-.7.47-1.12.47ZM44.35,50.17c-.94,0-1.76-.2-2.48-.59-.71-.38-1.29-.96-1.69-1.66-.41-.71-.61-1.53-.61-2.47s.2-1.76.61-2.47c.4-.7.98-1.27,1.69-1.66.73-.4,1.57-.59,2.52-.59.85,0,1.62.2,2.3.61.68.41,1.22,1.02,1.62,1.84.41.8.61,1.8.61,2.99h-6.77l.31-.34c0,.41.08.77.25,1.08s.4.55.7.72c.3.16.64.23,1.01.23.44,0,.82-.1,1.12-.29.3-.2.51-.46.63-.76l2.5.85c-.22.55-.57,1.04-1.03,1.42-.43.37-.93.65-1.49.83-.58.17-1.19.26-1.8.25h0ZM42.54,44.68l-.29-.38h4.03l-.27.38c0-.46-.09-.81-.27-1.06-.16-.25-.39-.45-.67-.58-.25-.12-.51-.18-.77-.18s-.53.06-.81.18c-.27.13-.51.33-.68.58-.18.25-.27.61-.27,1.06ZM50.11,49.96v-9h2.65l.16,1.66v7.34h-2.81ZM55.9,49.96v-4.61h2.81v4.61h-2.81ZM55.9,45.35c0-.48-.05-.86-.16-1.13-.11-.29-.26-.5-.47-.63-.21-.14-.46-.21-.72-.22-.54-.01-.95.14-1.22.45-.28.3-.41.76-.41,1.39h-.85c0-.95.14-1.75.43-2.41.29-.67.68-1.18,1.17-1.53.5-.35,1.09-.52,1.75-.52.72,0,1.33.15,1.82.45.49.29.86.73,1.1,1.33.25.6.38,1.37.38,2.3v.52s-2.81,0-2.81,0ZM64.3,50.17c-1.07,0-1.87-.25-2.39-.76-.52-.52-.77-1.25-.77-2.2v-9.07h2.81v8.37c0,.36.07.62.2.79.13.17.34.25.61.25.11,0,.23-.02.38-.07.14-.06.28-.13.4-.22l.97,2.05c-.29.24-.64.44-1.04.61-.4.16-.78.23-1.15.23ZM59.73,43.32v-2.36h6.26v2.36h-6.26ZM71.26,50.17c-.59,0-1.14-.08-1.66-.25-.48-.16-.94-.4-1.33-.72-.37-.32-.65-.72-.83-1.17l2.32-.97c.16.3.37.53.65.68.28.14.56.22.85.22s.52-.05.68-.14c.17-.11.25-.25.25-.43,0-.18-.09-.36-.25-.45-.17-.11-.41-.2-.74-.29l-.79-.18c-.83-.22-1.47-.58-1.93-1.08-.44-.47-.69-1.1-.68-1.75,0-.92.32-1.64.95-2.14.64-.5,1.52-.76,2.65-.76.65,0,1.21.09,1.69.27.49.17.9.41,1.22.72.34.3.58.65.72,1.04l-2.23.94c-.08-.24-.26-.43-.52-.56-.26-.13-.55-.2-.85-.2-.26,0-.47.06-.61.18-.14.11-.22.27-.22.45,0,.14.08.27.25.38.18.1.44.19.77.27l.95.23c.56.14,1.04.37,1.42.67.38.29.67.63.86,1.03.19.38.29.8.29,1.24,0,.58-.17,1.07-.5,1.49-.32.41-.78.73-1.37.95-.59.22-1.27.32-2.03.32ZM14.54,65.96v-12.6h2.9v9.94h5.36v2.66h-8.26ZM28.4,66.17c-.95,0-1.78-.2-2.5-.59-.71-.4-1.3-.97-1.71-1.67-.41-.71-.61-1.52-.61-2.45s.2-1.74.59-2.45c.4-.7.98-1.27,1.69-1.66.73-.41,1.56-.61,2.48-.61s1.78.2,2.5.61c.71.38,1.3.95,1.69,1.66.41.71.61,1.52.61,2.45s-.2,1.74-.61,2.45c-.39.7-.97,1.28-1.67,1.67-.72.4-1.54.59-2.47.59ZM28.4,63.58c.36,0,.68-.09.95-.27.29-.18.51-.43.67-.74.17-.35.26-.73.25-1.12,0-.42-.08-.79-.25-1.1-.14-.31-.38-.57-.67-.76-.3-.18-.64-.28-.99-.27-.37,0-.7.09-.99.27-.29.18-.53.45-.68.76-.16.31-.23.68-.23,1.1s.08.79.23,1.12c.17.31.4.56.68.74.3.18.64.27,1.03.27ZM37.16,65.96l3.29-9h2.9l-3.65,9h-2.54ZM36.9,65.96l-3.65-9h2.9l3.29,9h-2.54ZM48.38,66.17c-.94,0-1.76-.2-2.48-.59-.71-.38-1.29-.96-1.69-1.66-.41-.71-.61-1.53-.61-2.47s.2-1.76.61-2.47c.4-.7.98-1.27,1.69-1.66.73-.4,1.57-.59,2.52-.59.85,0,1.62.2,2.3.61.68.41,1.22,1.02,1.62,1.84.41.8.61,1.8.61,2.99h-6.77l.31-.34c0,.41.08.77.25,1.08s.4.55.7.72c.3.16.64.23,1.01.23.44,0,.82-.1,1.12-.29.3-.2.51-.46.63-.76l2.5.85c-.22.55-.57,1.04-1.03,1.42-.43.37-.93.65-1.49.83-.58.17-1.19.26-1.8.25ZM46.56,60.68l-.29-.38h4.03l-.27.38c0-.46-.09-.81-.27-1.06-.16-.25-.39-.45-.67-.58-.25-.12-.51-.18-.77-.18s-.53.06-.81.18c-.27.13-.51.33-.68.58-.18.25-.27.61-.27,1.06ZM63.72,66.19c-1.08,0-2.02-.2-2.81-.61-.76-.39-1.38-.99-1.8-1.73-.42-.76-.63-1.65-.63-2.68v-7.81h2.9v7.81c0,.48.1.89.29,1.24.19.35.46.62.81.81.36.19.79.29,1.28.29s.9-.1,1.26-.29c.36-.19.64-.46.83-.81s.29-.76.29-1.24v-7.81h2.9v7.81c0,1.03-.22,1.93-.65,2.68-.42.74-1.03,1.32-1.84,1.73-.79.41-1.73.61-2.83.61ZM74.38,66.17c-.59,0-1.14-.08-1.66-.25-.48-.16-.94-.4-1.33-.72-.37-.32-.65-.72-.83-1.17l2.32-.97c.16.3.37.53.65.68.28.14.56.22.85.22s.52-.05.68-.14c.17-.11.25-.25.25-.43,0-.18-.09-.36-.25-.45-.17-.11-.41-.2-.74-.29l-.79-.18c-.83-.22-1.47-.58-1.93-1.08-.44-.47-.69-1.1-.68-1.75,0-.92.32-1.64.95-2.14.64-.5,1.52-.76,2.65-.76.65,0,1.21.09,1.69.27.49.17.9.41,1.22.72.34.3.58.65.72,1.04l-2.23.94c-.08-.24-.26-.43-.52-.56-.26-.13-.55-.2-.85-.2-.26,0-.47.06-.61.18-.14.11-.22.27-.22.45,0,.14.08.27.25.38.18.1.44.19.77.27l.95.23c.56.14,1.04.37,1.42.67.38.29.67.63.86,1.03.19.38.29.8.29,1.24,0,.58-.17,1.07-.5,1.49-.32.41-.78.73-1.37.95-.59.22-1.27.32-2.03.32Z"></path><path class="cls-5" d="M.5,4.5h71v20H.5V4.5Z"></path><path class="cls-3" d="M.5,4.5h71v20H.5V4.5Z"></path><path class="cls-2" d="M14.14,16.5v-4.9h1.04l1.43,2.11,1.43-2.11h1.04v4.9h-.95v-3.4l-1.51,2.23-1.51-2.22v3.4h-.96ZM20.84,16.5v-4.9h.96v4.9h-.96ZM23.56,16.5v-4.9h.96v4.02h2.16v.88h-3.11ZM28.02,16.5v-4.9h3.1v.88h-2.14v1.11h1.85v.85h-1.85v1.18h2.17v.88h-3.13ZM34.49,16.58c-.23,0-.47-.03-.69-.09-.2-.06-.4-.14-.57-.25-.16-.1-.3-.23-.42-.37-.1-.12-.17-.27-.21-.43l.94-.28c.06.16.17.3.32.41.15.11.35.17.58.18.25,0,.45-.05.6-.16.15-.09.24-.26.24-.43,0-.15-.07-.29-.19-.39-.15-.12-.32-.2-.5-.24l-.64-.17c-.22-.05-.44-.15-.63-.27-.18-.12-.32-.28-.43-.46-.11-.2-.16-.41-.15-.64,0-.46.15-.82.46-1.08.31-.26.74-.39,1.3-.39.31,0,.59.05.82.14.24.09.44.22.59.39.16.17.28.37.36.6l-.93.29c-.06-.16-.17-.3-.31-.41-.17-.12-.36-.18-.57-.17-.23,0-.42.05-.55.16-.13.11-.21.28-.2.45,0,.15.05.27.15.36.11.09.25.16.43.2l.64.16c.42.1.75.29.98.55.23.27.35.56.35.89,0,.29-.07.54-.21.76-.14.22-.34.38-.61.5-.27.12-.59.18-.97.18ZM38.83,16.5v-4.02h-1.47v-.88h3.89v.88h-1.46v4.02s-.96,0-.96,0ZM44.83,16.58c-.49,0-.93-.11-1.32-.32-.37-.21-.68-.52-.89-.9-.22-.4-.33-.85-.32-1.31,0-.5.11-.94.32-1.32.22-.38.51-.68.88-.9.4-.22.85-.33,1.3-.32.49,0,.93.11,1.3.33.38.22.67.51.89.9.21.38.32.81.32,1.31s-.11.93-.32,1.31c-.21.38-.5.68-.88.9-.39.22-.84.33-1.29.32h0ZM44.83,15.71c.3,0,.56-.07.78-.21.23-.15.41-.34.53-.59.13-.26.2-.56.2-.85,0-.33-.06-.61-.2-.86-.26-.5-.78-.81-1.34-.8-.56,0-1.07.3-1.33.8-.13.25-.2.53-.2.86s.06.61.2.85c.13.25.31.44.55.59.23.14.5.21.81.21ZM48.8,16.5v-4.9h1l2.4,3.29v-3.29h.95v4.9h-.95l-2.44-3.35v3.35h-.96,0ZM54.91,16.5v-4.9h3.1v.88h-2.14v1.11h1.85v.85h-1.85v1.18h2.17v.88h-3.13Z"></path><path class="cls-4" d="M71.5,4.5h20v20h-20V4.5Z"></path><path class="cls-1" d="M86.05,12.04h-1.79c.05-.28.22-.44.57-.62l.33-.17c.59-.3.91-.64.91-1.2.01-.33-.14-.64-.41-.83-.27-.2-.59-.3-.96-.3-.3,0-.57.08-.82.23-.23.14-.42.34-.54.59l.52.52c.2-.41.49-.61.88-.61.32,0,.53.17.53.4,0,.19-.1.36-.47.55l-.21.1c-.46.23-.78.5-.96.8-.18.3-.28.68-.28,1.14v.12h2.72v-.74h0ZM85.81,13.64h-2.97l-1.48,2.57h2.97l1.48,2.57,1.48-2.57-1.48-2.57h0Z"></path><path class="cls-1" d="M81.61,17.93c-1.89,0-3.43-1.53-3.43-3.43,0-1.89,1.54-3.43,3.43-3.43l1.17-2.46c-3.25-.65-6.41,1.46-7.06,4.71-.08.39-.12.78-.12,1.18,0,3.31,2.69,6,6,6h0c1.27,0,2.51-.4,3.54-1.15l-1.3-2.25c-.6.52-1.38.83-2.24.83h0Z"></path><path class="cls-2" d="M6,30L0,25h6v5ZM86,30l6-5h-6v5Z"></path></g></g></svg>