<svg xmlns="http://www.w3.org/2000/svg" width="154" height="62" viewBox="0 0 154 62" fill="none"><path d="M0 12.4873H14.1027H22.6669V4L0 12.4873Z" fill="#CDD6DE"></path><path d="M22.668 4.00004V34.0003L33.386 0L22.668 4.00004Z" fill="#E7F4FF"></path><path d="M22.6658 12.4883H14.1016L22.6658 33.9757V12.4883Z" fill="#CDD6DE"></path><path d="M0 12.4883L16.3079 18.0012L14.1027 12.4883H0Z" fill="#E7F4FF"></path><path d="M51.95 26.0783C51.8218 26.2065 51.6166 26.3604 51.3346 26.5399C51.0525 26.7194 50.6679 26.9245 50.2064 27.104C49.7448 27.2835 49.1807 27.463 48.4884 27.5912C47.8217 27.7194 47.0525 27.7963 46.1807 27.7963C44.514 27.7963 43.0524 27.5142 41.8217 27.0014C40.5909 26.4629 39.5909 25.7193 38.796 24.745C38.0011 23.7706 37.4114 22.6424 37.0524 21.3347C36.6678 20.027 36.4883 18.5654 36.4883 17.0013C36.4883 15.4372 36.6934 13.9756 37.1037 12.6423C37.5139 11.3089 38.1037 10.1551 38.9242 9.18072C39.7191 8.20635 40.7447 7.43712 41.9499 6.89865C43.155 6.36018 44.5909 6.07812 46.232 6.07812C47.0268 6.07812 47.7704 6.15505 48.4115 6.28325C49.0525 6.4371 49.6423 6.59095 50.1294 6.79608C50.6166 7.00121 51.0269 7.20634 51.3346 7.41147C51.6679 7.6166 51.8987 7.82173 52.0525 7.94994C52.232 8.10378 52.4115 8.30892 52.5397 8.53969C52.6679 8.77046 52.7449 9.02687 52.7449 9.28329C52.7449 9.69355 52.591 10.1038 52.2833 10.5141C51.9756 10.9243 51.6423 11.3089 51.2577 11.6679C51.0012 11.4115 50.7192 11.1551 50.4115 10.8987C50.1038 10.6423 49.7448 10.4115 49.3602 10.2064C48.9756 10.0012 48.5397 9.8474 48.0525 9.71919C47.5653 9.59098 47.0268 9.51406 46.4115 9.51406C45.3602 9.51406 44.4627 9.71919 43.7448 10.1551C43.0268 10.591 42.4627 11.1295 42.0268 11.8218C41.5909 12.5141 41.2832 13.2833 41.1037 14.1551C40.9242 15.0269 40.8217 15.9244 40.8217 16.8475C40.8217 17.8218 40.9242 18.7449 41.1037 19.6424C41.2832 20.5398 41.6165 21.309 42.0781 22.0014C42.5396 22.6937 43.1294 23.2321 43.873 23.6424C44.6166 24.0527 45.514 24.2578 46.6166 24.2578C47.2063 24.2578 47.7192 24.1809 48.2063 24.0527C48.6935 23.8988 49.1294 23.7193 49.4884 23.5142C49.873 23.3091 50.1807 23.0783 50.4628 22.8732C50.7448 22.6424 50.9756 22.4373 51.1551 22.2834C51.2833 22.4373 51.4115 22.6167 51.591 22.8219C51.7705 23.027 51.9243 23.2578 52.0525 23.4629C52.2064 23.6937 52.309 23.9245 52.4372 24.1552C52.5397 24.386 52.591 24.5911 52.591 24.7706C52.591 25.0527 52.5397 25.2578 52.4372 25.4629C52.3346 25.6424 52.1551 25.8476 51.95 26.0783ZM67.9501 23.6937C67.9501 25.3347 68.1809 26.5399 68.6681 27.2835C68.2835 27.4373 67.9501 27.5399 67.6168 27.5912C67.2835 27.6424 66.9501 27.6937 66.5911 27.6937C65.8475 27.6937 65.2834 27.5399 64.8988 27.2578C64.5142 26.9758 64.2578 26.5399 64.1552 26.0014C63.6937 26.4886 63.1039 26.8988 62.3347 27.2322C61.5911 27.5655 60.668 27.7194 59.5911 27.7194C59.027 27.7194 58.4629 27.6424 57.8988 27.4886C57.3346 27.3347 56.8218 27.0783 56.3603 26.7194C55.8987 26.3604 55.5398 25.8988 55.2321 25.3091C54.95 24.7193 54.7962 24.0014 54.7962 23.1552C54.7962 22.1039 55.0526 21.2321 55.5654 20.5654C56.0782 19.8988 56.7193 19.3859 57.4885 19.0013C58.2577 18.6167 59.1039 18.3603 59.9757 18.2064C60.8731 18.0526 61.6937 17.9757 62.4373 17.9244C62.6937 17.8988 62.9244 17.8988 63.1809 17.8988H63.8475V17.3346C63.8475 16.5398 63.6424 15.9757 63.2065 15.6167C62.7706 15.2833 62.0783 15.1039 61.1295 15.1039C60.2321 15.1039 59.4372 15.2577 58.7449 15.5398C58.0526 15.8218 57.3603 16.1551 56.6936 16.5398C56.4116 16.1808 56.1551 15.7962 56.0013 15.3603C55.8218 14.9244 55.7449 14.6167 55.7449 14.4115C55.7449 14.1295 55.8987 13.8474 56.2321 13.5654C56.5654 13.2833 57.0013 13.0526 57.5654 12.8218C58.1295 12.591 58.7706 12.4372 59.5142 12.2833C60.2321 12.1551 61.0013 12.0782 61.8219 12.0782C62.9501 12.0782 63.8988 12.1808 64.6681 12.4115C65.4373 12.6423 66.0783 13.0013 66.5655 13.4628C67.0527 13.95 67.4117 14.5397 67.6168 15.2577C67.8219 15.9757 67.9245 16.8218 67.9245 17.7706L67.9501 23.6937ZM63.9501 20.0783H63.5142C63.3603 20.0783 63.2321 20.0783 63.0783 20.1039C62.5655 20.1552 62.0526 20.2065 61.5398 20.2834C61.027 20.3603 60.5654 20.5142 60.1808 20.7193C59.7962 20.9244 59.4629 21.2065 59.2065 21.5398C58.95 21.8732 58.8218 22.3091 58.8218 22.8219C58.8218 23.4116 58.9757 23.8988 59.309 24.3091C59.6424 24.7193 60.2065 24.9245 61.0013 24.9245C61.386 24.9245 61.7706 24.8732 62.1296 24.7706C62.4885 24.6681 62.7962 24.5398 63.0783 24.3604C63.3603 24.1809 63.5655 24.0014 63.7193 23.8219C63.8732 23.6168 63.9501 23.4373 63.9501 23.2834V20.0783ZM75.7194 13.9244C76.0528 13.5397 76.5656 13.1295 77.2836 12.7192C78.0015 12.309 78.8733 12.1038 79.9503 12.1038C80.7195 12.1038 81.4631 12.232 82.1554 12.4884C82.8477 12.7449 83.4631 13.1808 84.0016 13.7449C84.54 14.3346 84.9759 15.1039 85.2836 16.0526C85.617 17.0013 85.7708 18.1808 85.7708 19.5911C85.7708 21.2065 85.5913 22.5655 85.2067 23.6168C84.8221 24.6681 84.3606 25.5142 83.7708 26.104C83.1811 26.7194 82.5144 27.1553 81.7964 27.4117C81.0785 27.6681 80.3349 27.7963 79.6169 27.7963C79.0272 27.7963 78.4887 27.7194 78.0528 27.5912C77.6169 27.463 77.2323 27.3091 76.9246 27.1296C76.6169 26.9758 76.3861 26.7963 76.2066 26.6424C76.0528 26.4886 75.9246 26.3604 75.8989 26.3091V34.0015H71.6425V12.5654C71.745 12.5397 71.8732 12.5141 72.0271 12.5141C72.1553 12.4884 72.3092 12.4884 72.463 12.4628C72.6425 12.4628 72.822 12.4372 73.0527 12.4372C73.7451 12.4372 74.3348 12.5397 74.822 12.7705C75.2835 13.0013 75.5912 13.3859 75.7194 13.9244ZM81.3605 19.6936C81.3605 19.0783 81.3092 18.4885 81.2067 17.95C81.1041 17.4116 80.9246 16.95 80.6939 16.5398C80.4631 16.1551 80.1297 15.8475 79.7195 15.6167C79.3092 15.3859 78.822 15.2833 78.2323 15.2833C77.3605 15.2833 76.7451 15.4628 76.4118 15.7705C76.0784 16.1039 75.8989 16.4628 75.8989 16.8731V23.5142C76.0528 23.6937 76.3605 23.8732 76.7964 24.1039C77.2323 24.3347 77.7195 24.4373 78.2836 24.4373C79.3349 24.4373 80.1041 24.027 80.6169 23.1809C81.1041 22.3603 81.3605 21.2065 81.3605 19.6936ZM89.0529 25.0783C88.8991 24.6681 88.8221 24.2322 88.7709 23.7706C88.7196 23.3091 88.7196 22.8475 88.7196 22.386V7.89866C88.8734 7.87302 89.0273 7.84737 89.1811 7.84737C89.335 7.82173 89.4888 7.82174 89.6427 7.79609C89.7965 7.79609 89.976 7.77045 90.1298 7.77045C90.4632 7.77045 90.7965 7.79609 91.1298 7.87301C91.4632 7.9243 91.7709 8.0525 92.0273 8.25763C92.3093 8.43712 92.5145 8.69354 92.694 9.02687C92.8478 9.36021 92.9504 9.77047 92.9504 10.2833V12.5141H97.335V15.668H92.976V22.3347C92.976 23.7962 93.5658 24.5142 94.7453 24.5142C95.0273 24.5142 95.3094 24.4629 95.5658 24.386C95.8222 24.2834 96.053 24.1809 96.2581 24.0783C96.4632 23.9757 96.6427 23.8475 96.7966 23.7193C96.9504 23.5911 97.053 23.4886 97.1299 23.4373C97.4376 23.8988 97.694 24.2834 97.8479 24.6168C98.0017 24.9501 98.1043 25.2578 98.1043 25.5655C98.1043 25.8476 98.0017 26.104 97.7709 26.3604C97.5402 26.6168 97.2325 26.8732 96.8479 27.0783C96.4632 27.3091 95.9761 27.4886 95.4119 27.6168C94.8478 27.745 94.2324 27.8219 93.5658 27.8219C92.2837 27.8219 91.2581 27.5655 90.5401 27.0783C89.8734 26.5399 89.3606 25.8988 89.0529 25.0783ZM108.104 24.6681C108.617 24.6681 109.079 24.6168 109.489 24.4886C109.874 24.386 110.233 24.2322 110.566 24.0783C110.874 23.9245 111.156 23.7193 111.386 23.5398C111.617 23.3347 111.822 23.1552 112.002 23.0014C112.258 23.3091 112.515 23.7193 112.797 24.2065C113.079 24.6937 113.207 25.104 113.207 25.4116C113.207 25.8732 112.951 26.2835 112.438 26.6681C112.002 27.0014 111.386 27.2835 110.566 27.5399C109.771 27.7707 108.822 27.8989 107.745 27.8989C106.771 27.8989 105.797 27.7706 104.848 27.5142C103.899 27.2578 103.053 26.8219 102.309 26.2065C101.566 25.5911 100.976 24.745 100.515 23.6937C100.053 22.6424 99.8222 21.309 99.8222 19.7193C99.8222 18.4116 100.027 17.2834 100.438 16.3346C100.848 15.3859 101.386 14.591 102.053 13.9756C102.72 13.3602 103.489 12.8987 104.361 12.591C105.207 12.309 106.079 12.1551 106.976 12.1551C108.13 12.1551 109.13 12.3346 109.951 12.6936C110.771 13.0526 111.412 13.5397 111.925 14.1551C112.438 14.7705 112.797 15.4628 113.028 16.2577C113.258 17.0526 113.361 17.8731 113.361 18.7449V19.1808C113.361 19.3603 113.361 19.5142 113.335 19.7193C113.335 19.8988 113.31 20.0783 113.31 20.2577C113.31 20.4372 113.284 20.5654 113.258 20.668H104.053C104.13 21.8219 104.489 22.7706 105.13 23.5398C105.745 24.2834 106.745 24.6681 108.104 24.6681ZM109.54 18.3347C109.54 17.3346 109.335 16.5141 108.951 15.8987C108.566 15.2833 107.874 14.95 106.874 14.95C106.002 14.95 105.335 15.2577 104.822 15.8475C104.309 16.4372 104.053 17.2577 104.053 18.3347H109.54ZM120.771 14.0013C120.899 13.8218 121.053 13.6167 121.258 13.3859C121.463 13.1551 121.72 12.95 122.028 12.7705C122.335 12.591 122.669 12.4372 123.028 12.309C123.387 12.1807 123.771 12.1295 124.207 12.1295C124.464 12.1295 124.72 12.1551 125.002 12.1807C125.284 12.232 125.54 12.309 125.771 12.4115C126.002 12.5141 126.207 12.6679 126.361 12.8731C126.515 13.0782 126.592 13.309 126.592 13.591C126.592 14.0526 126.489 14.5654 126.258 15.1551C126.028 15.7449 125.797 16.2577 125.566 16.668C125.207 16.3859 124.848 16.1552 124.515 16.0013C124.156 15.8475 123.746 15.7705 123.258 15.7705C122.617 15.7705 122.079 15.95 121.643 16.3346C121.207 16.7193 120.976 17.1552 120.976 17.6936V27.7963H116.72V12.5397C116.822 12.5141 116.951 12.4884 117.104 12.4884C117.233 12.4628 117.387 12.4628 117.54 12.4372C117.694 12.4372 117.899 12.4115 118.13 12.4115C118.797 12.4115 119.387 12.5397 119.874 12.7961C120.335 13.0782 120.643 13.4628 120.771 14.0013ZM132.848 14.0013C132.976 13.8218 133.13 13.6167 133.335 13.3859C133.541 13.1551 133.797 12.95 134.105 12.7705C134.412 12.591 134.746 12.4372 135.105 12.309C135.464 12.1807 135.848 12.1295 136.284 12.1295C136.541 12.1295 136.797 12.1551 137.079 12.1807C137.361 12.232 137.617 12.309 137.848 12.4115C138.079 12.5141 138.284 12.6679 138.438 12.8731C138.592 13.0782 138.669 13.309 138.669 13.591C138.669 14.0526 138.566 14.5654 138.335 15.1551C138.105 15.7449 137.874 16.2577 137.643 16.668C137.284 16.3859 136.925 16.1552 136.592 16.0013C136.233 15.8475 135.823 15.7705 135.335 15.7705C134.694 15.7705 134.156 15.95 133.72 16.3346C133.284 16.7193 133.053 17.1552 133.053 17.6936V27.7963H128.797V12.5397C128.899 12.5141 129.028 12.4884 129.182 12.4884C129.31 12.4628 129.464 12.4628 129.617 12.4372C129.771 12.4372 129.976 12.4115 130.207 12.4115C130.874 12.4115 131.464 12.5397 131.951 12.7961C132.412 13.0782 132.72 13.4628 132.848 14.0013ZM153.13 23.6937C153.13 25.3347 153.361 26.5399 153.848 27.2835C153.464 27.4373 153.13 27.5399 152.797 27.5912C152.464 27.6424 152.13 27.6937 151.771 27.6937C151.028 27.6937 150.464 27.5399 150.079 27.2578C149.695 26.9758 149.438 26.5399 149.336 26.0014C148.874 26.4886 148.284 26.8988 147.515 27.2322C146.771 27.5655 145.848 27.7194 144.771 27.7194C144.207 27.7194 143.643 27.6424 143.079 27.4886C142.515 27.3347 142.002 27.0783 141.541 26.7194C141.079 26.3604 140.72 25.8988 140.412 25.3091C140.13 24.7193 139.976 24.0014 139.976 23.1552C139.976 22.1039 140.233 21.2321 140.746 20.5654C141.259 19.8988 141.9 19.3859 142.669 19.0013C143.438 18.6167 144.284 18.3603 145.156 18.2064C146.053 18.0526 146.874 17.9757 147.618 17.9244C147.874 17.8988 148.105 17.8988 148.361 17.8988H149.028V17.3346C149.028 16.5398 148.823 15.9757 148.387 15.6167C147.951 15.2833 147.259 15.1039 146.31 15.1039C145.412 15.1039 144.618 15.2577 143.925 15.5398C143.233 15.8218 142.541 16.1551 141.874 16.5398C141.592 16.1808 141.335 15.7962 141.182 15.3603C141.002 14.9244 140.925 14.6167 140.925 14.4115C140.925 14.1295 141.079 13.8474 141.412 13.5654C141.746 13.2833 142.182 13.0526 142.746 12.8218C143.31 12.591 143.951 12.4372 144.694 12.2833C145.412 12.1551 146.182 12.0782 147.002 12.0782C148.13 12.0782 149.079 12.1808 149.848 12.4115C150.618 12.6423 151.259 13.0013 151.746 13.4628C152.233 13.95 152.592 14.5397 152.797 15.2577C153.002 15.9757 153.105 16.8218 153.105 17.7706L153.13 23.6937ZM149.13 20.0783H148.695C148.541 20.0783 148.412 20.0783 148.259 20.1039C147.746 20.1552 147.233 20.2065 146.72 20.2834C146.207 20.3603 145.746 20.5142 145.361 20.7193C144.977 20.9244 144.643 21.2065 144.387 21.5398C144.13 21.8732 144.002 22.3091 144.002 22.8219C144.002 23.4116 144.156 23.8988 144.489 24.3091C144.823 24.7193 145.387 24.9245 146.182 24.9245C146.566 24.9245 146.951 24.8732 147.31 24.7706C147.669 24.6681 147.977 24.5398 148.259 24.3604C148.541 24.1809 148.746 24.0014 148.9 23.8219C149.053 23.6168 149.13 23.4373 149.13 23.2834V20.0783Z" fill="#E7F4FF"></path><path d="M38.5566 59.1523C38.002 59.1523 37.4824 59.0508 36.998 58.8477C36.5137 58.6406 36.1133 58.3379 35.7969 57.9395C35.4805 57.541 35.2969 57.0508 35.2461 56.4688L37.1035 56.0879C37.123 56.5801 37.2559 56.9785 37.502 57.2832C37.748 57.5879 38.1035 57.7402 38.5684 57.7402C38.877 57.7402 39.1387 57.6699 39.3535 57.5293C39.5684 57.3848 39.7344 57.1895 39.8516 56.9434C39.9688 56.6934 40.0273 56.4121 40.0273 56.0996C40.0273 55.6426 39.9004 55.2793 39.6465 55.0098C39.3926 54.7402 39.041 54.6055 38.5918 54.6055C38.2715 54.6055 38.0098 54.6797 37.8066 54.8281C37.6074 54.9766 37.4473 55.1699 37.3262 55.4082L35.4805 55.2676L35.8789 50.5625H41.3633V51.998H37.3438L37.1328 54.5586L36.8809 54.418C37.1113 54.0547 37.416 53.7773 37.7949 53.5859C38.1738 53.3906 38.6113 53.293 39.1074 53.293C39.7012 53.293 40.2031 53.4141 40.6133 53.6562C41.0273 53.8984 41.3398 54.2285 41.5508 54.6465C41.7617 55.0605 41.8672 55.5312 41.8672 56.0586C41.8672 56.7227 41.7129 57.2852 41.4043 57.7461C41.0957 58.207 40.6895 58.5566 40.1855 58.7949C39.6816 59.0332 39.1387 59.1523 38.5566 59.1523ZM43.9648 59.1523C43.6055 59.1523 43.3145 59.041 43.0918 58.8184C42.8691 58.5957 42.7578 58.3047 42.7578 57.9453C42.7578 57.5859 42.8691 57.2969 43.0918 57.0781C43.3145 56.8555 43.6055 56.7441 43.9648 56.7441C44.3242 56.7441 44.6133 56.8555 44.832 57.0781C45.0547 57.2969 45.166 57.5859 45.166 57.9453C45.166 58.3047 45.0547 58.5957 44.832 58.8184C44.6133 59.041 44.3242 59.1523 43.9648 59.1523ZM49.291 59.1523C48.2246 59.1523 47.4004 58.7734 46.8184 58.0156C46.2402 57.2539 45.9512 56.1758 45.9512 54.7812C45.9512 53.3906 46.2402 52.3145 46.8184 51.5527C47.4004 50.791 48.2246 50.4102 49.291 50.4102C50.3613 50.4102 51.1855 50.791 51.7637 51.5527C52.3418 52.3145 52.6309 53.3906 52.6309 54.7812C52.6309 56.1719 52.3418 57.248 51.7637 58.0098C51.1855 58.7715 50.3613 59.1523 49.291 59.1523ZM49.291 57.7461C49.7793 57.7461 50.1465 57.4961 50.3926 56.9961C50.6426 56.4961 50.7676 55.7578 50.7676 54.7812C50.7676 53.8047 50.6426 53.0684 50.3926 52.5723C50.1465 52.0723 49.7793 51.8223 49.291 51.8223C48.8027 51.8223 48.4336 52.0723 48.1836 52.5723C47.9375 53.0684 47.8145 53.8047 47.8145 54.7812C47.8145 55.7578 47.9375 56.4961 48.1836 56.9961C48.4336 57.4961 48.8027 57.7461 49.291 57.7461ZM52.5371 60.5293L56.3516 49.7012H57.998L54.1836 60.5293H52.5371ZM61.5254 59.1523C60.9707 59.1523 60.4512 59.0508 59.9668 58.8477C59.4824 58.6406 59.082 58.3379 58.7656 57.9395C58.4492 57.541 58.2656 57.0508 58.2148 56.4688L60.0723 56.0879C60.0918 56.5801 60.2246 56.9785 60.4707 57.2832C60.7168 57.5879 61.0723 57.7402 61.5371 57.7402C61.8457 57.7402 62.1074 57.6699 62.3223 57.5293C62.5371 57.3848 62.7031 57.1895 62.8203 56.9434C62.9375 56.6934 62.9961 56.4121 62.9961 56.0996C62.9961 55.6426 62.8691 55.2793 62.6152 55.0098C62.3613 54.7402 62.0098 54.6055 61.5605 54.6055C61.2402 54.6055 60.9785 54.6797 60.7754 54.8281C60.5762 54.9766 60.416 55.1699 60.2949 55.4082L58.4492 55.2676L58.8477 50.5625H64.332V51.998H60.3125L60.1016 54.5586L59.8496 54.418C60.0801 54.0547 60.3848 53.7773 60.7637 53.5859C61.1426 53.3906 61.5801 53.293 62.0762 53.293C62.6699 53.293 63.1719 53.4141 63.582 53.6562C63.9961 53.8984 64.3086 54.2285 64.5195 54.6465C64.7305 55.0605 64.8359 55.5312 64.8359 56.0586C64.8359 56.7227 64.6816 57.2852 64.373 57.7461C64.0645 58.207 63.6582 58.5566 63.1543 58.7949C62.6504 59.0332 62.1074 59.1523 61.5254 59.1523ZM66.9336 59.1523C66.5742 59.1523 66.2832 59.041 66.0605 58.8184C65.8379 58.5957 65.7266 58.3047 65.7266 57.9453C65.7266 57.5859 65.8379 57.2969 66.0605 57.0781C66.2832 56.8555 66.5742 56.7441 66.9336 56.7441C67.293 56.7441 67.582 56.8555 67.8008 57.0781C68.0234 57.2969 68.1348 57.5859 68.1348 57.9453C68.1348 58.3047 68.0234 58.5957 67.8008 58.8184C67.582 59.041 67.293 59.1523 66.9336 59.1523ZM72.2598 59.1523C71.1934 59.1523 70.3691 58.7734 69.7871 58.0156C69.209 57.2539 68.9199 56.1758 68.9199 54.7812C68.9199 53.3906 69.209 52.3145 69.7871 51.5527C70.3691 50.791 71.1934 50.4102 72.2598 50.4102C73.3301 50.4102 74.1543 50.791 74.7324 51.5527C75.3105 52.3145 75.5996 53.3906 75.5996 54.7812C75.5996 56.1719 75.3105 57.248 74.7324 58.0098C74.1543 58.7715 73.3301 59.1523 72.2598 59.1523ZM72.2598 57.7461C72.748 57.7461 73.1152 57.4961 73.3613 56.9961C73.6113 56.4961 73.7363 55.7578 73.7363 54.7812C73.7363 53.8047 73.6113 53.0684 73.3613 52.5723C73.1152 52.0723 72.748 51.8223 72.2598 51.8223C71.7715 51.8223 71.4023 52.0723 71.1523 52.5723C70.9062 53.0684 70.7832 53.8047 70.7832 54.7812C70.7832 55.7578 70.9062 56.4961 71.1523 56.9961C71.4023 57.4961 71.7715 57.7461 72.2598 57.7461Z" fill="white"></path><path d="M89.7675 52.9011H86.4725C86.3947 52.9011 86.2373 52.8233 86.2373 52.7437L85.2185 49.6061C85.1407 49.3709 84.7481 49.3709 84.6702 49.6061L83.6515 52.7437C83.6515 52.8215 83.4941 52.9011 83.4162 52.9011H80.1213C79.886 52.9011 79.7286 53.2142 79.9639 53.3716L82.631 55.333C82.7088 55.4108 82.7884 55.4904 82.7088 55.6461L81.6901 58.7836C81.6122 59.0189 81.9253 59.2541 82.0827 59.0967L84.7498 57.1353C84.8276 57.0575 84.985 57.0575 85.0629 57.1353L87.73 59.0967C87.9652 59.2541 88.2005 59.0189 88.1226 58.7836L87.1039 55.6461C87.1039 55.5682 87.1039 55.4108 87.1817 55.333L89.8488 53.3716C90.1602 53.2159 90.0806 52.9011 89.7675 52.9011Z" fill="white"></path><path d="M100.357 52.9011H97.0624C96.9846 52.9011 96.8271 52.8233 96.8271 52.7437L95.8084 49.6061C95.7306 49.3709 95.3379 49.3709 95.2601 49.6061L94.2413 52.7437C94.2413 52.8215 94.0839 52.9011 94.0061 52.9011H90.7111C90.4759 52.9011 90.3185 53.2142 90.5537 53.3716L93.2208 55.333C93.2987 55.4108 93.3782 55.4904 93.2987 55.6461L92.2799 58.7836C92.2021 59.0189 92.5151 59.2541 92.6725 59.0967L95.3397 57.1353C95.4175 57.0575 95.5749 57.0575 95.6527 57.1353L98.3198 59.0967C98.5551 59.2541 98.7903 59.0189 98.7125 58.7836L97.6937 55.6461C97.6937 55.5682 97.6937 55.4108 97.7715 55.333L100.439 53.3716C100.67 53.2159 100.593 52.9011 100.357 52.9011Z" fill="white"></path><path d="M111.178 52.9011H107.883C107.805 52.9011 107.647 52.8233 107.647 52.7437L106.629 49.6061C106.551 49.3709 106.158 49.3709 106.08 49.6061L105.062 52.7437C105.062 52.8215 104.904 52.9011 104.826 52.9011H101.531C101.296 52.9011 101.139 53.2142 101.374 53.3716L104.041 55.333C104.119 55.4108 104.199 55.4904 104.119 55.6461L103.1 58.7836C103.022 59.0189 103.335 59.2541 103.493 59.0967L106.16 57.1353C106.238 57.0575 106.395 57.0575 106.473 57.1353L109.14 59.0967C109.375 59.2541 109.611 59.0189 109.533 58.7836L108.514 55.6461C108.514 55.5682 108.514 55.4108 108.592 55.333L111.259 53.3716C111.492 53.2159 111.413 52.9011 111.178 52.9011Z" fill="white"></path><path d="M121.924 52.9011H118.629C118.551 52.9011 118.394 52.8233 118.394 52.7437L117.375 49.6061C117.297 49.3709 116.904 49.3709 116.826 49.6061L115.808 52.7437C115.808 52.8215 115.65 52.9011 115.572 52.9011H112.278C112.042 52.9011 111.885 53.2142 112.12 53.3716L114.787 55.333C114.865 55.4108 114.945 55.4904 114.865 55.6461L113.846 58.7836C113.768 59.0189 114.082 59.2541 114.239 59.0967L116.906 57.1353C116.984 57.0575 117.141 57.0575 117.219 57.1353L119.886 59.0967C120.121 59.2541 120.357 59.0189 120.279 58.7836L119.26 55.6461C119.26 55.5682 119.26 55.4108 119.338 55.333L122.005 53.3716C122.237 53.2159 122.159 52.9011 121.924 52.9011Z" fill="white"></path><path d="M132.593 53.3716C132.828 53.2142 132.671 52.9011 132.435 52.9011H129.141C129.063 52.9011 128.905 52.8233 128.905 52.7437L127.887 49.6061C127.809 49.3709 127.416 49.3709 127.338 49.6061L126.319 52.7437C126.319 52.8215 126.162 52.9011 126.084 52.9011H122.789C122.554 52.9011 122.397 53.2142 122.632 53.3716L125.299 55.333C125.377 55.4108 125.456 55.4904 125.377 55.6461L124.358 58.7836C124.28 59.0189 124.593 59.2541 124.751 59.0967L127.418 57.1353C127.496 57.0575 127.653 57.0575 127.731 57.1353L130.398 59.0967C130.633 59.2541 130.868 59.0189 130.791 58.7836L129.772 55.6461C129.772 55.5682 129.772 55.4108 129.85 55.333L132.593 53.3716Z" fill="white"></path></svg>