<svg xmlns="http://www.w3.org/2000/svg" width="106" height="62" viewBox="0 0 106 62" fill="none"><path d="M30.7897 0H26.1758V28.6064H30.7897V0Z" fill="#E7F4FF"></path><path d="M46.8149 28.6013H51.4288V9.22266H46.8149V19.4568H46.8982C46.8982 23.7358 43.2074 24.1539 42.2011 24.1539C39.5167 24.1539 38.9303 21.5528 38.9303 19.96V9.22266H34.3164V20.1283C34.3164 22.8127 35.2395 24.9938 36.5808 26.5885C37.8388 27.8465 39.8516 28.6013 42.1178 28.6013C43.7125 28.6013 45.8085 28.1813 46.8149 27.0066V28.6013Z" fill="#E7F4FF"></path><path d="M55.8727 28.6045H60.4866V13.8398H63.8425V9.22591H60.4866V2.34766H55.8727V9.22591H52.4336V13.8398H55.8727V28.6045Z" fill="#E7F4FF"></path><path d="M74.5808 28.5239C77.1819 28.5239 79.6146 27.6008 81.4591 25.9229L82.1306 25.2513L78.9431 22.0638L78.2715 22.9018C77.2652 23.825 76.0072 24.3282 74.5808 24.3282C71.3933 24.3282 69.0438 22.0638 69.0438 18.7079C69.0438 15.352 71.3082 13.1709 74.5808 13.1709C76.0072 13.1709 77.2652 13.5908 78.2715 14.5972L78.9431 15.1837L81.9623 12.1645L81.2907 11.493C79.3612 9.89826 77.0968 8.89187 74.579 8.89187C68.8755 8.80862 64.6797 12.9193 64.6797 18.7061C64.6815 24.1617 68.9606 28.5239 74.5808 28.5239Z" fill="#E7F4FF"></path><path d="M88.9294 17.7821C88.9294 13.5031 92.117 13.085 93.1234 13.085C95.8077 13.085 95.8077 15.686 95.8077 17.2789V28.6045H100.422V17.1956C100.505 14.6797 99.9184 12.4134 98.4088 10.9038C97.1508 9.64583 95.4728 8.89104 93.375 8.89104C91.7803 8.89104 90.1042 9.31099 88.8443 10.4857V0H84.2305V28.6064H88.8443V17.7839H88.9294V17.7821Z" fill="#E7F4FF"></path><path d="M71.0586 18.7044C71.0586 20.5507 72.5682 21.9752 74.3294 21.9752C76.1757 21.9752 77.6001 20.4656 77.6001 18.7044C77.6001 16.8581 76.0906 15.4336 74.3294 15.4336C72.5682 15.4336 71.0586 16.8599 71.0586 18.7044Z" fill="#E7F4FF"></path><path d="M13.1701 28.521C16.8608 28.521 20.385 27.0947 22.7327 24.4936L23.4042 23.822L20.385 20.6345L19.7986 21.4726C18.1206 23.1505 15.6046 24.1569 13.1719 24.1569C7.9716 24.1569 4.27902 20.1295 4.27902 14.6775C4.27902 9.14053 7.96975 5.19821 13.0868 5.19821C15.5195 5.19821 17.7839 6.2046 19.7135 7.88254L20.385 8.55409L23.4042 5.53491L22.7327 4.86336C20.2167 2.17903 16.7757 0.835938 13.1701 0.835938C5.62026 0.919187 0 6.7929 0 14.6775C0 22.5622 5.62026 28.521 13.1701 28.521Z" fill="#E7F4FF"></path><path d="M59.8092 52.3028H56.285C56.2018 52.3028 56.0334 52.2195 56.0334 52.1344L54.9438 48.7785C54.8605 48.5269 54.4406 48.5269 54.3573 48.7785L53.2677 52.1344C53.2677 52.2177 53.0993 52.3028 53.0161 52.3028H49.4919C49.2403 52.3028 49.0719 52.6376 49.3235 52.806L52.1762 54.9039C52.2594 54.9871 52.3445 55.0722 52.2594 55.2387L51.1698 58.5946C51.0865 58.8462 51.4214 59.0978 51.5897 58.9294L54.4424 56.8315C54.5257 56.7483 54.694 56.7483 54.7773 56.8315L57.6299 58.9294C57.8815 59.0978 58.1331 58.8462 58.0499 58.5946L56.9603 55.2387C56.9603 55.1555 56.9603 54.9871 57.0435 54.9039L59.8962 52.806C60.2292 52.6395 60.1441 52.3028 59.8092 52.3028Z" fill="white"></path><path d="M71.1374 52.3028H67.6131C67.5299 52.3028 67.3615 52.2195 67.3615 52.1344L66.2719 48.7785C66.1886 48.5269 65.7687 48.5269 65.6854 48.7785L64.5958 52.1344C64.5958 52.2177 64.4275 52.3028 64.3442 52.3028H60.82C60.5684 52.3028 60.4 52.6376 60.6516 52.806L63.5043 54.9039C63.5876 54.9871 63.6727 55.0722 63.5876 55.2387L62.4979 58.5946C62.4147 58.8462 62.7495 59.0978 62.9179 58.9294L65.7705 56.8315C65.8538 56.7483 66.0221 56.7483 66.1054 56.8315L68.9581 58.9294C69.2097 59.0978 69.4613 58.8462 69.378 58.5946L68.2884 55.2387C68.2884 55.1555 68.2884 54.9871 68.3716 54.9039L71.2243 52.806C71.4722 52.6395 71.389 52.3028 71.1374 52.3028Z" fill="white"></path><path d="M82.7116 52.3028H79.1874C79.1041 52.3028 78.9358 52.2195 78.9358 52.1344L77.8461 48.7785C77.7629 48.5269 77.3429 48.5269 77.2597 48.7785L76.17 52.1344C76.17 52.2177 76.0017 52.3028 75.9184 52.3028H72.3942C72.1426 52.3028 71.9743 52.6376 72.2259 52.806L75.0785 54.9039C75.1618 54.9871 75.2469 55.0722 75.1618 55.2387L74.0721 58.5946C73.9889 58.8462 74.3237 59.0978 74.4921 58.9294L77.3448 56.8315C77.428 56.7483 77.5964 56.7483 77.6796 56.8315L80.5323 58.9294C80.7839 59.0978 81.0355 58.8462 80.9522 58.5946L79.8626 55.2387C79.8626 55.1555 79.8626 54.9871 79.9458 54.9039L82.7985 52.806C83.0483 52.6395 82.9632 52.3028 82.7116 52.3028Z" fill="white"></path><path d="M94.2038 52.3028H90.6795C90.5963 52.3028 90.4279 52.2195 90.4279 52.1344L89.3383 48.7785C89.2551 48.5269 88.8351 48.5269 88.7518 48.7785L87.6622 52.1344C87.6622 52.2177 87.4939 52.3028 87.4106 52.3028H83.8864C83.6348 52.3028 83.4664 52.6376 83.718 52.806L86.5707 54.9039C86.654 54.9871 86.7391 55.0722 86.654 55.2387L85.5643 58.5946C85.4811 58.8462 85.8159 59.0978 85.9843 58.9294L88.837 56.8315C88.9202 56.7483 89.0885 56.7483 89.1718 56.8315L92.0245 58.9294C92.2761 59.0978 92.5277 58.8462 92.4444 58.5946L91.3548 55.2387C91.3548 55.1555 91.3548 54.9871 91.438 54.9039L94.2907 52.806C94.5386 52.6395 94.4554 52.3028 94.2038 52.3028Z" fill="white"></path><path d="M105.618 52.806C105.87 52.6376 105.701 52.3028 105.45 52.3028H101.926C101.842 52.3028 101.674 52.2195 101.674 52.1344L100.584 48.7785C100.501 48.5269 100.081 48.5269 99.9979 48.7785L98.9083 52.1344C98.9083 52.2177 98.7399 52.3028 98.6567 52.3028H95.1325C94.8809 52.3028 94.7125 52.6376 94.9641 52.806L97.8168 54.9038C97.9001 54.9871 97.9852 55.0722 97.9001 55.2387L96.8104 58.5946C96.7272 58.8462 97.062 59.0978 97.2304 58.9294L100.083 56.8315C100.166 56.7483 100.335 56.7483 100.418 56.8315L103.271 58.9294C103.522 59.0978 103.774 58.8462 103.691 58.5946L102.601 55.2387C102.601 55.1554 102.601 54.9871 102.684 54.9038L105.618 52.806Z" fill="white"></path><path d="M5.03734 59.1512C4.44406 59.1512 3.88838 59.0426 3.37031 58.8253C2.85224 58.6039 2.42399 58.2801 2.08557 57.8539C1.74715 57.4278 1.55078 56.9035 1.49647 56.2809L3.48312 55.8736C3.50401 56.4 3.64606 56.8262 3.90927 57.152C4.17249 57.4779 4.55269 57.6409 5.04987 57.6409C5.37994 57.6409 5.65986 57.5657 5.88965 57.4153C6.11944 57.2607 6.29701 57.0518 6.42235 56.7886C6.54769 56.5212 6.61036 56.2203 6.61036 55.8861C6.61036 55.3973 6.47458 55.0087 6.203 54.7204C5.93143 54.4322 5.55541 54.288 5.07494 54.288C4.73234 54.288 4.45242 54.3674 4.23516 54.5262C4.02208 54.6849 3.85078 54.8917 3.72126 55.1466L1.74715 54.9962L2.17331 49.9638H8.03924V51.4992H3.74006L3.51445 54.2379L3.24497 54.0875C3.49147 53.6989 3.81736 53.4023 4.22263 53.1976C4.62789 52.9887 5.09583 52.8842 5.62644 52.8842C6.2615 52.8842 6.79837 53.0137 7.23706 53.2728C7.67993 53.5318 8.01417 53.8848 8.23979 54.3319C8.4654 54.7748 8.57821 55.2782 8.57821 55.8422C8.57821 56.5525 8.41318 57.1541 8.08311 57.6471C7.75305 58.1401 7.31854 58.5141 6.77957 58.7689C6.24061 59.0238 5.65986 59.1512 5.03734 59.1512ZM10.8218 59.1512C10.4374 59.1512 10.1262 59.0322 9.88801 58.794C9.64987 58.5559 9.53079 58.2446 9.53079 57.8602C9.53079 57.4758 9.64987 57.1667 9.88801 56.9327C10.1262 56.6946 10.4374 56.5755 10.8218 56.5755C11.2062 56.5755 11.5154 56.6946 11.7493 56.9327C11.9875 57.1667 12.1065 57.4758 12.1065 57.8602C12.1065 58.2446 11.9875 58.5559 11.7493 58.794C11.5154 59.0322 11.2062 59.1512 10.8218 59.1512ZM16.5185 59.1512C15.3779 59.1512 14.4964 58.746 13.8738 57.9354C13.2555 57.1207 12.9463 55.9676 12.9463 54.476C12.9463 52.9887 13.2555 51.8376 13.8738 51.0229C14.4964 50.2082 15.3779 49.8008 16.5185 49.8008C17.6633 49.8008 18.5449 50.2082 19.1632 51.0229C19.7816 51.8376 20.0907 52.9887 20.0907 54.476C20.0907 55.9634 19.7816 57.1144 19.1632 57.9292C18.5449 58.7439 17.6633 59.1512 16.5185 59.1512ZM16.5185 57.6471C17.0408 57.6471 17.4335 57.3797 17.6967 56.845C17.9641 56.3102 18.0978 55.5205 18.0978 54.476C18.0978 53.4315 17.9641 52.644 17.6967 52.1134C17.4335 51.5786 17.0408 51.3112 16.5185 51.3112C15.9963 51.3112 15.6015 51.5786 15.3341 52.1134C15.0708 52.644 14.9392 53.4315 14.9392 54.476C14.9392 55.5205 15.0708 56.3102 15.3341 56.845C15.6015 57.3797 15.9963 57.6471 16.5185 57.6471ZM19.9905 60.624L24.0703 49.0425H25.8313L21.7515 60.624H19.9905ZM29.6041 59.1512C29.0108 59.1512 28.4551 59.0426 27.937 58.8253C27.419 58.6039 26.9907 58.2801 26.6523 57.8539C26.3139 57.4278 26.1175 56.9035 26.0632 56.2809L28.0498 55.8736C28.0707 56.4 28.2128 56.8262 28.476 57.152C28.7392 57.4779 29.1194 57.6409 29.6166 57.6409C29.9467 57.6409 30.2266 57.5657 30.4564 57.4153C30.6862 57.2607 30.8637 57.0518 30.9891 56.7886C31.1144 56.5212 31.1771 56.2203 31.1771 55.8861C31.1771 55.3973 31.0413 55.0087 30.7697 54.7204C30.4982 54.4322 30.1221 54.288 29.6417 54.288C29.2991 54.288 29.0191 54.3674 28.8019 54.5262C28.5888 54.6849 28.4175 54.8917 28.288 55.1466L26.3139 54.9962L26.74 49.9638H32.606V51.4992H28.3068L28.0812 54.2379L27.8117 54.0875C28.0582 53.6989 28.3841 53.4023 28.7894 53.1976C29.1946 52.9887 29.6626 52.8842 30.1932 52.8842C30.8282 52.8842 31.3651 53.0137 31.8038 53.2728C32.2467 53.5318 32.5809 53.8848 32.8065 54.3319C33.0321 54.7748 33.1449 55.2782 33.1449 55.8422C33.1449 56.5525 32.9799 57.1541 32.6498 57.6471C32.3198 58.1401 31.8853 58.5141 31.3463 58.7689C30.8073 59.0238 30.2266 59.1512 29.6041 59.1512ZM35.3885 59.1512C35.0042 59.1512 34.6929 59.0322 34.4547 58.794C34.2166 58.5559 34.0975 58.2446 34.0975 57.8602C34.0975 57.4758 34.2166 57.1667 34.4547 56.9327C34.6929 56.6946 35.0042 56.5755 35.3885 56.5755C35.7729 56.5755 36.0821 56.6946 36.3161 56.9327C36.5542 57.1667 36.6733 57.4758 36.6733 57.8602C36.6733 58.2446 36.5542 58.5559 36.3161 58.794C36.0821 59.0322 35.7729 59.1512 35.3885 59.1512ZM41.0853 59.1512C39.9447 59.1512 39.0631 58.746 38.4406 57.9354C37.8222 57.1207 37.5131 55.9676 37.5131 54.476C37.5131 52.9887 37.8222 51.8376 38.4406 51.0229C39.0631 50.2082 39.9447 49.8008 41.0853 49.8008C42.23 49.8008 43.1116 50.2082 43.7299 51.0229C44.3483 51.8376 44.6575 52.9887 44.6575 54.476C44.6575 55.9634 44.3483 57.1144 43.7299 57.9292C43.1116 58.7439 42.23 59.1512 41.0853 59.1512ZM41.0853 57.6471C41.6075 57.6471 42.0002 57.3797 42.2635 56.845C42.5309 56.3102 42.6645 55.5205 42.6645 54.476C42.6645 53.4315 42.5309 52.644 42.2635 52.1134C42.0002 51.5786 41.6075 51.3112 41.0853 51.3112C40.563 51.3112 40.1682 51.5786 39.9008 52.1134C39.6376 52.644 39.506 53.4315 39.506 54.476C39.506 55.5205 39.6376 56.3102 39.9008 56.845C40.1682 57.3797 40.563 57.6471 41.0853 57.6471Z" fill="white"></path></svg>