<svg xmlns="http://www.w3.org/2000/svg" width="108" height="62" viewBox="0 0 108 62" fill="none"><path d="M86.7266 56.8721C86.7266 55.3733 86.7266 53.8746 86.7266 52.3759C86.7266 51.9815 86.8449 51.8632 87.2393 51.8632C88.5802 51.8632 89.9212 51.7843 91.2622 51.8632C92.327 51.9421 93.2736 52.5337 94.023 53.3225C95.1273 54.4662 95.64 55.8466 95.4428 57.4242C95.2456 58.9229 94.4962 60.185 93.1553 61.0527C92.2876 61.6049 91.341 61.9204 90.2367 61.8415C89.2902 61.8021 88.3042 61.8415 87.3576 61.8415C86.8843 61.8415 86.7266 61.7232 86.7266 61.2105C86.7266 59.7512 86.7266 58.2919 86.7266 56.8326V56.8721ZM88.5408 56.7932C88.5408 57.7397 88.5408 58.6863 88.5408 59.5934C88.5408 59.7906 88.4619 60.0667 88.7774 60.0667C90.0001 60.0667 91.341 60.3428 92.3665 59.4357C92.8792 58.9624 93.2736 58.4102 93.4314 57.6609C93.6286 56.596 93.5102 55.6494 92.8398 54.7817C92.4454 54.269 91.8143 53.8746 91.2227 53.6774C90.6706 53.4802 90.079 53.4802 89.5268 53.4802C88.9746 53.4802 88.8958 53.4013 88.6986 53.4802C88.5014 53.5591 88.5408 53.9141 88.5408 54.0718C88.5408 54.9789 88.5408 55.8861 88.5408 56.8326V56.7932Z" fill="#E7F4FF"></path><path d="M46.9727 56.8327C46.9727 55.4129 46.9727 53.993 46.9727 52.6126C46.9727 51.8633 46.9727 51.8633 47.722 51.8633C49.0235 51.8633 50.3251 51.8633 51.6266 51.8633C52.7703 51.8633 53.5591 52.4549 54.1113 53.362C55.0184 54.8213 54.5057 56.5566 53.1253 57.3849C52.4943 57.7793 52.4548 58.0159 52.8492 58.6864C53.3619 59.5935 53.8352 60.5007 54.3479 61.4078C54.5846 61.8416 54.3479 61.881 54.0719 61.881C53.638 61.881 53.2436 61.881 52.8098 61.881C52.5731 61.881 52.4943 61.7233 52.4154 61.5655C52.021 60.9345 51.7055 60.3034 51.3899 59.633C51.2322 59.3174 51.0744 58.9625 50.9561 58.647C50.8378 58.3314 50.7589 57.9765 50.4039 57.9765C49.9307 57.9765 49.4574 57.8976 48.9841 57.9765C48.708 58.0554 48.7869 58.3314 48.7869 58.5286C48.7869 59.4752 48.7869 60.4218 48.7869 61.3683C48.7869 61.8416 48.6291 61.9205 48.2347 61.9205C46.7755 61.9205 47.0121 61.9205 47.0121 60.6978C47.0121 59.4358 47.0121 58.1737 47.0121 56.8722L46.9727 56.8327ZM48.8263 55.0579C48.8263 55.2551 48.8263 55.4523 48.8263 55.6101C48.8263 56.0834 48.7869 56.3594 49.3391 56.3594C50.0095 56.3594 50.7195 56.3594 51.3899 56.3594C52.3759 56.3594 53.0464 54.9396 52.5731 54.2691C52.1787 53.717 51.666 53.362 50.9167 53.4014C50.4434 53.4014 49.9701 53.4014 49.4968 53.4014C49.063 53.4014 48.8263 53.5986 48.8263 53.993C48.8263 54.348 48.8263 54.703 48.8263 55.0579Z" fill="#E7F4FF"></path><path d="M78.2461 56.7933C78.2461 55.334 78.2461 53.8747 78.2461 52.4154C78.2461 51.9816 78.4039 51.8633 78.7983 51.8633C80.6125 51.8633 82.4267 51.8633 84.241 51.8633C84.5959 51.8633 84.7143 52.021 84.6748 52.3366C84.6748 52.4943 84.6748 52.6126 84.6748 52.7704C84.6748 53.4014 84.5565 53.5198 83.9649 53.5198C82.9395 53.5198 81.8746 53.5198 80.8491 53.5198C80.0603 53.5198 80.0603 53.5198 80.0603 54.3086C80.0603 54.6241 80.0603 54.9396 80.0603 55.2157C80.0209 55.689 80.1787 55.8862 80.6914 55.8862C81.5196 55.8862 82.3479 55.8862 83.1761 55.8862C83.9255 55.8862 84.0043 56.0045 84.0043 56.7538C84.0043 56.8722 84.0043 56.9905 84.0043 57.1088C84.0438 57.5426 83.9255 57.7004 83.4522 57.661C82.5056 57.661 81.5196 57.661 80.5731 57.661C80.1787 57.661 80.0209 57.7793 80.0603 58.1737C80.0603 58.647 80.0603 59.1597 80.0603 59.6724C80.0603 60.2246 80.2181 60.3429 80.7703 60.3429C81.8746 60.3429 82.9789 60.3429 84.0832 60.3429C84.5171 60.3429 84.6748 60.5401 84.7143 61.0134C84.7143 61.9994 84.7143 61.9994 83.7283 61.9994C82.1112 61.9994 80.5336 61.9994 78.9166 61.9994C78.2461 61.9994 78.2461 61.9994 78.2461 61.3289C78.2461 59.8696 78.2461 58.4103 78.2461 56.951V56.7933Z" fill="#E7F4FF"></path><path d="M63.8101 61.8412C63.1791 62.0778 62.903 61.5651 62.7453 61.0524C62.5875 60.4213 62.1537 59.9875 61.4832 59.9875C60.4577 59.9875 59.4323 59.9875 58.4069 59.9875C57.6575 59.9875 57.6181 60.7369 57.342 61.2102C56.9476 61.8412 56.2377 61.999 55.5277 61.8018C55.3305 61.7229 55.2122 61.6834 55.37 61.3679C56.1588 59.7114 56.8293 58.0155 57.6575 56.3985C58.0519 55.6491 58.4069 54.8603 58.7618 54.1109C59.0773 53.401 59.3534 52.6122 59.7478 51.9812C60.0633 51.4685 60.3394 51.6657 60.5366 52.0995C61.0099 53.2038 61.5226 54.2687 61.9959 55.3336C62.5086 56.4379 63.0213 57.5817 63.5735 58.6465C64.0073 59.4748 64.2834 60.3819 64.7567 61.2102C64.9539 61.6046 64.8356 61.8018 64.3623 61.8018C64.2045 61.8018 64.0862 61.8018 63.8496 61.8018L63.8101 61.8412ZM60.0239 58.5282C60.3 58.5282 60.5761 58.5282 60.8521 58.5282C61.286 58.5282 61.5226 58.5282 61.3254 58.0155C61.1677 57.5422 60.931 57.0689 60.6944 56.5957C60.6155 56.4379 60.3 55.4519 60.1422 55.4519C59.7873 55.4519 59.6689 55.8463 59.5506 56.1224C59.314 56.6745 59.0379 57.1873 58.8013 57.7394C58.5646 58.2916 58.5646 58.5282 59.0773 58.5282C59.3929 58.5282 59.6689 58.5282 59.9845 58.5282H60.0239Z" fill="#E7F4FF"></path><path d="M20.1916 61.8407C20.0338 61.8407 19.9944 61.8407 19.955 61.8407C19.1267 61.8407 19.1662 61.8407 19.4817 60.973C19.955 59.6715 20.6649 58.4883 21.1776 57.2262C21.5326 56.3585 22.0058 55.4908 22.4002 54.6626C22.6369 54.1104 22.913 53.5977 23.1496 53.0455C23.3074 52.6906 23.4257 52.2962 23.6623 51.9807C23.899 51.6651 23.8595 51.7835 23.9778 51.7835C24.1356 51.7835 24.2934 51.8623 24.4117 51.9807C24.5694 52.1779 24.6483 52.4539 24.7666 52.6511C24.885 52.8483 25.0427 53.2822 25.2005 53.5977C25.5554 54.3865 25.871 55.1753 26.2259 55.9247C26.7386 56.9501 27.2514 57.9361 27.6852 58.9615C28.0007 59.7109 28.3557 60.4603 28.7106 61.2096C28.9078 61.604 28.7501 61.8012 28.3162 61.8012C28.1979 61.8012 28.0796 61.8012 27.9613 61.8012C26.8175 61.8012 27.1725 61.9195 26.6992 60.9335C26.2259 59.987 26.2654 59.9475 25.2794 59.9475C24.2934 59.9475 23.3074 59.9475 22.3214 59.9475C22.0058 59.9475 21.7692 59.9475 21.6509 60.3814C21.572 60.618 21.4142 60.8547 21.2959 61.1307C21.0593 61.6829 20.7438 61.959 20.231 61.8012L20.1916 61.8407ZM23.899 58.4883C24.0962 58.4883 24.2934 58.4883 24.53 58.4883C24.7666 58.4883 25.516 58.5671 25.3188 58.0544C24.9638 57.1867 24.53 56.3585 24.1356 55.5303C24.0173 55.2936 23.899 55.3331 23.7412 55.5303C23.4651 55.9641 23.3074 56.4374 23.1102 56.9107C22.9918 57.2262 22.1242 58.4883 22.913 58.4488C23.2285 58.4488 23.5834 58.4488 23.899 58.4488V58.4883Z" fill="#E7F4FF"></path><path d="M38.4912 56.7148C38.4912 55.2949 38.4912 53.8357 38.4912 52.4158C38.4912 51.982 38.6095 51.8242 39.0434 51.8242C40.3055 51.8242 41.5281 51.8242 42.7902 51.8242C43.579 51.8242 44.1706 52.4158 44.6044 52.9285C45.0777 53.4807 45.4327 54.1117 45.3932 54.9794C45.3143 56.3598 44.6044 57.2275 43.4607 57.8585C42.7113 58.2924 41.9225 58.0952 41.1337 58.1346C40.266 58.1346 40.266 58.1346 40.266 59.0023C40.266 59.7911 40.266 60.5405 40.266 61.3293C40.266 61.6842 40.1871 61.842 39.7927 61.8025C38.2151 61.8025 38.4912 61.842 38.4912 60.5405C38.4912 59.2389 38.4912 57.9374 38.4912 56.6753V56.7148ZM41.3703 53.4413C41.1731 53.4413 40.9759 53.4413 40.8182 53.4413C40.2266 53.4807 40.3055 53.9934 40.3055 54.4667C40.3055 54.94 40.3055 55.4527 40.3055 55.926C40.3055 56.5176 40.7787 56.4387 41.1731 56.3993C41.6859 56.3204 42.3563 56.5176 42.8296 56.2415C43.3029 55.9654 43.579 55.5316 43.579 55.1372C43.579 54.6245 43.4607 54.0329 42.9874 53.7568C42.5141 53.4807 41.9225 53.4018 41.3703 53.4018V53.4413Z" fill="#E7F4FF"></path><path d="M30.0117 56.7933C30.0117 55.4129 30.0117 54.0719 30.0117 52.6915C30.0117 52.1394 30.2878 51.8633 30.84 51.8633C31.8654 51.8633 32.8514 51.8633 33.8768 51.8633C34.9812 51.8633 35.6911 52.4154 36.3221 53.2437C36.756 53.8353 36.9926 54.5058 36.9137 55.2551C36.7954 56.2806 36.2827 56.9905 35.4939 57.5821C34.6262 58.292 33.6008 58.1737 32.6148 58.1737C31.826 58.1737 31.826 58.1737 31.826 58.9625C31.826 59.7513 31.826 60.5795 31.826 61.3683C31.826 61.7233 31.7471 61.881 31.3527 61.881C29.854 61.881 30.0512 61.9994 30.0512 60.619C30.0512 59.3569 30.0512 58.0948 30.0512 56.7933H30.0117ZM31.7865 54.979C31.7865 55.2946 31.7865 55.6495 31.7865 55.965C31.7865 56.2806 31.9443 56.4778 32.2992 56.4778C32.8514 56.4778 33.3641 56.4383 33.9163 56.3989C34.8234 56.3989 35.415 55.0974 34.9812 54.348C34.6656 53.7958 33.9952 53.5198 33.3641 53.4409C32.7331 53.362 31.7471 53.2831 31.7865 53.993C31.7865 54.3086 31.7865 54.6635 31.7865 54.979Z" fill="#E7F4FF"></path><path d="M73.2371 51.5863C74.0259 51.7835 74.933 51.8624 75.7612 52.4146C76.1162 52.6512 76.1951 52.8878 75.919 53.2428C75.2879 54.1105 75.2485 54.1105 74.1047 53.5189C73.4343 53.1639 72.8032 53.0456 72.1327 53.5189C71.7383 53.8344 71.6989 54.5838 72.0144 54.9782C72.4877 55.5303 73.0793 55.8064 73.7103 56.043C74.6963 56.4374 75.5246 56.9896 76.1162 57.8967C76.55 58.5672 76.4712 59.711 76.1162 60.4209C75.4851 61.6041 74.3808 61.9985 73.2765 61.9985C72.2116 61.9985 71.1073 61.7618 70.2002 61.0519C69.8058 60.7364 70.1213 60.1842 70.3579 59.8687C70.5946 59.5532 70.7918 59.4743 71.2651 59.711C71.8961 60.0659 72.5271 60.3814 73.3159 60.342C73.947 60.342 74.3019 59.9476 74.4991 59.4743C74.6569 59.0405 74.3414 58.6855 74.1047 58.37C73.6315 57.7784 72.8821 57.6206 72.2511 57.2657C71.5017 56.8713 70.7129 56.4374 70.3185 55.6092C69.6875 54.3471 70.003 52.8878 71.1862 52.1385C71.7383 51.7835 72.4088 51.5469 73.2765 51.5469L73.2371 51.5863Z" fill="#E7F4FF"></path><path d="M67.8728 56.8327C67.8728 58.3314 67.8728 59.8302 67.8728 61.3289C67.8728 61.7233 67.7545 61.8416 67.3601 61.8416C66.0586 61.8416 66.0586 61.8416 66.0586 60.619C66.0586 57.937 66.0586 55.2157 66.0586 52.5338C66.0586 51.8633 66.0586 51.8633 66.6896 51.8633C67.4521 51.8633 67.8334 52.2314 67.8334 52.9676C67.8334 54.2691 67.8334 55.5312 67.8334 56.8327H67.8728Z" fill="#E7F4FF"></path><path d="M66.1762 41.2933C66.2945 40.6228 66.4128 39.9523 66.5311 39.2819C66.5706 39.0058 66.6494 37.5859 66.965 37.5859C67.0833 37.5859 67.1227 37.5859 67.1622 37.7437C67.5566 38.6114 67.951 39.4791 68.3059 40.3467C68.5031 40.8595 68.7003 41.4116 68.8975 41.9243C69.0947 42.4371 69.0947 42.4765 69.213 42.7526C69.3314 43.0287 69.2919 43.3047 69.568 43.3047C69.8441 43.3047 69.8441 43.2259 69.923 43.1075C70.0807 42.8709 70.1596 42.5159 70.3174 42.2399C70.4751 41.9243 70.6329 41.6088 70.7512 41.2933C70.9878 40.7411 71.2245 40.1495 71.4611 39.5579C71.6978 38.9663 71.8555 38.3747 72.1316 37.862C72.2105 37.7437 72.1316 37.5859 72.3682 37.5859C72.6443 37.5859 72.6838 37.8226 72.6838 38.0592C72.6838 38.4142 72.7626 38.7691 72.8021 39.1241C72.9993 40.2284 73.157 41.2933 73.3937 42.3976C73.5514 43.2259 73.7092 44.0935 73.8275 44.9218C73.8275 45.0795 74.0642 45.2373 73.7092 45.3556C73.3937 45.4345 73.157 45.4345 72.9993 45.119C72.8415 44.8035 72.881 44.8035 72.881 44.6457C72.7626 43.9358 72.6443 43.2653 72.5654 42.5554C72.4866 41.8455 72.4077 41.2933 72.1316 40.7017C72.0922 40.5834 72.1316 40.4256 71.9344 40.4256C71.6189 40.4256 71.54 41.0567 71.5006 41.2539C71.3428 41.7271 71.1456 42.2004 70.9484 42.6737C70.7512 43.147 70.4751 43.9358 70.2385 44.5668C70.1202 44.9218 69.8441 45.9867 69.4102 45.2373C69.0158 44.5668 68.8186 43.8175 68.5426 43.1075C68.227 42.3187 67.8326 41.5694 67.596 40.7411C67.596 40.7017 67.596 40.6228 67.5171 40.5834C67.4382 40.5045 67.2805 40.4651 67.2016 40.5439C67.1227 40.6228 67.0438 40.7017 67.0044 40.82C66.9255 41.175 66.9255 41.5299 66.8466 41.9243C66.7678 42.3582 66.6494 42.792 66.61 43.2653C66.61 43.9358 66.3734 44.5668 66.2945 45.1979C66.2945 45.5134 66.0184 45.3951 65.8606 45.4345C65.3085 45.4345 65.4268 45.0401 65.5057 44.6063C65.5846 44.1724 65.7423 43.4625 65.8606 42.8709C65.9395 42.3976 66.0578 41.8849 66.1367 41.4116L66.1762 41.2933Z" fill="#E7F4FF" stroke="#E7F4FF" stroke-width="1.09646" stroke-miterlimit="10" stroke-linecap="square"></path><path d="M24.4496 41.5652C24.4496 40.5004 24.4496 39.396 24.4496 38.3312C24.4496 37.8579 24.6074 37.7001 25.0412 37.7001C26.1061 37.7001 27.171 37.6212 28.1964 37.8579C29.0641 38.0945 29.6951 38.6467 30.2078 39.396C31.2333 40.8553 30.8783 43.2217 29.6557 44.3655C29.0246 44.9571 28.3147 45.3515 27.4076 45.312C26.5399 45.312 25.7117 45.312 24.844 45.312C24.489 45.312 24.4102 45.1937 24.4102 44.8782C24.4102 43.7739 24.4102 42.6696 24.4102 41.5652H24.4496ZM25.2778 41.5258C25.2778 42.354 25.2778 43.1823 25.2778 44.0105C25.2778 44.326 25.3962 44.4838 25.6722 44.5232C26.6582 44.681 27.6442 44.681 28.4725 44.05C29.6557 43.1823 30.1684 42.1174 29.6951 40.6581C29.4585 39.9088 29.0641 39.3566 28.3936 38.9622C27.5259 38.4889 26.5794 38.4889 25.6722 38.5284C25.3173 38.5284 25.2778 38.8044 25.2778 39.0805C25.2778 39.9088 25.2778 40.737 25.2778 41.5652V41.5258Z" fill="#E7F4FF" stroke="#E7F4FF" stroke-width="1.09646" stroke-miterlimit="10" stroke-linecap="square"></path><path d="M32.8125 41.5647C32.8125 40.5393 32.8125 39.5138 32.8125 38.449C32.8125 37.8179 32.9308 37.6996 33.6013 37.6602C34.7451 37.6602 35.8494 37.6602 36.9931 37.6602C37.3481 37.6602 37.4664 37.8179 37.4664 38.094C37.4664 38.3701 37.3087 38.5278 37.0326 38.5278C36.2043 38.5278 35.3761 38.5278 34.5479 38.5278C33.7985 38.5278 33.7985 38.5278 33.7985 39.2772C33.7985 39.5533 33.7985 39.8294 33.7985 40.1054C33.7985 40.4604 33.7196 40.8942 34.1535 41.0126C34.8239 41.2098 35.6522 41.0914 36.3227 41.052C36.441 41.052 36.5987 41.052 36.7171 41.0914C37.072 41.2492 37.0326 41.6042 36.7171 41.7225C36.5987 41.7225 36.441 41.7225 36.3227 41.7225C35.6916 41.7225 34.9817 41.6436 34.3507 41.7225C33.7196 41.8014 33.8379 42.0774 33.8379 42.5113C33.8379 42.9451 33.8774 43.4184 33.8379 43.8522C33.7591 44.365 34.0746 44.5227 34.469 44.5622C35.3367 44.5622 36.2043 44.6016 37.072 44.5227C37.427 44.5227 37.5059 44.5227 37.5453 44.8382C37.5847 45.1538 37.5453 45.3115 37.1509 45.3115C35.9283 45.3115 34.7056 45.3115 33.483 45.3115C33.0491 45.3115 32.8914 45.1538 32.8914 44.7199C32.8914 43.655 32.8914 42.5902 32.8914 41.5647H32.8125Z" fill="#E7F4FF" stroke="#E7F4FF" stroke-width="1.09646" stroke-miterlimit="10" stroke-linecap="square"></path><path d="M39.0452 37.6996C39.2424 37.6996 39.4791 37.7785 39.6368 38.1729C40.0707 39.2772 40.544 40.3421 41.0172 41.407C41.2539 41.9591 41.53 42.5113 41.8455 43.0634C42.0032 43.3001 42.2004 43.4578 42.3976 43.0634C42.792 42.0774 43.2259 41.1309 43.6597 40.1843C43.8964 39.711 44.0936 39.1983 44.3302 38.725C44.5668 38.2518 44.6063 37.8574 45.0796 37.739C45.2768 37.6996 45.474 37.6207 45.6712 37.8574C45.8289 38.0546 45.4345 38.5673 45.3556 38.725C44.9612 39.5533 44.5668 40.3421 44.2513 41.1703C43.6992 42.5507 42.9498 43.7734 42.4371 45.1538C42.3976 45.2721 42.3582 45.4298 42.161 45.4298C42.0032 45.4298 42.0032 45.3115 41.9244 45.1932C40.82 42.8662 39.7552 40.5393 38.6903 38.1729C38.4931 37.6996 38.4931 37.6602 39.1241 37.6602L39.0452 37.6996Z" fill="#E7F4FF" stroke="#E7F4FF" stroke-width="1.09646" stroke-miterlimit="10" stroke-linecap="square"></path><path d="M85.6227 37.8163C87.0425 37.6191 87.9891 38.9206 87.8313 39.9066C87.7525 40.3799 87.5158 40.8137 87.1609 41.1687C86.8848 41.4448 86.7665 41.6025 87.1609 41.8392C87.2792 41.8786 87.3581 42.0364 87.4369 42.1152C88.5018 43.259 87.9891 44.7577 86.8453 45.231C85.8593 45.6254 84.7156 45.6254 83.7296 44.9155C83.5718 44.7972 83.2563 44.5605 83.4535 44.2844C83.6507 44.0478 84.0451 44.0872 84.2817 44.2844C84.6761 44.6394 85.11 44.7183 85.6227 44.7577C85.9382 44.7972 86.1354 44.6788 86.3721 44.5605C87.0031 44.245 87.2003 43.7717 87.082 43.1407C86.9637 42.5885 86.5298 42.2336 86.0171 42.0758C85.7016 41.9969 85.3466 41.8392 84.9917 41.918C84.7945 41.9575 84.4789 41.918 84.5184 41.6025C84.5184 41.3659 84.5973 41.1292 84.9917 41.1687C85.5438 41.2081 86.0565 41.2476 86.5693 40.7743C87.1214 40.2221 87.0425 39.4728 86.6481 39.0784C85.9382 38.4079 85.0705 38.4868 84.3606 38.9995C84.1634 39.1572 84.0845 39.4333 83.8479 38.9995C83.6901 38.7234 83.6901 38.5262 83.9662 38.3684C84.4789 38.0924 84.9522 37.6191 85.5833 37.8163H85.6227Z" fill="#E7F4FF" stroke="#E7F4FF" stroke-width="1.09646" stroke-miterlimit="10" stroke-linecap="square"></path><path d="M75.8422 41.5244C75.8422 40.4595 75.8422 39.3552 75.8422 38.2903C75.8422 38.0142 75.8027 37.6987 76.1577 37.6593C76.6704 37.6198 76.7887 37.7382 76.7887 38.2903C76.7887 40.1046 76.7887 41.9582 76.7887 43.7725C76.7887 44.1669 76.9465 44.5613 77.3803 44.5613C77.8142 44.5613 78.6424 44.443 79.2734 44.4035C79.3918 44.4035 79.5495 44.4035 79.6678 44.4035C79.9439 44.4824 80.0622 44.719 80.1017 44.9557C80.1017 45.3106 79.8256 45.2318 79.5495 45.2318C78.4846 45.2318 77.4198 45.2318 76.3549 45.2318C75.921 45.2318 75.7633 45.1529 75.8027 44.6796C75.8027 43.6147 75.8027 42.5104 75.8027 41.4455L75.8422 41.5244Z" fill="#E7F4FF" stroke="#E7F4FF" stroke-width="1.09646" stroke-miterlimit="10" stroke-linecap="square"></path><path d="M55.1743 41.5668C55.1743 39.4371 55.1743 37.3467 55.1743 35.217C55.1743 35.0592 55.1743 34.9409 55.1743 34.7831C55.1743 34.5859 55.3321 34.5859 55.4504 34.5859C55.5687 34.5859 55.687 34.5859 55.687 34.7831C55.687 34.9409 55.687 35.0987 55.687 35.2959C55.687 39.5159 55.687 43.6966 55.687 47.9167C55.687 47.9955 55.687 48.0744 55.687 48.1139C55.687 48.3505 55.7265 48.7055 55.3715 48.7055C54.9771 48.7055 55.1743 48.3505 55.1743 48.1533C55.1743 45.9841 55.1743 43.7755 55.1743 41.6063V41.5668Z" fill="#E7F4FF" stroke="#E7F4FF" stroke-width="1.09646" stroke-miterlimit="10" stroke-linecap="square"></path><path d="M93.0364 29.2228C92.287 29.2228 91.4982 29.2228 90.7489 29.2228C90.0389 29.2228 89.8023 28.7101 89.7629 28.079C89.684 27.1325 89.4868 26.1465 89.3685 25.1999C89.1318 23.6223 88.8952 22.0053 88.6585 20.4277C88.4219 18.8501 88.4219 18.8106 88.3036 17.9824C88.1853 17.1541 88.2641 16.1287 87.9092 16.0893C87.7514 16.0893 87.5937 16.247 87.5148 16.4048C86.8837 17.4697 86.4105 18.574 85.7794 19.6783C84.9117 21.2559 84.1229 22.9124 83.2947 24.5689C82.5848 25.9887 81.796 27.3297 81.1255 28.7889C80.8494 29.3411 80.455 29.6961 79.7845 29.6961C79.1535 29.6961 78.838 29.3411 78.5619 28.8284C77.6548 27.2508 76.9449 25.5943 76.0377 24.0167C75.525 23.1096 75.0912 22.163 74.6179 21.2559C74.1052 20.3093 73.5925 19.3628 73.1192 18.3768C72.7642 17.7063 72.4487 16.9964 72.0148 16.3653C71.6204 15.7343 71.581 16.6809 71.5416 16.9569C71.4627 17.7852 71.2655 18.574 71.1866 19.4022C70.95 21.3348 70.6739 23.2279 70.3978 25.1605C70.1217 27.093 70.1217 27.0536 69.964 28.0001C69.8062 28.9467 69.964 28.8284 69.6484 29.065C69.3329 29.3017 69.0174 29.3017 68.7413 29.3017C67.282 29.3017 65.8228 29.3017 64.3635 29.3017C63.7324 29.3017 63.5352 29.0256 63.6141 28.3945C63.8508 25.6732 64.4818 22.9124 64.9551 20.2305C65.4284 17.4302 65.9016 14.63 66.3749 11.8297C66.3749 11.0015 66.6904 10.0549 66.8088 9.2267C66.9665 8.31958 67.1243 7.37302 67.282 6.4659C67.5581 4.73054 67.9525 2.95574 68.1497 1.18094C68.1892 0.747096 68.4258 0.313254 68.978 0.273814C69.6879 0.194934 70.0823 0.273814 70.3584 0.865415C71.6993 3.27126 72.9614 5.71654 74.2629 8.12238C74.9728 9.46334 75.7222 10.8043 76.4716 12.1058C77.5365 13.9989 78.5225 15.9709 79.5479 17.9035C79.6268 18.0613 79.6662 18.219 79.9029 18.219C80.1395 18.219 80.1789 18.1007 80.2578 17.9035C81.5593 15.4582 82.8609 13.0129 84.2018 10.5677C85.0695 9.0295 85.8583 7.4519 86.726 5.91374C87.6331 4.25726 88.5008 2.56134 89.3685 0.904856C89.684 0.313255 90.0784 0.234375 90.6305 0.234375C91.301 0.234375 91.6165 0.707655 91.656 1.22038C91.7743 2.56134 92.0898 3.9023 92.3265 5.20382C92.5631 6.54478 92.7603 7.88574 92.9969 9.2267C93.4702 12.0269 93.9435 14.8272 94.4168 17.6274C94.7323 19.4811 95.0478 21.3348 95.3633 23.1885C95.6789 25.0421 95.6789 25.0421 95.8366 25.9493C95.9944 26.8564 95.9944 27.7241 96.2705 28.5129C96.3888 28.9073 95.9944 29.3411 95.5605 29.3411C94.7717 29.3411 93.9829 29.3411 93.1941 29.3411L93.0364 29.2228Z" fill="#E7F4FF"></path><path d="M57.1886 29.2251C56.3998 29.2251 55.611 29.2251 54.8222 29.2251C54.4278 29.2251 54.2306 29.0673 54.0729 28.7123C53.8757 28.1996 53.8362 27.6474 53.7573 27.0953C53.4418 25.3599 53.2841 23.5851 53.008 21.8103C53.008 20.706 52.6925 19.5228 52.5347 18.4579C52.4558 17.8663 52.3769 17.2747 52.2981 16.6831C52.2981 16.5254 52.2981 16.1704 52.1403 16.0521C51.9826 15.9338 51.8248 16.0521 51.7459 16.2098C51.036 17.8269 50.1683 19.365 49.3401 20.9821C48.4724 22.678 47.5653 24.3739 46.6581 26.0304C46.1454 26.977 45.6327 27.9235 45.1594 28.8701C44.9228 29.3828 44.5678 29.6589 43.9762 29.6195C43.4635 29.6195 43.1085 29.4617 42.793 28.9095C41.6098 26.7798 40.5449 24.5711 39.3617 22.4019C38.7701 21.337 38.218 20.1933 37.6658 19.089C37.1137 17.9846 37.0742 17.9452 36.7981 17.393C36.5221 16.8409 36.2854 16.131 36.0093 16.131C35.6544 16.131 35.6544 16.4859 35.6544 16.7226C35.6544 17.7086 35.3389 18.6551 35.26 19.6411C35.1417 20.9032 34.905 22.1258 34.7473 23.3879C34.6289 24.5317 34.3134 25.6754 34.2345 26.8192C34.2345 27.4108 34.0373 28.0024 33.8796 28.594C33.8007 28.949 33.5641 29.1462 33.1697 29.1462C31.5526 29.1462 29.9356 29.1462 28.3185 29.1462C27.8453 29.1462 27.6875 28.9095 27.6875 28.5151C27.6875 28.1996 27.6875 27.8841 27.7269 27.608C28.003 26.6615 28.003 25.6754 28.2397 24.6894C28.4369 23.7823 28.5157 22.8358 28.6735 21.9286C28.8313 21.0215 28.989 20.075 29.1468 19.1678C29.344 18.0241 29.4623 16.8803 29.7384 15.776C30.8033 10.9249 31.3949 5.95544 32.2625 1.02544C32.3809 0.31552 32.6964 0.03944 33.2485 0C33.6824 0 34.4317 0.3944 34.5895 0.82824C35.1811 2.24808 36.0093 3.5496 36.7587 4.89056C37.4686 6.15264 38.0997 7.45416 38.8096 8.75568C39.7956 10.5699 40.7421 12.3842 41.7281 14.1984C42.3592 15.3027 42.9508 16.407 43.5029 17.5508C43.5818 17.748 43.7001 17.9058 43.8185 18.0635C43.9368 18.2213 44.0551 18.2213 44.1734 18.0241C45.0411 16.407 45.9482 14.79 46.7765 13.1335C47.4469 11.7926 48.2358 10.491 48.9062 9.11064C49.8922 7.17808 50.9965 5.28496 52.022 3.3524C52.4953 2.44528 53.008 1.5776 53.4418 0.63104C53.639 0.157759 54.349 -0.0788812 54.98 0.0788788C55.4533 0.197199 55.5716 0.55216 55.6899 1.02544C56.0054 2.28752 56.1237 3.66792 56.3209 4.96944C56.5576 6.38928 56.7942 7.76968 57.0309 9.18952C57.938 14.6322 58.7662 20.1538 59.8311 25.5966C59.9889 26.4643 60.1466 27.3714 60.2255 28.2391C60.3044 28.9095 60.0678 29.1067 59.3973 29.1067C58.6479 29.1067 57.8591 29.1067 57.1097 29.1067L57.1886 29.2251Z" fill="#E7F4FF"></path><path d="M14.4702 0.15625C15.8111 0.15625 17.3493 0.19569 18.848 0.62953C20.7806 1.14225 22.5159 2.08881 24.0541 3.35089C25.5528 4.57353 25.2767 4.45521 24.2513 5.67785C23.5019 6.58497 22.6343 7.33433 21.806 8.20201C21.4116 8.59641 20.9778 8.55697 20.5439 8.28089C19.5579 7.61041 18.6114 6.97937 17.4676 6.66385C15.7717 6.19057 14.1547 6.23001 12.4982 6.78217C10.6051 7.41321 9.22466 8.59641 8.23866 10.2923C7.0949 12.2643 6.66106 14.3547 7.17378 16.6816C7.64706 18.7719 8.71194 20.5073 10.3684 21.7694C11.3544 22.5187 12.5376 22.992 13.8391 23.1103C14.8646 23.2287 15.89 23.1892 16.9155 23.0709C17.6648 22.9526 18.3747 22.6371 19.0847 22.3215C19.7157 22.0455 20.2284 21.5327 20.8595 21.2567C21.1355 21.1383 21.3327 21.0989 21.5299 21.2961C22.7131 22.4004 23.778 23.6625 24.8823 24.8457C25.1584 25.1218 25.0401 25.5162 24.764 25.7923C23.9358 26.6994 22.9498 27.3699 21.8455 27.9615C21.3722 28.2375 20.8989 28.4742 20.3862 28.6714C19.0452 29.2235 17.6648 29.6968 16.1661 29.6179C15.2984 29.6179 14.4702 29.7363 13.6025 29.6179C12.4587 29.5391 11.3939 29.3024 10.2895 28.9869C7.8837 28.3164 5.87226 26.936 4.17634 25.2401C2.48042 23.5442 1.29722 21.5327 0.626739 19.1663C0.0745786 17.2732 -0.122622 15.3801 0.074578 13.4475C0.232338 11.7516 0.705618 10.0951 1.45498 8.55697C2.20434 6.97937 3.30866 5.67785 4.45242 4.37633C5.08346 3.66641 5.9117 3.07481 6.7005 2.56209C7.80482 1.85217 9.02746 1.33945 10.2895 0.905611C11.6305 0.471771 12.932 0.274571 14.4702 0.195691V0.15625Z" fill="#E7F4FF"></path><path d="M107.553 14.9468C107.553 19.2457 107.553 23.5052 107.553 27.8042C107.553 28.0409 107.553 28.3169 107.553 28.5536C107.553 28.948 107.316 29.2241 106.882 29.2241C105.226 29.2241 103.569 29.2241 101.913 29.2241C101.518 29.2241 101.361 29.0269 101.282 28.7113C101.242 28.4747 101.242 28.1986 101.242 27.962C101.242 19.2852 101.242 10.6084 101.242 1.93156C101.242 1.1822 101.321 0.511719 102.228 0.511719C103.569 0.511719 104.95 0.630039 106.291 0.630039C107 0.630039 107.592 0.827239 107.592 1.61604C107.592 6.07276 107.592 10.49 107.592 14.9468H107.553Z" fill="#E7F4FF"></path></svg>