<svg xmlns="http://www.w3.org/2000/svg" width="150" height="62" viewBox="0 0 150 62" fill="none"><path d="M143.606 9.83673H149.487C149.551 9.83673 149.583 9.80488 149.583 9.74109V4.33881C149.583 2.98825 149.115 1.93545 148.169 1.19105C147.243 0.467911 145.924 0.0638061 144.213 0C144.148 0 144.117 0.031903 144.117 0.0957092V2.08433C144.117 2.14814 144.148 2.18004 144.213 2.18004C145.074 2.22258 145.733 2.41399 146.191 2.74366C146.647 3.07333 146.881 3.60504 146.881 4.33881H143.606C143.542 4.33881 143.51 4.37072 143.51 4.43452V9.74109C143.51 9.80488 143.542 9.83673 143.606 9.83673ZM133.035 13.9203V8.3905H135.864C136.353 8.3905 136.747 8.53938 137.034 8.83717C137.321 9.13493 137.47 9.53897 137.47 10.0601V12.2507C137.47 12.7612 137.321 13.1759 137.034 13.4737C136.747 13.7715 136.353 13.9203 135.864 13.9203H133.035ZM139.406 15.7813C140.267 15.4411 140.905 14.92 141.33 14.2181C141.756 13.5268 141.969 12.6017 141.969 11.4745V9.86867C141.969 8.17781 141.458 6.82725 140.437 5.83826C139.416 4.83863 138.045 4.33881 136.311 4.33881H128.729C128.602 4.33881 128.537 4.40261 128.537 4.53023V26.639C128.537 26.7667 128.602 26.8305 128.729 26.8305H132.844C132.972 26.8305 133.035 26.7667 133.035 26.639V17.7062H135.024C135.78 17.7062 136.322 17.9082 136.683 18.3017C137.034 18.6952 137.215 19.312 137.215 20.152V26.6496C137.215 26.7772 137.279 26.8411 137.407 26.8411H141.522C141.65 26.8411 141.713 26.7772 141.713 26.6496V20.152C141.713 18.9504 141.532 17.9933 141.171 17.2702C140.809 16.5577 140.214 16.0579 139.406 15.7813ZM116.903 19.4502V11.7403C116.903 10.411 117.116 9.43268 117.531 8.81588C117.946 8.19908 118.594 7.88005 119.477 7.88005C120.36 7.88005 121.008 8.18845 121.423 8.81588C121.838 9.43268 122.051 10.411 122.051 11.7403V19.4502C122.051 20.7795 121.838 21.7579 121.423 22.3747C121.008 22.9915 120.36 23.3105 119.477 23.3105C118.594 23.3105 117.946 23.0021 117.531 22.3747C117.106 21.7472 116.903 20.7795 116.903 19.4502ZM119.477 27.224C121.773 27.224 123.529 26.5752 124.763 25.2672C125.996 23.9592 126.612 22.0876 126.612 19.6416V11.5383C126.612 9.09234 125.996 7.22072 124.763 5.9127C123.529 4.60467 121.763 3.95598 119.477 3.95598C117.18 3.95598 115.425 4.60467 114.191 5.9127C112.958 7.22072 112.341 9.09234 112.341 11.5383V19.6416C112.341 22.0876 112.958 23.9592 114.191 25.2672C115.414 26.5752 117.18 27.224 119.477 27.224ZM100.835 19.4502V11.7403C100.835 10.411 101.047 9.43268 101.462 8.81588C101.877 8.19908 102.526 7.88005 103.408 7.88005C104.291 7.88005 104.939 8.18845 105.355 8.81588C105.769 9.43268 105.982 10.411 105.982 11.7403V19.4502C105.982 20.7795 105.769 21.7579 105.355 22.3747C104.939 22.9915 104.291 23.3105 103.408 23.3105C102.526 23.3105 101.877 23.0021 101.462 22.3747C101.037 21.7472 100.835 20.7795 100.835 19.4502ZM103.398 27.224C105.695 27.224 107.45 26.5752 108.683 25.2672C109.917 23.9592 110.534 22.0876 110.534 19.6416V11.5383C110.534 9.09234 109.917 7.22072 108.683 5.9127C107.45 4.60467 105.684 3.95598 103.398 3.95598C101.1 3.95598 99.3458 4.60467 98.1122 5.9127C96.8785 7.22072 96.2617 9.09234 96.2617 11.5383V19.6416C96.2617 22.0876 96.8785 23.9592 98.1122 25.2672C99.3458 26.5752 101.112 27.224 103.398 27.224ZM85.2768 22.7894V8.3905H86.8825C87.8928 8.3905 88.6585 8.7308 89.1794 9.42204C89.7003 10.1133 89.9669 11.0916 89.9669 12.3784V18.8121C89.9669 20.0989 89.7003 21.0879 89.1794 21.7685C88.6585 22.4597 87.8928 22.8 86.8825 22.8H85.2768V22.7894ZM80.9699 26.8411H87.074C89.4777 26.8411 91.3167 26.1712 92.604 24.8205C93.8904 23.47 94.5283 21.5345 94.5283 19.0036V12.1869C94.5283 9.656 93.8904 7.72053 92.604 6.36997C91.3167 5.01941 89.4777 4.34945 87.074 4.34945H80.9699C80.8423 4.34945 80.7784 4.41325 80.7784 4.54086V26.6496C80.7784 26.7772 80.8423 26.8411 80.9699 26.8411ZM79.0345 11.7297V10.092C79.0345 8.12464 78.4708 6.60393 77.3329 5.54049C76.195 4.47706 74.568 3.94534 72.4518 3.94534C70.3568 3.94534 68.7404 4.45579 67.6131 5.48732C66.4859 6.51885 65.9223 7.98639 65.9223 9.88997C65.9223 11.1554 66.1669 12.2507 66.6454 13.1653C67.124 14.0905 67.7195 14.8349 68.4108 15.4198C69.102 15.9941 69.9953 16.6215 71.0587 17.2808C72.3029 18.0359 73.2175 18.6845 73.7917 19.2376C74.366 19.7905 74.6638 20.4817 74.6638 21.2899C74.6638 21.9067 74.4723 22.4066 74.1001 22.7894C73.7279 23.1616 73.2281 23.353 72.6007 23.353C71.9413 23.353 71.4096 23.1404 71.0055 22.7256C70.6121 22.3109 70.41 21.7472 70.41 21.0348V19.1737C70.41 19.0461 70.3462 18.9823 70.2186 18.9823H66.1669C66.0393 18.9823 65.9755 19.0461 65.9755 19.1737V21.056C65.9755 23.0233 66.5497 24.5441 67.6982 25.6181C68.8467 26.6922 70.4738 27.224 72.6007 27.224C74.6956 27.224 76.3227 26.7028 77.4499 25.6606C78.5878 24.6185 79.1514 23.151 79.1514 21.2368C79.1514 19.9287 78.8962 18.8121 78.3964 17.8976C77.8966 16.9724 77.2904 16.228 76.5779 15.6431C75.8761 15.0689 74.9615 14.4308 73.8449 13.7502C72.6432 12.9951 71.7712 12.3571 71.2288 11.8254C70.6865 11.2937 70.41 10.6237 70.41 9.83673C70.41 9.22001 70.5908 8.72016 70.9523 8.35859C71.3139 7.99702 71.8138 7.81624 72.4305 7.81624C73.0899 7.81624 73.6216 8.01829 74.0044 8.4224C74.3872 8.82652 74.5787 9.3901 74.5787 10.092V11.7297C74.5787 11.8573 74.6425 11.9211 74.77 11.9211H78.8218C78.9707 11.9211 79.0345 11.8573 79.0345 11.7297ZM64.5718 11.7297V10.092C64.5718 8.12464 64.0081 6.60393 62.8702 5.54049C61.7323 4.47706 60.1053 3.94534 57.9891 3.94534C55.8835 3.94534 54.2777 4.45579 53.1504 5.48732C52.0232 6.51885 51.4596 7.98639 51.4596 9.88997C51.4596 11.1554 51.7042 12.2507 52.1827 13.1653C52.6613 14.0905 53.2568 14.8349 53.948 15.4198C54.6393 15.9941 55.5326 16.6215 56.596 17.2808C57.8402 18.0359 58.7548 18.6845 59.329 19.2376C59.9033 19.7905 60.201 20.4817 60.201 21.2899C60.201 21.9067 60.0096 22.4066 59.6374 22.7894C59.2652 23.1616 58.7654 23.353 58.1379 23.353C57.4786 23.353 56.9469 23.1404 56.5428 22.7256C56.1494 22.3109 55.9473 21.7472 55.9473 21.0348V19.1737C55.9473 19.0461 55.8835 18.9823 55.7559 18.9823H51.7042C51.5765 18.9823 51.5128 19.0461 51.5128 19.1737V21.056C51.5128 23.0233 52.087 24.5441 53.2355 25.6181C54.384 26.6922 56.0111 27.224 58.1379 27.224C60.2329 27.224 61.86 26.7028 62.9872 25.6606C64.1251 24.6185 64.6887 23.151 64.6887 21.2368C64.6887 19.9287 64.4335 18.8121 63.9337 17.8976C63.4339 16.9724 62.8277 16.228 62.1152 15.6431C61.4134 15.0689 60.4988 14.4308 59.3822 13.7502C58.1805 12.9951 57.3085 12.3571 56.7661 11.8254C56.2238 11.2937 55.9473 10.6237 55.9473 9.83673C55.9473 9.22001 56.1281 8.72016 56.4896 8.35859C56.8512 7.99702 57.351 7.81624 57.9678 7.81624C58.6272 7.81624 59.1589 8.01829 59.5417 8.4224C59.9245 8.82652 60.116 9.3901 60.116 10.092V11.7297C60.116 11.8573 60.1797 11.9211 60.3073 11.9211H64.3591C64.508 11.9211 64.5718 11.8573 64.5718 11.7297ZM41.6547 19.3864L43.3562 11.2192L45.0577 19.3864H41.6547ZM40.1446 26.6496L40.889 23.0446H45.834L46.5785 26.6496C46.621 26.7772 46.6954 26.8411 46.8018 26.8411H50.9172C51.0661 26.8411 51.1193 26.7667 51.0768 26.6178L45.7383 4.53023C45.717 4.40261 45.6426 4.33881 45.515 4.33881H41.2719C41.1655 4.33881 41.0911 4.40261 41.0486 4.53023L35.7101 26.6071C35.6675 26.756 35.7208 26.8305 35.8697 26.8305H39.9213C40.0489 26.8411 40.1234 26.7772 40.1446 26.6496ZM23.821 26.8411H34.4872C34.6148 26.8411 34.6786 26.7772 34.6786 26.6496V22.9808C34.6786 22.8532 34.6148 22.7894 34.4872 22.7894H28.1279V4.53023C28.1279 4.40261 28.064 4.33881 27.9364 4.33881H23.821C23.6933 4.33881 23.6295 4.40261 23.6295 4.53023V26.639C23.6295 26.7772 23.6933 26.8411 23.821 26.8411ZM14.686 27.224C16.9192 27.224 18.6526 26.6178 19.8969 25.4055C21.141 24.1931 21.7579 22.481 21.7579 20.2797V14.1118C21.7579 13.9841 21.6941 13.9203 21.5665 13.9203H14.8136C14.686 13.9203 14.6222 13.9841 14.6222 14.1118V17.5147C14.6222 17.6424 14.686 17.7062 14.8136 17.7062H17.1958V20.0882C17.1958 22.2364 16.3556 23.2999 14.686 23.2999C13.8034 23.2999 13.1547 22.9915 12.74 22.364C12.3252 21.7472 12.1125 20.7689 12.1125 19.4396V11.7297C12.1125 10.4004 12.3252 9.42204 12.74 8.80523C13.1547 8.18845 13.8034 7.86941 14.686 7.86941C16.3556 7.86941 17.1958 8.94346 17.1958 11.081V11.5276C17.1958 11.6552 17.2596 11.719 17.3871 11.719H21.5027C21.6303 11.719 21.6941 11.6552 21.6941 11.5276V10.8895C21.6941 8.67763 21.0879 6.97613 19.8649 5.76382C18.642 4.5515 16.9192 3.94534 14.686 3.94534C12.3465 3.94534 10.5812 4.5834 9.36889 5.87016C8.15654 7.16754 7.55039 9.04984 7.55039 11.5383V14.1756V19.6416C7.55039 22.0876 8.16718 23.9592 9.40074 25.2672C10.6344 26.5752 12.3996 27.224 14.686 27.224ZM5.97651 4.33881H0.0957092C0.031903 4.33881 0 4.37072 0 4.43452V9.74109C0 9.80488 0.031903 9.83673 0.0957092 9.83673H3.37108C3.37108 10.5706 3.13714 11.0916 2.67985 11.4319C2.22258 11.7616 1.56324 11.953 0.701867 11.9956C0.638061 11.9956 0.606157 12.0274 0.606157 12.0912V14.0799C0.606157 14.1437 0.638061 14.1756 0.701867 14.1756C2.414 14.1118 3.73265 13.7183 4.65785 12.9846C5.6043 12.2295 6.07221 11.1873 6.07221 9.83673V4.43452C6.07221 4.37072 6.04031 4.33881 5.97651 4.33881Z" fill="white"></path><path d="M144.434 24.9828V24.5234H146.508V24.9828H145.751V26.9278H145.229V24.9828H144.434ZM146.939 26.9278V24.5234H147.512L148.141 26.4152L148.769 24.5234H149.336V26.9278H148.891V25.5336L148.386 26.9278H147.903L147.398 25.5263V26.9278H146.939Z" fill="white"></path><rect x="134.512" y="41.543" width="15.0722" height="15.0722" rx="1.96819" fill="white" fill-opacity="0.6"></rect><rect x="134.512" y="41.543" width="11.3042" height="15.0722" rx="1.96819" fill="white"></rect><path d="M138.285 55.3571L139.361 50.7123L135.766 47.5893L140.509 47.1767L142.36 42.7969L144.21 47.1767L148.954 47.5893L145.358 50.7123L146.435 55.3571L142.36 52.8928L138.285 55.3571Z" fill="#3DAA3D"></path><rect x="114.418" y="41.543" width="15.0722" height="15.0722" rx="1.96819" fill="white"></rect><path d="M118.191 55.361L119.267 50.7162L115.672 47.5932L120.416 47.1806L122.266 42.8008L124.116 47.1806L128.86 47.5932L125.265 50.7162L126.341 55.361L122.266 52.8967L118.191 55.361Z" fill="#3DAA3D"></path><rect x="94.3164" y="41.543" width="15.0722" height="15.0722" rx="1.96819" fill="white"></rect><path d="M98.0934 55.361L99.1695 50.7162L95.5742 47.5932L100.318 47.1806L102.168 42.8008L104.019 47.1806L108.762 47.5932L105.167 50.7162L106.243 55.361L102.168 52.8967L98.0934 55.361Z" fill="#3DAA3D"></path><rect x="74.2227" y="41.543" width="15.0722" height="15.0722" rx="1.96819" fill="white"></rect><path d="M77.9997 55.361L79.0758 50.7162L75.4805 47.5932L80.2242 47.1806L82.0746 42.8008L83.9249 47.1806L88.6687 47.5932L85.0733 50.7162L86.1495 55.361L82.0746 52.8967L77.9997 55.361Z" fill="#3DAA3D"></path><rect x="54.125" y="41.543" width="15.0722" height="15.0722" rx="1.96819" fill="white"></rect><path d="M57.9059 55.361L58.982 50.7162L55.3867 47.5932L60.1304 47.1806L61.9808 42.8008L63.8312 47.1806L68.5749 47.5932L64.9796 50.7162L66.0557 55.361L61.9808 52.8967L57.9059 55.361Z" fill="#3DAA3D"></path><path d="M15.8313 57.4141V52.6992L16.0216 52.3821V44.3162L16.825 44.7496L10.6302 52.4138L10.1122 51.3778H20.9796V53.9572H8.35738V51.4307L15.9476 42.1913H19.045V57.4141H15.8313ZM24.7218 57.6889C24.0734 57.6889 23.5484 57.4881 23.1467 57.0864C22.745 56.6846 22.5441 56.1596 22.5441 55.5112C22.5441 54.8628 22.745 54.3413 23.1467 53.9467C23.5484 53.5449 24.0734 53.3441 24.7218 53.3441C25.3702 53.3441 25.8917 53.5449 26.2864 53.9467C26.6881 54.3413 26.889 54.8628 26.889 55.5112C26.889 56.1596 26.6881 56.6846 26.2864 57.0864C25.8917 57.4881 25.3702 57.6889 24.7218 57.6889ZM29.2252 57.4141C29.7467 54.7924 30.5572 52.4314 31.6566 50.3313C32.7631 48.2311 34.088 46.3811 35.6315 44.7813H27.1744V42.1913H38.6337V44.4007C37.8303 45.479 37.1114 46.522 36.4772 47.5299C35.8429 48.5377 35.2861 49.5525 34.8069 50.5744C34.3277 51.5892 33.9154 52.657 33.57 53.7775C33.2247 54.891 32.9322 56.1032 32.6926 57.4141H29.2252Z" fill="white"></path><line x1="44.0391" y1="57.082" x2="44.0391" y2="39.3683" stroke="white" stroke-width="0.492048"></line></svg>