<svg xmlns="http://www.w3.org/2000/svg" width="183" height="62" viewBox="0 0 183 62" fill="none"><path d="M11.1843 9.59646C11.1843 9.59646 9.6647 9.44364 9.6647 10.7884V16.8091H19.6333V18.6122C19.6333 18.6122 19.6637 19.4985 18.7216 19.4985H9.6647V27.3224H20.5451C20.5451 27.3224 27.1402 26.3138 27.201 19.4985V9.59646H11.1843ZM26.8971 0H7.26373C0.151961 1.68091 0 7.5488 0 7.5488V27.3529H7.53725V9.32139C7.53725 7.79329 9.05686 7.51824 9.05686 7.51824H26.8667L26.8971 0ZM52.8216 21.6684C52.3049 22.0046 51.9098 22.2797 51.6363 22.4325C50.6637 23.0437 49.752 23.5021 48.901 23.8689C47.6549 24.3884 46.5608 24.6329 45.5578 24.6329C42.1539 24.6329 39.3274 23.5938 37.0784 21.4851C34.799 19.3763 33.6745 16.7174 33.6745 13.5389C33.6745 10.4522 34.6774 7.7933 36.7441 5.50115C38.7804 3.23957 41.2725 2.10877 44.1902 2.10877C45.4059 2.10877 46.7127 2.32271 48.05 2.75058C49.8127 3.30069 51.2108 4.15642 52.3657 5.22609L50.4206 7.39599C49.6 6.57082 48.5059 5.99014 47.2598 5.6234C46.3176 5.34834 45.2843 5.19553 44.1294 5.19553C42.0931 5.19553 40.3608 6.0207 38.9627 7.67105C37.5951 9.35195 36.8961 11.3079 36.8961 13.6306C36.8961 15.9228 37.6863 17.8176 39.2667 19.3152C40.8471 20.8127 42.8529 21.5767 45.2843 21.5767C46.2873 21.5767 47.3206 21.2406 48.3843 20.6293C49.2657 19.9569 49.7216 19.6208 49.7216 19.6208V14.8531H43.1265L44.0686 11.8886H52.8216V21.6684ZM72.6676 15.8617C72.6676 18.1538 71.8471 20.1403 70.2363 21.8212C68.6255 23.5021 66.6196 24.3579 64.2186 24.3579C62 24.3579 60.0853 23.5327 58.4137 21.8824C56.7422 20.232 55.9216 18.2455 55.9216 15.8922C55.9216 13.5695 56.7118 11.583 58.2921 9.87151C59.8725 8.16004 61.8176 7.33486 64.0667 7.33486C66.5892 7.33486 68.6255 8.16004 70.2363 9.77982C71.8471 11.369 72.6676 13.4167 72.6676 15.8617ZM69.598 15.9228C69.598 14.3641 69.0814 13.05 68.048 11.9803C67.0147 10.8801 65.7382 10.3605 64.1882 10.3605C62.7598 10.3605 61.5441 10.9106 60.5108 12.0414C59.5078 13.1416 58.9912 14.4252 58.9912 15.8617C58.9912 17.3592 59.5078 18.6428 60.5108 19.7125C61.5137 20.7821 62.7902 21.3322 64.3098 21.3322C65.7382 21.3322 66.9539 20.8127 67.9872 19.743C69.0814 18.6428 69.598 17.3592 69.598 15.9228ZM92.2706 15.8617C92.2706 18.1538 91.45 20.1403 89.8392 21.8212C88.2284 23.5021 86.2225 24.3579 83.8216 24.3579C81.6029 24.3579 79.6882 23.5327 78.0167 21.8824C76.3451 20.232 75.5245 18.2455 75.5245 15.8922C75.5245 13.5695 76.3147 11.583 77.8951 9.87151C79.4755 8.16004 81.4206 7.33486 83.6696 7.33486C86.1921 7.33486 88.2284 8.16004 89.8392 9.77982C91.45 11.369 92.2706 13.4167 92.2706 15.8617ZM89.1706 15.9228C89.1706 14.3641 88.6539 13.05 87.6206 11.9803C86.5872 10.8801 85.3108 10.3605 83.7608 10.3605C82.3323 10.3605 81.1167 10.9106 80.0833 12.0414C79.0804 13.1416 78.5637 14.4252 78.5637 15.8617C78.5637 17.3592 79.0804 18.6428 80.0833 19.7125C81.0863 20.7821 82.3627 21.3322 83.8823 21.3322C85.3108 21.3322 86.5265 20.8127 87.5598 19.743C88.6539 18.6428 89.1706 17.3592 89.1706 15.9228ZM110.384 23.8994L107.558 24.3273V21.5767L106.95 22.2797C106.403 22.7992 105.795 23.1965 105.157 23.5327C104.184 23.9911 103.151 24.2051 102.087 24.2051C99.8686 24.2051 97.9843 23.3799 96.4647 21.7601C94.9451 20.1403 94.1549 18.1538 94.1549 15.8922C94.1549 13.5389 94.9147 11.5219 96.4343 9.87151C97.9539 8.1906 99.7774 7.36543 101.996 7.36543C103.273 7.36543 104.367 7.57936 105.278 7.97667C105.947 8.28229 106.494 8.67959 106.98 9.16858C107.132 9.38251 107.284 9.59645 107.467 9.81038V2.5672L110.475 2.13934L110.384 23.8994ZM107.74 16.0756C107.74 14.4558 107.193 13.0805 106.099 11.9803C105.005 10.8495 103.759 10.2994 102.33 10.2994C100.75 10.2994 99.5039 10.8189 98.5314 11.8886C97.6196 12.8971 97.1637 14.1502 97.1637 15.6172C97.1637 17.2675 97.65 18.6428 98.5921 19.7125C99.5343 20.7821 100.72 21.3017 102.209 21.3017C103.637 21.3017 104.914 20.8127 106.038 19.8041C107.163 18.7956 107.74 17.5426 107.74 16.0756ZM126.31 5.56227H117.861V11.3385H124.425V14.303H117.861V23.8689L114.578 24.3579V2.5672H125.672L126.31 5.56227ZM133.087 3.88137L131.051 6.44857L129.106 3.88137L131.142 1.34472L133.087 3.88137ZM132.479 23.8994L129.471 24.3273V8.1906L132.479 7.73217V23.8994ZM146.095 7.5488L144.667 10.8495C144.484 10.8189 144.302 10.8189 144.089 10.8189C143.785 10.8189 143.512 10.8495 143.208 10.8801C142.904 10.9106 142.6 11.0329 142.266 11.2162C141.627 11.4913 141.08 12.1025 140.625 12.9888C140.108 14.0279 139.834 15.1587 139.834 16.3201V23.8689L136.825 24.3579V8.1906L139.622 7.67105V11.0329C139.986 10.4522 140.351 9.87151 140.716 9.26027C141.232 8.64903 141.84 8.22116 142.509 7.9461C142.874 7.79329 143.512 7.70161 144.515 7.60993C145.487 7.5488 146.034 7.51824 146.095 7.5488ZM168.585 23.8994L165.576 24.3273V13.2639C165.576 12.2553 165.364 11.4913 164.908 11.0329C164.452 10.5744 163.783 10.3299 162.902 10.3299C161.838 10.3299 161.048 10.7578 160.501 11.6441C160.136 12.2553 159.924 12.8971 159.924 13.5389V23.8383L156.915 24.3884V13.2944C156.915 12.3165 156.702 11.583 156.246 11.0634C155.79 10.5439 155.213 10.2994 154.453 10.2994H154.149C153.085 10.2994 152.325 10.7272 151.839 11.6441C151.475 12.3165 151.292 13.1722 151.292 14.2113V23.8078L148.162 24.3579V8.12948L150.988 7.64048V9.7187C151.292 9.22971 151.626 8.8324 151.9 8.55734C152.721 7.79329 153.663 7.42655 154.726 7.42655C155.912 7.42655 156.793 7.60992 157.401 8.00723C157.918 8.34341 158.404 8.98522 158.921 9.90207C159.954 8.25173 161.413 7.42655 163.358 7.42655C165.212 7.42655 166.579 8.00723 167.491 9.19914C168.221 10.1771 168.585 11.6135 168.585 13.4778V23.8994ZM182.353 19.0095C182.353 20.5071 181.836 21.7295 180.803 22.677C179.77 23.6549 178.463 24.1134 176.882 24.1134C175.697 24.1134 174.633 23.8383 173.661 23.2882C172.688 22.7381 171.959 22.0963 171.503 21.3628L173.63 19.468C173.782 19.7125 173.934 19.8958 174.056 20.0181C174.846 20.8432 175.788 21.2406 176.882 21.2406C177.642 21.2406 178.25 21.0266 178.675 20.6293C179.131 20.232 179.344 19.6819 179.344 18.9484C179.344 18.1232 178.827 17.5731 177.794 17.2675C175.758 16.6563 174.633 16.2895 174.481 16.2284C173.539 15.7394 172.871 15.2199 172.445 14.6392C171.959 13.9668 171.716 13.0805 171.716 11.9497C171.716 10.5439 172.232 9.41308 173.235 8.46566C174.238 7.5488 175.454 7.09037 176.852 7.09037C177.916 7.09037 178.888 7.33487 179.8 7.82386C180.712 8.31285 181.35 8.8324 181.745 9.41308L179.952 11.369C179.678 11.094 179.375 10.8495 179.071 10.6356C178.341 10.116 177.642 9.87151 177.004 9.87151C176.366 9.87151 175.849 10.0243 175.454 10.2994C174.968 10.6356 174.724 11.1551 174.724 11.8275C174.724 12.4693 174.937 12.9583 175.424 13.2639C175.819 13.5084 176.67 13.7834 178.037 14.0891C179.374 14.4252 180.438 14.9754 181.168 15.77C182.019 16.6257 182.353 17.6648 182.353 19.0095Z" fill="#E7F4FF"></path><path d="M93.9665 53.5675H90.9622C90.8912 53.5675 90.7477 53.4965 90.7477 53.4239L89.8189 50.5632C89.7479 50.3487 89.3899 50.3487 89.3189 50.5632L88.3901 53.4239C88.3901 53.4949 88.2466 53.5675 88.1756 53.5675H85.1713C84.9569 53.5675 84.8133 53.8529 85.0278 53.9964L87.4596 55.7848C87.5306 55.8557 87.6031 55.9283 87.5306 56.0702L86.6017 58.931C86.5307 59.1454 86.8162 59.3599 86.9597 59.2164L89.3915 57.428C89.4625 57.3571 89.606 57.3571 89.6769 57.428L92.1087 59.2164C92.3232 59.3599 92.5377 59.1454 92.4667 58.931L91.5378 56.0702C91.5378 55.9992 91.5378 55.8557 91.6088 55.7848L94.0406 53.9964C94.3244 53.8545 94.2519 53.5675 93.9665 53.5675Z" fill="#E7F4FF"></path><path d="M103.623 53.5675H100.618C100.547 53.5675 100.404 53.4965 100.404 53.4239L99.4751 50.5632C99.4041 50.3487 99.0462 50.3487 98.9752 50.5632L98.0463 53.4239C98.0463 53.4949 97.9028 53.5675 97.8318 53.5675H94.8276C94.6131 53.5675 94.4696 53.8529 94.6841 53.9964L97.1159 55.7848C97.1868 55.8557 97.2594 55.9283 97.1868 56.0702L96.258 58.931C96.187 59.1454 96.4724 59.3599 96.6159 59.2164L99.0477 57.428C99.1187 57.3571 99.2622 57.3571 99.3332 57.428L101.765 59.2164C101.979 59.3599 102.194 59.1454 102.123 58.931L101.194 56.0702C101.194 55.9992 101.194 55.8557 101.265 55.7848L103.697 53.9964C103.908 53.8545 103.837 53.5675 103.623 53.5675Z" fill="#E7F4FF"></path><path d="M113.486 53.5675H110.482C110.411 53.5675 110.267 53.4965 110.267 53.4239L109.338 50.5632C109.267 50.3487 108.909 50.3487 108.838 50.5632L107.91 53.4239C107.91 53.4949 107.766 53.5675 107.695 53.5675H104.691C104.476 53.5675 104.333 53.8529 104.547 53.9964L106.979 55.7848C107.05 55.8557 107.123 55.9283 107.05 56.0702L106.121 58.931C106.05 59.1454 106.336 59.3599 106.479 59.2164L108.911 57.428C108.982 57.3571 109.125 57.3571 109.196 57.428L111.628 59.2164C111.843 59.3599 112.057 59.1454 111.986 58.931L111.057 56.0702C111.057 55.9992 111.057 55.8557 111.128 55.7848L113.56 53.9964C113.773 53.8545 113.7 53.5675 113.486 53.5675Z" fill="#E7F4FF"></path><path d="M123.287 53.5675H120.283C120.212 53.5675 120.068 53.4965 120.068 53.4239L119.139 50.5632C119.068 50.3487 118.71 50.3487 118.639 50.5632L117.71 53.4239C117.71 53.4949 117.567 53.5675 117.496 53.5675H114.492C114.277 53.5675 114.134 53.8529 114.348 53.9964L116.78 55.7848C116.851 55.8557 116.923 55.9283 116.851 56.0702L115.922 58.931C115.851 59.1454 116.136 59.3599 116.28 59.2164L118.712 57.428C118.783 57.3571 118.926 57.3571 118.997 57.428L121.429 59.2164C121.644 59.3599 121.858 59.1454 121.787 58.931L120.858 56.0702C120.858 55.9992 120.858 55.8557 120.929 55.7848L123.361 53.9964C123.572 53.8545 123.501 53.5675 123.287 53.5675Z" fill="#E7F4FF"></path><path d="M133.012 53.9964C133.227 53.8529 133.083 53.5675 132.869 53.5675H129.865C129.794 53.5675 129.65 53.4965 129.65 53.4239L128.721 50.5632C128.65 50.3487 128.292 50.3487 128.221 50.5632L127.292 53.4239C127.292 53.4949 127.149 53.5675 127.078 53.5675H124.074C123.859 53.5675 123.716 53.8529 123.93 53.9964L126.362 55.7848C126.433 55.8557 126.505 55.9283 126.433 56.0702L125.504 58.931C125.433 59.1454 125.719 59.3599 125.862 59.2164L128.294 57.428C128.365 57.3571 128.508 57.3571 128.579 57.428L131.011 59.2164C131.226 59.3599 131.44 59.1454 131.369 58.931L130.44 56.0702C130.44 55.9992 130.44 55.8557 130.511 55.7848L133.012 53.9964Z" fill="#E7F4FF"></path><path d="M40.7645 59.4631C40.2588 59.4631 39.7851 59.3705 39.3435 59.1853C38.9018 58.9966 38.5368 58.7205 38.2483 58.3572C37.9598 57.994 37.7924 57.547 37.7461 57.0163L39.4396 56.6691C39.4574 57.1178 39.5785 57.4811 39.8029 57.7589C40.0273 58.0367 40.3514 58.1756 40.7752 58.1756C41.0566 58.1756 41.2952 58.1115 41.4911 57.9833C41.687 57.8515 41.8384 57.6734 41.9452 57.449C42.052 57.2211 42.1055 56.9647 42.1055 56.6797C42.1055 56.263 41.9897 55.9318 41.7582 55.6861C41.5267 55.4403 41.2062 55.3174 40.7966 55.3174C40.5045 55.3174 40.2659 55.3851 40.0807 55.5205C39.8991 55.6558 39.753 55.8321 39.6426 56.0493L37.9598 55.9211L38.3231 51.6312H43.3235V52.9401H39.6587L39.4663 55.2747L39.2366 55.1465C39.4467 54.8153 39.7246 54.5624 40.07 54.3879C40.4155 54.2098 40.8144 54.1207 41.2667 54.1207C41.8081 54.1207 42.2657 54.2312 42.6397 54.452C43.0172 54.6728 43.3022 54.9737 43.4945 55.3548C43.6868 55.7324 43.783 56.1615 43.783 56.6423C43.783 57.2478 43.6423 57.7607 43.3609 58.181C43.0796 58.6012 42.7092 58.92 42.2497 59.1372C41.7903 59.3545 41.2952 59.4631 40.7645 59.4631ZM45.6955 59.4631C45.3679 59.4631 45.1025 59.3616 44.8995 59.1586C44.6965 58.9556 44.595 58.6903 44.595 58.3626C44.595 58.0349 44.6965 57.7714 44.8995 57.5719C45.1025 57.3689 45.3679 57.2674 45.6955 57.2674C46.0232 57.2674 46.2868 57.3689 46.4862 57.5719C46.6892 57.7714 46.7907 58.0349 46.7907 58.3626C46.7907 58.6903 46.6892 58.9556 46.4862 59.1586C46.2868 59.3616 46.0232 59.4631 45.6955 59.4631ZM50.5518 59.4631C49.5794 59.4631 48.828 59.1176 48.2973 58.4267C47.7702 57.7322 47.5066 56.7492 47.5066 55.4777C47.5066 54.2098 47.7702 53.2286 48.2973 52.5341C48.828 51.8396 49.5794 51.4923 50.5518 51.4923C51.5276 51.4923 52.2791 51.8396 52.8062 52.5341C53.3334 53.2286 53.5969 54.2098 53.5969 55.4777C53.5969 56.7456 53.3334 57.7268 52.8062 58.4214C52.2791 59.1159 51.5276 59.4631 50.5518 59.4631ZM50.5518 58.181C50.997 58.181 51.3317 57.953 51.5561 57.4971C51.7841 57.0412 51.898 56.3681 51.898 55.4777C51.898 54.5873 51.7841 53.916 51.5561 53.4636C51.3317 53.0078 50.997 52.7798 50.5518 52.7798C50.1066 52.7798 49.77 53.0078 49.542 53.4636C49.3177 53.916 49.2055 54.5873 49.2055 55.4777C49.2055 56.3681 49.3177 57.0412 49.542 57.4971C49.77 57.953 50.1066 58.181 50.5518 58.181ZM53.5114 60.7186L56.9893 50.8459H58.4905L55.0126 60.7186H53.5114ZM61.7066 59.4631C61.2009 59.4631 60.7272 59.3705 60.2856 59.1853C59.8439 58.9966 59.4789 58.7205 59.1904 58.3572C58.9019 57.994 58.7345 57.547 58.6882 57.0163L60.3817 56.6691C60.3995 57.1178 60.5206 57.4811 60.745 57.7589C60.9694 58.0367 61.2935 58.1756 61.7173 58.1756C61.9987 58.1756 62.2373 58.1115 62.4332 57.9833C62.6291 57.8515 62.7804 57.6734 62.8873 57.449C62.9941 57.2211 63.0476 56.9647 63.0476 56.6797C63.0476 56.263 62.9318 55.9318 62.7003 55.6861C62.4688 55.4403 62.1483 55.3174 61.7387 55.3174C61.4466 55.3174 61.208 55.3851 61.0228 55.5205C60.8412 55.6558 60.6951 55.8321 60.5847 56.0493L58.9019 55.9211L59.2652 51.6312H64.2656V52.9401H60.6008L60.4084 55.2747L60.1787 55.1465C60.3888 54.8153 60.6666 54.5624 61.0121 54.3879C61.3576 54.2098 61.7565 54.1207 62.2088 54.1207C62.7502 54.1207 63.2078 54.2312 63.5818 54.452C63.9593 54.6728 64.2443 54.9737 64.4366 55.3548C64.6289 55.7324 64.7251 56.1615 64.7251 56.6423C64.7251 57.2478 64.5844 57.7607 64.303 58.181C64.0217 58.6012 63.6513 58.92 63.1918 59.1372C62.7324 59.3545 62.2373 59.4631 61.7066 59.4631ZM66.6376 59.4631C66.31 59.4631 66.0446 59.3616 65.8416 59.1586C65.6386 58.9556 65.5371 58.6903 65.5371 58.3626C65.5371 58.0349 65.6386 57.7714 65.8416 57.5719C66.0446 57.3689 66.31 57.2674 66.6376 57.2674C66.9653 57.2674 67.2289 57.3689 67.4283 57.5719C67.6313 57.7714 67.7328 58.0349 67.7328 58.3626C67.7328 58.6903 67.6313 58.9556 67.4283 59.1586C67.2289 59.3616 66.9653 59.4631 66.6376 59.4631ZM71.4939 59.4631C70.5215 59.4631 69.77 59.1176 69.2394 58.4267C68.7123 57.7322 68.4487 56.7492 68.4487 55.4777C68.4487 54.2098 68.7123 53.2286 69.2394 52.5341C69.77 51.8396 70.5215 51.4923 71.4939 51.4923C72.4697 51.4923 73.2212 51.8396 73.7483 52.5341C74.2754 53.2286 74.539 54.2098 74.539 55.4777C74.539 56.7456 74.2754 57.7268 73.7483 58.4214C73.2212 59.1159 72.4697 59.4631 71.4939 59.4631ZM71.4939 58.181C71.9391 58.181 72.2738 57.953 72.4982 57.4971C72.7262 57.0412 72.8401 56.3681 72.8401 55.4777C72.8401 54.5873 72.7262 53.916 72.4982 53.4636C72.2738 53.0078 71.9391 52.7798 71.4939 52.7798C71.0487 52.7798 70.7121 53.0078 70.4841 53.4636C70.2598 53.916 70.1476 54.5873 70.1476 55.4777C70.1476 56.3681 70.2598 57.0412 70.4841 57.4971C70.7121 57.953 71.0487 58.181 71.4939 58.181Z" fill="#E7F4FF"></path><path d="M38.1836 41.942V34.1101H41.5119C42.3489 34.1101 42.9561 34.1814 43.3336 34.3238C43.7147 34.4627 44.0192 34.712 44.2472 35.0717C44.4751 35.4315 44.5891 35.8428 44.5891 36.3058C44.5891 36.8935 44.4164 37.3797 44.0709 37.7643C43.7254 38.1454 43.209 38.3858 42.5216 38.4855C42.8635 38.685 43.1449 38.904 43.3657 39.1426C43.5901 39.3813 43.891 39.8051 44.2686 40.4141L45.2248 41.942H43.3336L42.1904 40.2378C41.7844 39.6288 41.5065 39.2459 41.357 39.0892C41.2074 38.9289 41.0489 38.8203 40.8815 38.7633C40.7141 38.7028 40.4488 38.6725 40.0855 38.6725H39.7649V41.942H38.1836ZM39.7649 37.4224H40.9349C41.6935 37.4224 42.1672 37.3903 42.356 37.3262C42.5447 37.2621 42.6926 37.1517 42.7994 36.995C42.9062 36.8383 42.9597 36.6424 42.9597 36.4073C42.9597 36.1438 42.8884 35.9319 42.746 35.7716C42.6071 35.6078 42.4094 35.5045 42.153 35.4617C42.0248 35.4439 41.6401 35.435 40.999 35.435H39.7649V37.4224Z" fill="#E7F4FF"></path><path d="M46.085 41.942V34.1101H51.8921V35.435H47.6663V37.1713H51.5983V38.4909H47.6663V40.6225H52.0417V41.942H46.085Z" fill="#E7F4FF"></path><path d="M52.982 39.3937L54.5206 39.2441C54.6132 39.7606 54.8001 40.1399 55.0815 40.3821C55.3664 40.6243 55.7493 40.7453 56.2301 40.7453C56.7394 40.7453 57.1223 40.6385 57.3787 40.4248C57.6387 40.2075 57.7687 39.9547 57.7687 39.6662C57.7687 39.481 57.7135 39.3243 57.6031 39.1961C57.4963 39.0643 57.3075 38.9503 57.0368 38.8541C56.8516 38.79 56.4296 38.6761 55.7707 38.5122C54.923 38.3021 54.3282 38.0439 53.9863 37.7376C53.5055 37.3066 53.2651 36.7813 53.2651 36.1616C53.2651 35.7627 53.3773 35.3905 53.6017 35.045C53.8296 34.696 54.1555 34.4307 54.5793 34.249C55.0067 34.0674 55.5214 33.9766 56.1233 33.9766C57.1063 33.9766 57.8453 34.192 58.3404 34.623C58.839 35.0539 59.1008 35.6291 59.1257 36.3486L57.5443 36.418C57.4767 36.0156 57.3307 35.7271 57.1063 35.5526C56.8855 35.3745 56.5524 35.2854 56.1072 35.2854C55.6478 35.2854 55.2881 35.3798 55.0281 35.5686C54.8607 35.6897 54.777 35.8517 54.777 36.0547C54.777 36.2399 54.8554 36.3984 55.0121 36.5302C55.2115 36.6976 55.6959 36.8721 56.4652 37.0538C57.2345 37.2354 57.8026 37.4242 58.1694 37.6201C58.5398 37.8124 58.8283 38.0777 59.0349 38.4161C59.245 38.7509 59.3501 39.1658 59.3501 39.6608C59.3501 40.1096 59.2254 40.5299 58.9761 40.9216C58.7268 41.3134 58.3742 41.6055 57.9183 41.7978C57.4624 41.9866 56.8944 42.0809 56.2141 42.0809C55.224 42.0809 54.4636 41.853 53.9329 41.3971C53.4022 40.9377 53.0852 40.2699 52.982 39.3937Z" fill="#E7F4FF"></path><path d="M60.6803 41.942V34.1101H66.4875V35.435H62.2617V37.1713H66.1936V38.4909H62.2617V40.6225H66.6371V41.942H60.6803Z" fill="#E7F4FF"></path><path d="M75.0406 41.942H73.3204L72.6365 40.163H69.5059L68.8595 41.942H67.182L70.2325 34.1101H71.9046L75.0406 41.942ZM72.129 38.8435L71.0499 35.9372L69.9921 38.8435H72.129Z" fill="#E7F4FF"></path><path d="M75.89 41.942V34.1101H79.2183C80.0553 34.1101 80.6626 34.1814 81.0401 34.3238C81.4212 34.4627 81.7257 34.712 81.9536 35.0717C82.1816 35.4315 82.2956 35.8428 82.2956 36.3058C82.2956 36.8935 82.1228 37.3797 81.7773 37.7643C81.4319 38.1454 80.9154 38.3858 80.2281 38.4855C80.57 38.685 80.8513 38.904 81.0721 39.1426C81.2965 39.3813 81.5975 39.8051 81.975 40.4141L82.9313 41.942H81.0401L79.8968 40.2378C79.4908 39.6288 79.213 39.2459 79.0634 39.0892C78.9138 38.9289 78.7553 38.8203 78.5879 38.7633C78.4206 38.7028 78.1552 38.6725 77.7919 38.6725H77.4714V41.942H75.89ZM77.4714 37.4224H78.6414C79.4 37.4224 79.8737 37.3903 80.0624 37.3262C80.2512 37.2621 80.399 37.1517 80.5059 36.995C80.6127 36.8383 80.6661 36.6424 80.6661 36.4073C80.6661 36.1438 80.5949 35.9319 80.4524 35.7716C80.3135 35.6078 80.1159 35.5045 79.8594 35.4617C79.7312 35.4439 79.3466 35.435 78.7055 35.435H77.4714V37.4224Z" fill="#E7F4FF"></path><path d="M88.8026 39.0625L90.3358 39.5487C90.1008 40.4034 89.709 41.0392 89.1605 41.4559C88.6156 41.869 87.9229 42.0756 87.0823 42.0756C86.0423 42.0756 85.1876 41.7212 84.518 41.0125C83.8484 40.3001 83.5136 39.3278 83.5136 38.0955C83.5136 36.792 83.8502 35.7805 84.5233 35.0611C85.1965 34.3381 86.0815 33.9766 87.1785 33.9766C88.1365 33.9766 88.9148 34.2597 89.5131 34.826C89.8693 35.1608 90.1364 35.6416 90.3145 36.2684L88.7491 36.6424C88.6565 36.2364 88.4624 35.9158 88.1668 35.6808C87.8748 35.4457 87.5186 35.3282 87.0983 35.3282C86.5178 35.3282 86.0459 35.5365 85.6826 35.9532C85.3229 36.3699 85.143 37.0449 85.143 37.978C85.143 38.9681 85.3211 39.6733 85.6773 40.0936C86.0334 40.5138 86.4964 40.724 87.0663 40.724C87.4866 40.724 87.8481 40.5904 88.1508 40.3233C88.4535 40.0562 88.6708 39.6359 88.8026 39.0625Z" fill="#E7F4FF"></path><path d="M91.7035 41.942V34.1101H93.2848V37.1927H96.3834V34.1101H97.9647V41.942H96.3834V38.5176H93.2848V41.942H91.7035Z" fill="#E7F4FF"></path><path d="M102.65 41.942V34.1101H105.188C106.149 34.1101 106.776 34.1493 107.068 34.2277C107.517 34.3452 107.893 34.6016 108.195 34.997C108.498 35.3887 108.649 35.8963 108.649 36.5195C108.649 37.0003 108.562 37.4046 108.388 37.7322C108.213 38.0599 107.991 38.3181 107.72 38.5069C107.453 38.6921 107.18 38.815 106.903 38.8755C106.525 38.9503 105.978 38.9877 105.262 38.9877H104.231V41.942H102.65ZM104.231 35.435V37.6575H105.097C105.72 37.6575 106.137 37.6165 106.347 37.5346C106.557 37.4527 106.721 37.3244 106.838 37.1499C106.959 36.9754 107.02 36.7724 107.02 36.5409C107.02 36.256 106.936 36.0209 106.769 35.8357C106.602 35.6505 106.39 35.5348 106.133 35.4885C105.944 35.4528 105.565 35.435 104.995 35.435H104.231Z" fill="#E7F4FF"></path><path d="M116.198 41.942H114.478L113.794 40.163H110.664L110.017 41.942H108.34L111.39 34.1101H113.062L116.198 41.942ZM113.287 38.8435L112.207 35.9372L111.15 38.8435H113.287Z" fill="#E7F4FF"></path><path d="M117.048 41.942V34.1101H120.376C121.213 34.1101 121.82 34.1814 122.198 34.3238C122.579 34.4627 122.883 34.712 123.111 35.0717C123.339 35.4315 123.453 35.8428 123.453 36.3058C123.453 36.8935 123.28 37.3797 122.935 37.7643C122.589 38.1454 122.073 38.3858 121.386 38.4855C121.728 38.685 122.009 38.904 122.23 39.1426C122.454 39.3813 122.755 39.8051 123.133 40.4141L124.089 41.942H122.198L121.054 40.2378C120.648 39.6288 120.371 39.2459 120.221 39.0892C120.071 38.9289 119.913 38.8203 119.746 38.7633C119.578 38.7028 119.313 38.6725 118.95 38.6725H118.629V41.942H117.048ZM118.629 37.4224H119.799C120.558 37.4224 121.031 37.3903 121.22 37.3262C121.409 37.2621 121.557 37.1517 121.663 36.995C121.77 36.8383 121.824 36.6424 121.824 36.4073C121.824 36.1438 121.753 35.9319 121.61 35.7716C121.471 35.6078 121.273 35.5045 121.017 35.4617C120.889 35.4439 120.504 35.435 119.863 35.435H118.629V37.4224Z" fill="#E7F4FF"></path><path d="M126.712 41.942V35.435H124.388V34.1101H130.612V35.435H128.293V41.942H126.712Z" fill="#E7F4FF"></path><path d="M131.654 41.942V34.1101H133.192L136.398 39.3403V34.1101H137.867V41.942H136.28L133.123 36.8347V41.942H131.654Z" fill="#E7F4FF"></path><path d="M139.544 41.942V34.1101H145.352V35.435H141.126V37.1713H145.058V38.4909H141.126V40.6225H145.501V41.942H139.544Z" fill="#E7F4FF"></path><path d="M146.847 41.942V34.1101H150.176C151.013 34.1101 151.62 34.1814 151.997 34.3238C152.379 34.4627 152.683 34.712 152.911 35.0717C153.139 35.4315 153.253 35.8428 153.253 36.3058C153.253 36.8935 153.08 37.3797 152.735 37.7643C152.389 38.1454 151.873 38.3858 151.185 38.4855C151.527 38.685 151.809 38.904 152.03 39.1426C152.254 39.3813 152.555 39.8051 152.932 40.4141L153.889 41.942H151.997L150.854 40.2378C150.448 39.6288 150.17 39.2459 150.021 39.0892C149.871 38.9289 149.713 38.8203 149.545 38.7633C149.378 38.7028 149.113 38.6725 148.749 38.6725H148.429V41.942H146.847ZM148.429 37.4224H149.599C150.357 37.4224 150.831 37.3903 151.02 37.3262C151.209 37.2621 151.356 37.1517 151.463 36.995C151.57 36.8383 151.624 36.6424 151.624 36.4073C151.624 36.1438 151.552 35.9319 151.41 35.7716C151.271 35.6078 151.073 35.5045 150.817 35.4617C150.689 35.4439 150.304 35.435 149.663 35.435H148.429V37.4224Z" fill="#E7F4FF"></path></svg>