<svg xmlns="http://www.w3.org/2000/svg" width="62" height="62" viewBox="0 0 62 62" fill="none"><g clip-path="url(#clip0_11989_37999)"><rect width="62" height="62" fill="white"></rect><path d="M0 0V62H62V0H0Z" fill="white"></path><path d="M15.003 8.66762V9.54802C15.003 11.1724 14.4822 12.4744 13.453 13.4788C12.4114 14.4832 11.0722 14.9792 9.43538 14.9792C7.68698 14.9792 6.22378 14.4088 5.08298 13.2804C3.92978 12.1272 3.37178 10.7384 3.37178 9.10162C3.37178 7.46482 3.94218 6.06362 5.07058 4.91042C6.22378 3.75722 7.62498 3.19922 9.31138 3.19922C11.4318 3.19922 13.2794 4.24082 14.2466 5.84042L12.337 6.94402C11.8038 6.02642 10.6382 5.36922 9.29898 5.36922C8.22018 5.36922 7.32738 5.72882 6.63298 6.43562C5.93858 7.13002 5.59138 8.02282 5.59138 9.10162C5.59138 10.1804 5.95098 11.0608 6.64538 11.7552C7.36458 12.4496 8.29458 12.7844 9.46018 12.7844C11.1962 12.7844 12.3618 11.9784 12.7586 10.6268H9.32378V8.65522L15.003 8.66762ZM18.351 8.06002C18.723 7.01842 19.6406 6.51002 20.6946 6.51002V8.84122C20.1242 8.75442 19.5414 8.89082 19.0702 9.22562C18.599 9.56042 18.3634 10.1184 18.3634 10.8872V14.756H16.3794V6.65882H18.3634L18.351 8.06002ZM24.0426 11.5692C24.3154 12.586 25.0842 13.0944 26.3242 13.0944C27.1178 13.0944 27.7378 12.8216 28.1346 12.2884L29.821 13.2556C29.0274 14.4088 27.8494 14.9916 26.287 14.9916C24.9478 14.9916 23.8814 14.5824 23.063 13.7764C22.257 12.9704 21.8478 11.9412 21.8478 10.7136C21.8478 9.48602 22.257 8.48162 23.0506 7.67562C23.8442 6.84482 24.8858 6.44802 26.1258 6.44802C27.3658 6.44802 28.2958 6.85722 29.0522 7.67562C29.8334 8.50642 30.2178 9.51082 30.2178 10.7136C30.2178 10.9988 30.1806 11.284 30.131 11.5692H24.0426ZM28.1346 9.95722C27.8866 8.85362 27.0806 8.32042 26.1258 8.32042C25.0098 8.32042 24.2534 8.91562 24.0054 9.95722H28.1346ZM37.757 6.67122H39.8402V14.756H37.757V13.8012C37.1246 14.5948 36.2566 14.9792 35.1158 14.9792C33.975 14.9792 33.107 14.57 32.3258 13.7516C31.5694 12.9208 31.1726 11.904 31.1726 10.7136C31.1726 9.52322 31.557 8.50642 32.3258 7.68802C33.107 6.85722 34.0246 6.43562 35.1158 6.43562C36.207 6.43562 37.1246 6.82002 37.757 7.61362V6.67122ZM35.5002 12.9952C36.145 12.9952 36.6782 12.7844 37.0998 12.3628C37.5338 11.9288 37.7446 11.3708 37.7446 10.7136C37.7446 10.0564 37.5338 9.49842 37.0998 9.07682C36.6782 8.64282 36.145 8.43202 35.5002 8.43202C34.8554 8.43202 34.3222 8.64282 33.9006 9.07682C33.479 9.49842 33.2682 10.044 33.2682 10.7136C33.2682 11.3832 33.479 11.9288 33.9006 12.3628C34.3222 12.7844 34.8554 12.9952 35.5002 12.9952ZM46.6974 8.66762H44.8622V12.0404C44.8622 12.9208 45.4946 12.9332 46.6974 12.8712V14.756C43.833 15.0784 42.779 14.26 42.779 12.0404V8.66762H41.3654V6.65882H42.779V5.02202L44.8622 4.38962V6.65882H46.6974V8.66762ZM9.07578 17.6576C10.167 17.6576 11.0846 18.0296 11.8286 18.7612C12.5726 19.4928 12.9446 20.398 12.9446 21.4644C12.9446 22.5308 12.5726 23.436 11.8286 24.1676C11.0846 24.8992 10.167 25.2712 9.07578 25.2712H7.07938V28.9912H4.84738V17.6576H9.07578ZM9.07578 23.188C10.0306 23.188 10.725 22.444 10.725 21.4768C10.725 20.5096 10.0306 19.7656 9.07578 19.7656H7.07938V23.188H9.07578ZM14.4698 28.9912V17.7568H16.553V28.9912H14.4698ZM24.9478 20.9064H27.031V29.0036H24.9478V28.0488C24.3154 28.8424 23.4474 29.2268 22.3066 29.2268C21.1658 29.2268 20.2978 28.8176 19.5166 27.9992C18.7602 27.1684 18.3634 26.1516 18.3634 24.9612C18.3634 23.7708 18.7478 22.754 19.5166 21.9356C20.2978 21.1048 21.2154 20.6832 22.3066 20.6832C23.3978 20.6832 24.3154 21.0676 24.9478 21.8612V20.9064ZM22.691 27.2304C23.3358 27.2304 23.869 27.0196 24.2906 26.598C24.7122 26.1764 24.9354 25.606 24.9354 24.9488C24.9354 24.2916 24.7246 23.7336 24.2906 23.312C23.869 22.878 23.3358 22.6672 22.691 22.6672C22.0462 22.6672 21.513 22.878 21.0914 23.312C20.6698 23.7336 20.459 24.2792 20.459 24.9488C20.459 25.6184 20.6698 26.164 21.0914 26.598C21.513 27.0196 22.0462 27.2304 22.691 27.2304ZM30.0442 27.9992C29.2382 27.1684 28.829 26.164 28.829 24.9612C28.829 23.7584 29.2382 22.7416 30.0442 21.9232C30.875 21.0924 31.8918 20.6956 33.107 20.6956C34.6818 20.6956 36.0706 21.5016 36.7278 22.7788L34.9298 23.8328C34.6074 23.1632 33.913 22.754 33.0822 22.754C31.8298 22.754 30.9122 23.6716 30.9122 24.9736C30.9122 25.606 31.123 26.1392 31.5322 26.5608C31.929 26.97 32.4498 27.1808 33.0822 27.1808C33.9254 27.1808 34.6198 26.7716 34.9422 26.1144L36.7526 27.156C36.0458 28.4332 34.6694 29.264 33.0946 29.264C31.8918 29.2268 30.875 28.8176 30.0442 27.9992ZM40.1006 25.8044C40.3734 26.8212 41.1422 27.3296 42.3822 27.3296C43.1758 27.3296 43.7958 27.0568 44.1926 26.5236L45.879 27.4908C45.0854 28.644 43.9074 29.2268 42.345 29.2268C41.0058 29.2268 39.9394 28.8176 39.121 28.0116C38.315 27.2056 37.9058 26.1764 37.9058 24.9488C37.9058 23.7212 38.315 22.7168 39.1086 21.9108C39.9022 21.08 40.9438 20.6832 42.1838 20.6832C43.4238 20.6832 44.3538 21.0924 45.1102 21.9108C45.8914 22.7416 46.2758 23.746 46.2758 24.9488C46.2758 25.234 46.2386 25.5192 46.189 25.8044H40.1006ZM44.1926 24.1924C43.9446 23.0888 43.1386 22.5556 42.1838 22.5556C41.0678 22.5556 40.3114 23.1508 40.0634 24.1924H44.1926ZM11.7046 32.4632V34.4968H8.64178V43.2388H6.40978V34.4968H3.35938V32.4632H11.7046ZM15.1766 43.462C13.9738 43.462 12.957 43.0528 12.1386 42.2344C11.3202 41.4036 10.911 40.3868 10.911 39.1964C10.911 38.006 11.3202 36.9892 12.1386 36.1708C12.9694 35.34 13.9862 34.9184 15.1766 34.9184C16.367 34.9184 17.3962 35.34 18.2146 36.1708C19.033 37.0016 19.467 38.006 19.467 39.1964C19.467 40.3868 19.0454 41.416 18.2146 42.2344C17.3962 43.0528 16.3794 43.462 15.1766 43.462ZM15.1766 41.416C15.809 41.416 16.3298 41.2052 16.7514 40.7836C17.173 40.362 17.3838 39.8288 17.3838 39.184C17.3838 38.5392 17.173 38.006 16.7514 37.5844C16.3298 37.1628 15.809 36.952 15.1766 36.952C14.5442 36.952 14.0234 37.1628 13.6018 37.5844C13.1926 38.006 12.9818 38.5392 12.9818 39.184C12.9818 39.8288 13.1926 40.362 13.6018 40.7836C14.0358 41.2052 14.5442 41.416 15.1766 41.416ZM6.84378 58.1312L3.66938 46.7976H6.01298L8.18298 55.2048L10.5514 46.7976H12.461L14.8418 55.2048L17.0118 46.7976H19.3554L16.181 58.1312H13.639L11.5062 50.654L9.38578 58.1312H6.84378ZM23.435 58.3544C22.2322 58.3544 21.2154 57.9452 20.397 57.1268C19.5786 56.296 19.1694 55.2792 19.1694 54.0888C19.1694 52.8984 19.5786 51.8816 20.397 51.0632C21.2278 50.2324 22.2446 49.8108 23.435 49.8108C24.6254 49.8108 25.6546 50.2324 26.473 51.0632C27.2914 51.894 27.713 52.886 27.713 54.0888C27.713 55.2916 27.2914 56.3084 26.4606 57.1268C25.6546 57.9452 24.6378 58.3544 23.435 58.3544ZM23.435 56.3208C24.0674 56.3208 24.5882 56.11 25.0098 55.6884C25.4314 55.2668 25.6422 54.7336 25.6422 54.0888C25.6422 53.444 25.4314 52.9108 25.0098 52.4892C24.5882 52.0676 24.0674 51.8568 23.435 51.8568C22.8026 51.8568 22.2818 52.0676 21.8602 52.4892C21.451 52.9108 21.2402 53.444 21.2402 54.0888C21.2402 54.7336 21.451 55.2668 21.8602 55.6884C22.2942 56.11 22.8026 56.3208 23.435 56.3208ZM31.2966 51.4228C31.681 50.3812 32.6606 49.8728 33.7518 49.8728V52.204C33.1194 52.1172 32.5366 52.2536 32.0406 52.5884C31.5322 52.9232 31.2966 53.4812 31.2966 54.25V58.1188H29.2134V50.0216H31.2966V51.4228ZM42.7542 58.1312H40.3238L37.3726 54.4608V58.1312H35.2894V46.7976H37.3726V53.5928L40.1626 50.034H42.655L39.4062 54.0392L42.7542 58.1312ZM43.523 56.668C43.5106 55.6512 44.329 54.8328 45.3334 54.8204C46.3378 54.808 47.1686 55.6264 47.181 56.6308C47.1934 57.6352 46.375 58.466 45.3706 58.4784H45.3582C44.329 58.4784 43.523 57.6972 43.523 56.668ZM46.8462 56.6556C46.8462 55.7504 46.2138 55.1304 45.3458 55.1304C44.4778 55.1304 43.8454 55.7628 43.8454 56.668C43.8454 57.5732 44.5026 58.1808 45.3458 58.1808C46.189 58.1932 46.8462 57.5608 46.8462 56.6556ZM44.7258 55.738H45.3582C45.7798 55.738 46.0526 55.9116 46.0526 56.2836V56.296C46.0526 56.5688 45.8914 56.7176 45.6806 56.7796L46.1642 57.5484H45.755L45.321 56.8416H45.135V57.5484H44.7382V55.738H44.7258ZM45.3458 56.5688C45.5566 56.5688 45.6558 56.482 45.6558 56.3084V56.296C45.6558 56.11 45.5442 56.0356 45.3458 56.0356H45.1102V56.5688H45.3458Z" fill="#04264D"></path></g><defs><clipPath id="clip0_11989_37999"><rect width="62" height="62" fill="white"></rect></clipPath></defs></svg>