<svg xmlns="http://www.w3.org/2000/svg" width="209" height="56" viewBox="0 0 209 56" fill="none"><g clip-path="url(#clip0_446_193)"><path d="M95.2474 41.6151C94.1491 42.1922 92.986 42.5455 91.7552 42.6751C90.5244 42.8076 89.4408 42.8724 88.4985 42.8724C86.614 42.8724 84.968 42.363 83.5546 41.3412C82.1412 40.3224 81.4375 38.6352 81.4375 36.2795C81.4375 34.0829 82.0765 32.5135 83.3603 31.5712C84.6412 30.629 86.2754 30.0018 88.263 29.6867C88.525 29.6867 88.8401 29.6484 89.2052 29.5689C89.5703 29.4894 89.9914 29.4246 90.4596 29.3716C92.7622 29.0566 93.9135 28.3793 93.9135 27.3311C93.9135 26.5449 93.5072 26.0384 92.6974 25.7999C91.8877 25.5644 91.1398 25.4466 90.4625 25.4466C89.7293 25.4466 89.0756 25.5526 88.5015 25.7616C87.9243 25.9707 87.5062 26.3653 87.2441 26.9395H81.9881C82.1972 25.32 82.9304 23.9861 84.1848 22.9378C85.5981 21.7364 87.6093 21.1328 90.227 21.1328C93.1568 21.1328 95.3505 21.6304 96.8168 22.6228C98.3333 23.671 99.09 25.1344 99.09 27.016V34.1565C99.09 36.2501 98.7102 37.8843 97.9534 39.0592C97.1938 40.237 96.2927 41.088 95.2474 41.6092V41.6151ZM93.993 31.9658C93.2598 32.3309 92.241 32.6725 90.9337 32.9846L89.1286 33.3762C88.1864 33.6383 87.5062 33.9799 87.0881 34.395C86.72 34.9722 86.5375 35.5464 86.5375 36.1235C86.5375 36.9067 86.773 37.5369 87.2441 38.0051C87.7153 38.4261 88.3925 38.6352 89.2847 38.6352C90.7481 38.6352 91.8995 38.2171 92.7357 37.3779C93.572 36.5416 93.993 35.3903 93.993 33.9269V31.9658Z" fill="white"></path><path d="M120.558 42.8724H117.761C116.963 42.8724 116.309 42.6191 115.806 42.1127C115.296 41.6062 115.046 40.9525 115.046 40.1545V29.2892C115.046 28.0112 114.658 27.0808 113.886 26.4919C113.115 25.9059 112.249 25.6114 111.289 25.6114C110.329 25.6114 109.475 25.9029 108.733 26.4919C107.985 27.0778 107.614 28.0083 107.614 29.2892V42.8724H102.02V30.4081C102.02 26.7863 102.965 24.3629 104.855 23.138C106.746 21.9131 108.836 21.2476 111.127 21.1387C113.471 21.1387 115.629 21.7511 117.599 22.9761C119.569 24.201 120.555 26.6803 120.555 30.4081V42.8724H120.558Z" fill="white"></path><path d="M138.464 36.0469H142.386C141.809 38.2435 140.711 39.919 139.091 41.0673C137.469 42.2717 135.428 42.8724 132.973 42.8724C129.99 42.8724 127.664 41.9065 125.988 39.969C124.313 38.0845 123.477 35.3932 123.477 31.8863C123.477 28.3793 124.286 25.9236 125.909 24.042C127.581 22.1074 129.907 21.1387 132.89 21.1387C136.029 21.1387 138.461 22.0809 140.187 23.9625C141.859 25.8971 142.699 28.5913 142.699 32.0453V32.908C142.699 33.1701 142.672 33.3526 142.619 33.4557H129.048C129.098 35.0781 129.492 36.2795 130.225 37.0657C130.903 37.902 131.924 38.323 133.285 38.323C134.174 38.323 134.934 38.1405 135.561 37.7724C135.717 37.7223 135.861 37.6281 135.994 37.4986C136.123 37.369 136.268 37.2247 136.424 37.0657C136.477 36.9067 136.671 36.7006 137.013 36.4385C137.351 36.1765 137.837 36.0469 138.464 36.0469ZM129.051 29.9281H137.054C136.948 28.5148 136.583 27.4694 135.956 26.7893C135.275 26.059 134.307 25.6909 133.052 25.6909C131.901 25.6909 130.959 26.0561 130.228 26.7893C129.495 27.5224 129.104 28.5678 129.051 29.9281Z" fill="white"></path><path d="M79.5127 21.1396H72.6371L65.6998 29.1517V17.4678C65.6998 16.7522 65.4201 16.1309 64.89 15.5862C64.3306 15.0415 63.6769 14.7617 62.9143 14.7617H59.9727V42.8703H65.6969V34.6256C65.6969 34.1898 65.9913 33.863 66.5979 33.6451C67.1897 33.4272 67.9053 34.0485 68.715 35.5119L72.7284 42.8703H79.5892L71.7479 29.4756L79.5097 21.1367L79.5127 21.1396Z" fill="white"></path><path d="M152.769 21.7158C151.385 22.0898 150.172 22.6963 149.145 23.5061C148.055 24.3777 147.184 25.5437 146.562 26.9895C145.941 28.4205 145.629 30.2108 145.629 32.3397V42.8724H151.353V31.689C151.353 30.04 151.727 28.8593 152.49 28.079C153.252 27.3163 154.418 26.9424 156.005 26.9424H157.887V21.1387H157.063C155.599 21.1387 154.168 21.3242 152.769 21.7129V21.7158Z" fill="white"></path><path d="M163.971 20.9531H160.844V43.0725H166.957V23.9242C166.957 23.0997 166.662 22.3989 166.07 21.8247C165.496 21.2329 164.795 20.9531 163.971 20.9531Z" fill="white"></path><path d="M166.753 16.4725C166.753 17.2351 166.488 17.8888 165.944 18.4336C165.399 18.9783 164.745 19.258 163.968 19.258H161.029V14.7617H166.753V16.4725Z" fill="url(#paint0_radial_446_193)"></path><path d="M181.689 29.4786L189.451 21.1396H182.576L175.638 29.1517V17.4678C175.638 16.7522 175.359 16.1309 174.814 15.5862C174.269 15.0415 173.615 14.7617 172.853 14.7617H169.914V42.8703H175.638V34.6256C175.638 34.1898 175.933 33.863 176.539 33.6451C177.131 33.4272 177.847 34.0485 178.653 35.5119L182.667 42.8703H189.528L181.686 29.4756L181.689 29.4786Z" fill="white"></path><path d="M205.515 41.6151C204.417 42.1922 203.254 42.5455 202.023 42.6751C200.792 42.8076 199.708 42.8724 198.766 42.8724C196.882 42.8724 195.236 42.363 193.822 41.3412C192.409 40.3224 191.705 38.6352 191.705 36.2795C191.705 34.0829 192.344 32.5135 193.628 31.5712C194.909 30.629 196.543 30.0018 198.531 29.6867C198.793 29.6867 199.108 29.6484 199.473 29.5689C199.838 29.4894 200.259 29.4246 200.727 29.3716C203.03 29.0566 204.181 28.3793 204.181 27.3311C204.181 26.5449 203.775 26.0384 202.965 25.7999C202.155 25.5644 201.407 25.4466 200.73 25.4466C199.997 25.4466 199.343 25.5526 198.769 25.7616C198.192 25.9707 197.774 26.3653 197.512 26.9395H192.256C192.465 25.32 193.198 23.9861 194.452 22.9378C195.866 21.7364 197.877 21.1328 200.495 21.1328C203.424 21.1328 205.618 21.6304 207.084 22.6228C208.601 23.671 209.358 25.1344 209.358 27.016V34.1565C209.358 36.2501 208.978 37.8843 208.221 39.0592C207.461 40.237 206.56 41.088 205.515 41.6092V41.6151ZM204.261 31.9658C203.527 32.3309 202.509 32.6725 201.201 32.9846L199.396 33.3762C198.454 33.6383 197.774 33.9799 197.356 34.395C196.988 34.9722 196.805 35.5464 196.805 36.1235C196.805 36.9067 197.041 37.5369 197.512 38.0051C197.983 38.4261 198.66 38.6352 199.552 38.6352C201.016 38.6352 202.167 38.2171 203.003 37.3779C203.84 36.5416 204.261 35.3903 204.261 33.9269V31.9658Z" fill="white"></path><path d="M29.1902 26.7192L29.2138 48.288C29.2138 49.7308 30.7773 50.6318 32.0258 49.9075L50.6942 39.101C51.2743 38.7653 51.6306 38.1469 51.6306 37.4756L51.607 15.9068C51.5481 13.8613 50.6098 12.231 48.792 11.0159L30.1001 0.250656C29.52 -0.0850225 28.8045 -0.082078 28.2244 0.250656L9.55599 11.0571C8.3075 11.7785 8.31045 13.5836 9.55893 14.305L28.2509 25.0732C28.831 25.4088 29.1902 26.0508 29.1902 26.7192Z" fill="white"></path><path d="M29.1637 0.294454C29.4405 0.294454 29.7114 0.368068 29.9528 0.506462L48.636 11.2688C49.9551 12.1492 50.6177 12.5938 50.9357 13.1444C51.2507 13.6921 51.2713 14.4342 51.3155 15.9094L51.3391 37.4782C51.3391 38.0406 51.0387 38.5647 50.5499 38.8474L31.8815 49.6539C31.6342 49.7981 31.3692 49.8688 31.0924 49.8688C30.3327 49.8688 29.5112 49.2652 29.5082 48.2876L29.4847 26.7188C29.4847 25.9326 29.0665 25.2024 28.3981 24.8166L9.70616 14.0484C9.21148 13.7628 8.91408 13.2534 8.91408 12.6822C8.91408 12.1109 9.20853 11.5986 9.70322 11.3129L28.3746 0.506462C28.616 0.368068 28.8899 0.294454 29.1667 0.294454M29.1637 0C28.8398 0 28.5159 0.0853918 28.2273 0.253231L9.55599 11.0568C8.3075 11.7782 8.31045 13.5832 9.55893 14.3046L28.2509 25.0728C28.831 25.4085 29.1902 26.0504 29.1902 26.7188L29.2138 48.2876C29.2138 49.38 30.1119 50.1633 31.0924 50.1633C31.4045 50.1633 31.7255 50.0838 32.0288 49.9071L50.6972 39.1006C51.2772 38.7649 51.6335 38.1466 51.6335 37.4752L51.61 15.9064C51.5511 13.861 50.6128 12.2307 48.795 11.0155L30.1001 0.250286C29.8115 0.0824472 29.4876 0 29.1637 0Z" fill="white"></path><path d="M29.1902 26.7192L29.2138 48.288C29.2138 49.7308 30.7773 50.6318 32.0258 49.9075L50.6942 39.101C51.2743 38.7653 51.6306 38.1469 51.6306 37.4756L51.607 15.9068C51.5481 13.8613 50.6098 12.231 48.792 11.0159L30.1001 0.250656C29.52 -0.0850225 28.8045 -0.082078 28.2244 0.250656L9.55599 11.0571C8.3075 11.7785 8.31045 13.5836 9.55893 14.305L28.2509 25.0732C28.831 25.4088 29.1902 26.0508 29.1902 26.7192Z" fill="white"></path><path d="M24.2454 55.502L24.2189 55.5197C23.1029 56.1616 21.7337 56.1616 20.6177 55.5197L12.2552 50.6906L1.79912 44.6514C0.683134 44.0095 0 42.8228 0 41.5331V19.8053C0 18.5185 0.683134 17.3289 1.79912 16.687C2.37919 16.3513 2.9946 16.2012 3.59529 16.2012C5.47391 16.2012 7.19941 17.7029 7.19941 19.8053V37.343C7.19941 38.6298 7.88549 39.8194 8.99853 40.4613L24.2483 49.2684C26.6481 50.6553 26.6481 54.1181 24.2483 55.502H24.2454Z" fill="url(#paint1_radial_446_193)"></path><path d="M24.2447 55.5029L24.2182 55.5206C23.1022 56.1595 21.733 56.1595 20.617 55.5206L12.2545 50.7033C6.06798 45.0763 7.19574 36.1543 7.19574 36.1543V37.3939C7.19574 38.6778 7.88182 39.8644 8.99486 40.5034L24.2447 49.284C26.6445 50.665 26.6445 54.1219 24.2447 55.5V55.5029Z" fill="url(#paint2_radial_446_193)"></path></g><defs><radialGradient id="paint0_radial_446_193" cx="0" cy="0" r="1" gradientUnits="userSpaceOnUse" gradientTransform="translate(160.835 14.7205) scale(15.4765 15.4765)"><stop stop-color="#F2598A"></stop><stop offset="0.55" stop-color="#FFB152"></stop></radialGradient><radialGradient id="paint1_radial_446_193" cx="0" cy="0" r="1" gradientUnits="userSpaceOnUse" gradientTransform="translate(0.830363 16.9638) scale(43.7471 43.7471)"><stop offset="0.07" stop-color="#8C48FF"></stop><stop offset="0.5" stop-color="#F2598A"></stop><stop offset="0.9" stop-color="#FFB152"></stop></radialGradient><radialGradient id="paint2_radial_446_193" cx="0" cy="0" r="1" gradientUnits="userSpaceOnUse" gradientTransform="translate(7.71987 42.064) scale(23.0293)"><stop offset="0.08" stop-color="#C02B3C"></stop><stop offset="0.37" stop-color="#FF5F3D"></stop><stop offset="1" stop-color="#FFB657"></stop></radialGradient><clipPath id="clip0_446_193"><rect width="209" height="56" fill="white"></rect></clipPath></defs></svg>